<svg width="306" height="38" viewBox="0 0 306 38" fill="none" xmlns="http://www.w3.org/2000/svg">
<path d="M0.285156 20.6055C0.285156 23.8672 1.57422 26.3672 4.15234 28.125C6.73047 29.8828 10.4219 30.7617 15.207 30.7617C25.2656 30.7617 30.5781 27.3438 30.5781 20.918C30.5781 15.918 27.2188 13.2422 19.8164 12.4414L14.4453 11.875C11.8672 11.582 10.2461 11.25 9.60156 10.8594C8.9375 10.4688 8.60547 9.84375 8.60547 9.00391C8.60547 6.89453 10.9492 5.68359 15.0117 5.68359C19.4062 5.68359 21.7695 7.10938 22.1016 10H29.2891V9.76562C29.2891 6.85547 28.0195 4.55078 25.4805 2.87109C22.9219 1.19141 19.4062 0.351562 14.8945 0.351562C10.6953 0.351562 7.33594 1.25 4.79688 3.02734C2.23828 4.80469 0.96875 7.12891 0.96875 9.96094C0.96875 14.7461 4.38672 17.3047 11.8867 18.0859L17.0234 18.5938C19.3086 18.8281 20.8125 19.1602 21.5742 19.6094C22.3164 20.0586 22.6875 20.7617 22.6875 21.7188C22.6875 23.9844 20.3047 25.2734 16.0859 25.2734C10.6172 25.2734 7.6875 23.5352 7.6875 20.2734V20H0.285156V20.6055ZM41.1445 19.2383C41.1445 17.3438 41.7305 15.8203 42.9023 14.668C44.0547 13.5352 45.6172 12.9688 47.5508 12.9688C49.4844 12.9688 51.0469 13.5352 52.1992 14.6484C53.3516 15.7812 53.918 17.3047 53.918 19.1992C53.918 21.1133 53.332 22.6367 52.1797 23.7695C51.0273 24.9219 49.4844 25.4883 47.5508 25.4883C45.6172 25.4883 44.0547 24.9219 42.9023 23.7891C41.7305 22.6562 41.1445 21.1328 41.1445 19.2383ZM33.918 19.1992C33.918 22.7734 35.1484 25.5859 37.5898 27.6562C40.0312 29.7266 43.3516 30.7617 47.5508 30.7617C51.75 30.7617 55.0703 29.7266 57.5117 27.6562C59.9336 25.5859 61.1445 22.7734 61.1445 19.1992C61.1445 15.625 59.9336 12.8125 57.5117 10.7617C55.0898 8.71094 51.7695 7.67578 47.5508 7.67578C43.3125 7.67578 39.9922 8.71094 37.5703 10.7617C35.1289 12.8125 33.918 15.625 33.918 19.1992ZM82.4727 21.2305C82.375 22.5195 81.8086 23.5742 80.793 24.375C79.7578 25.1953 78.4883 25.6055 76.9453 25.6055C75.1289 25.6055 73.6641 25.0195 72.5898 23.8672C71.4961 22.7148 70.9492 21.1719 70.9492 19.2383C70.9492 17.3047 71.4961 15.7422 72.5898 14.5703C73.6836 13.418 75.1289 12.832 76.9453 12.832C80.1289 12.832 82.0625 14.2188 82.4336 16.7188H89.7969C89.0742 10.8789 84.6797 7.67578 77.3555 7.67578C73.1172 7.67578 69.7969 8.71094 67.375 10.7617C64.9336 12.8125 63.7227 15.625 63.7227 19.1992C63.7227 22.6953 64.9336 25.4883 67.3359 27.5977C69.7383 29.707 72.9023 30.7617 76.8672 30.7617C80.5977 30.7617 83.6836 29.8828 86.0859 28.125C88.4883 26.3672 89.8164 24.0625 90.0312 21.2305H82.4727ZM101.066 1.11328H94.4258V6.28906H101.066V1.11328ZM101.066 30V8.4375H94.4258V30H101.066ZM124.738 19.6094C124.797 19.7656 124.797 19.9414 124.797 20.3516C124.797 22.0898 124.094 23.4961 122.688 24.5703C121.262 25.6445 119.426 26.1914 117.16 26.1914C114.973 26.1914 113.547 25.0977 113.547 23.4375C113.547 22.6367 113.879 22.0508 114.543 21.6797C115.207 21.3086 116.789 20.9766 119.309 20.7227C119.445 20.7031 119.66 20.6836 119.953 20.6445C122.316 20.4102 123.898 20.0586 124.738 19.6094ZM131.262 16.2305C131.262 14.4141 131.105 13.0664 130.793 12.168C130.461 11.2891 129.914 10.5469 129.152 9.96094C127.121 8.45703 124.094 7.67578 120.188 7.67578C112.238 7.67578 107.941 10.4102 107.941 15.4883V15.5664L114.914 15.5469C114.973 13.0664 116.457 11.9531 119.797 11.9531C123.098 11.9531 124.758 12.7539 124.758 14.3945C124.758 15.7617 122.609 16.6016 118.312 16.8945C117.434 16.9531 116.73 16.9922 116.242 17.0312C112.512 17.3438 109.875 18.0078 108.332 19.0039C106.789 20.0195 106.027 21.543 106.027 23.5938C106.027 25.8008 106.887 27.5391 108.586 28.8281C110.285 30.1172 112.629 30.7617 115.598 30.7617C119.426 30.7617 122.258 29.7656 124.582 27.6367L124.914 30H132.277V29.5117C131.555 29.0234 131.262 28.2227 131.262 26.5234V16.2305ZM143.84 30V1.11328H137.199V30H143.84ZM191.301 30H196.77V14.2773H182.531V20.0391H189.094C188.41 21.5234 187.336 22.6953 185.832 23.5352C184.328 24.375 182.59 24.8047 180.617 24.8047C177.707 24.8047 175.422 23.9844 173.762 22.3242C172.102 20.6836 171.262 18.4375 171.262 15.5664C171.262 12.6953 172.102 10.4297 173.781 8.76953C175.441 7.10938 177.727 6.28906 180.617 6.28906C184.895 6.28906 187.648 7.89062 188.977 11.1133H196.848C196.418 7.91016 194.719 5.3125 191.75 3.32031C188.781 1.34766 185.07 0.351562 180.617 0.351562C175.344 0.351562 171.145 1.73828 168 4.49219C164.855 7.24609 163.293 10.9375 163.293 15.5664C163.293 20.5469 165.07 24.2969 168.684 27.168C171.633 29.4531 175.754 30.7617 180.207 30.7617C184.641 30.7617 188.137 29.4336 190.891 26.7578L191.301 30ZM209.25 20.3516C209.25 18.1836 209.816 16.5039 210.93 15.2734C212.043 14.043 213.586 13.4375 215.539 13.4375C216.77 13.4375 217.199 13.457 217.648 13.5156V7.83203C217.531 7.8125 217.355 7.8125 217.121 7.79297C216.457 7.71484 216.008 7.67578 215.773 7.67578C213.41 7.67578 211.281 8.84766 209.25 11.2891V8.4375H202.57V30H209.25V20.3516ZM238.137 19.6094C238.195 19.7656 238.195 19.9414 238.195 20.3516C238.195 22.0898 237.492 23.4961 236.086 24.5703C234.66 25.6445 232.824 26.1914 230.559 26.1914C228.371 26.1914 226.945 25.0977 226.945 23.4375C226.945 22.6367 227.277 22.0508 227.941 21.6797C228.605 21.3086 230.188 20.9766 232.707 20.7227C232.844 20.7031 233.059 20.6836 233.352 20.6445C235.715 20.4102 237.297 20.0586 238.137 19.6094ZM244.66 16.2305C244.66 14.4141 244.504 13.0664 244.191 12.168C243.859 11.2891 243.312 10.5469 242.551 9.96094C240.52 8.45703 237.492 7.67578 233.586 7.67578C225.637 7.67578 221.34 10.4102 221.34 15.4883V15.5664L228.312 15.5469C228.371 13.0664 229.855 11.9531 233.195 11.9531C236.496 11.9531 238.156 12.7539 238.156 14.3945C238.156 15.7617 236.008 16.6016 231.711 16.8945C230.832 16.9531 230.129 16.9922 229.641 17.0312C225.91 17.3438 223.273 18.0078 221.73 19.0039C220.188 20.0195 219.426 21.543 219.426 23.5938C219.426 25.8008 220.285 27.5391 221.984 28.8281C223.684 30.1172 226.027 30.7617 228.996 30.7617C232.824 30.7617 235.656 29.7656 237.98 27.6367L238.312 30H245.676V29.5117C244.953 29.0234 244.66 28.2227 244.66 26.5234V16.2305ZM256.906 19.2383C256.906 17.3828 257.492 15.8789 258.645 14.7656C259.797 13.6523 261.32 13.0859 263.234 13.0859C265.168 13.0859 266.691 13.6328 267.844 14.7266C268.996 15.8398 269.562 17.3242 269.562 19.1992C269.562 21.0938 268.996 22.5977 267.863 23.6914C266.711 24.8047 265.168 25.3516 263.234 25.3516C261.301 25.3516 259.777 24.8047 258.625 23.6914C257.473 22.5781 256.906 21.0938 256.906 19.2383ZM256.906 37.5977V27.7539C258.781 29.6484 261.203 30.5664 264.426 30.5664C268.117 30.5664 271.086 29.5117 273.352 27.4219C275.617 25.332 276.75 22.5781 276.75 19.1992C276.75 15.8594 275.617 13.125 273.371 11.0156C271.105 8.92578 268.176 7.87109 264.562 7.87109C261.203 7.87109 258.703 8.75 256.906 10.6055V8.4375H250.266V37.5977H256.906ZM287.492 30V19.3555C287.492 17.4609 288.059 15.957 289.172 14.8633C290.285 13.7891 291.809 13.2422 293.742 13.2422C295.461 13.2422 296.672 13.6914 297.375 14.5898C298.059 15.4883 298.41 17.1484 298.41 19.5508V30H305.09V18.125C305.09 16.1523 304.992 14.6875 304.797 13.75C304.602 12.832 304.27 12.0117 303.82 11.3281C302.336 9.08203 299.582 7.92969 295.891 7.92969C292.59 7.92969 289.816 9.16016 287.492 11.6797V1.11328H280.812V30H287.492Z" fill="#292A2E"/>
</svg>
