<svg width="305" height="38" viewBox="0 0 305 38" fill="none" xmlns="http://www.w3.org/2000/svg">
<path d="M26.0977 18.8086C25.8633 20.7031 24.9844 22.168 23.4609 23.2227C21.918 24.2773 19.9062 24.8047 17.3867 24.8047C14.4766 24.8047 12.1914 23.9844 10.5312 22.3242C8.87109 20.6836 8.03125 18.4375 8.03125 15.5664C8.03125 12.6953 8.87109 10.4297 10.5508 8.76953C12.2109 7.10938 14.4961 6.28906 17.3867 6.28906C22.1328 6.28906 25.0625 8.10547 26.0195 11.6406H33.9102C33.5391 8.26172 31.8398 5.54688 28.832 3.45703C25.8047 1.38672 21.9961 0.351562 17.3867 0.351562C12.1133 0.351562 7.91406 1.73828 4.76953 4.49219C1.625 7.24609 0.0625 10.9375 0.0625 15.5664C0.0625 20.1953 1.625 23.8672 4.76953 26.6211C7.91406 29.375 12.1133 30.7617 17.3867 30.7617C22.0547 30.7617 25.9023 29.668 28.9297 27.5C31.9375 25.332 33.6367 22.4219 34.0273 18.8086H26.0977ZM44.1641 19.2383C44.1641 17.3438 44.75 15.8203 45.9219 14.668C47.0742 13.5352 48.6367 12.9688 50.5703 12.9688C52.5039 12.9688 54.0664 13.5352 55.2188 14.6484C56.3711 15.7812 56.9375 17.3047 56.9375 19.1992C56.9375 21.1133 56.3516 22.6367 55.1992 23.7695C54.0469 24.9219 52.5039 25.4883 50.5703 25.4883C48.6367 25.4883 47.0742 24.9219 45.9219 23.7891C44.75 22.6562 44.1641 21.1328 44.1641 19.2383ZM36.9375 19.1992C36.9375 22.7734 38.168 25.5859 40.6094 27.6562C43.0508 29.7266 46.3711 30.7617 50.5703 30.7617C54.7695 30.7617 58.0898 29.7266 60.5312 27.6562C62.9531 25.5859 64.1641 22.7734 64.1641 19.1992C64.1641 15.625 62.9531 12.8125 60.5312 10.7617C58.1094 8.71094 54.7891 7.67578 50.5703 7.67578C46.332 7.67578 43.0117 8.71094 40.5898 10.7617C38.1484 12.8125 36.9375 15.625 36.9375 19.1992ZM74.8477 30V19.3555C74.8477 17.4609 75.4141 15.957 76.5273 14.8633C77.6406 13.7891 79.1641 13.2422 81.0977 13.2422C82.8164 13.2422 84.0273 13.6914 84.7305 14.5898C85.4141 15.4883 85.7656 17.1484 85.7656 19.5508V30H92.4453V18.125C92.4453 16.1523 92.3477 14.6875 92.1523 13.75C91.957 12.832 91.625 12.0117 91.1758 11.3281C89.6914 9.12109 86.8594 7.87109 83.2461 7.87109C80.043 7.87109 77.2109 9.16016 74.8477 11.6797V8.4375H68.168V30H74.8477ZM104.496 8.4375H97.8164V30H104.496V19.3555C104.496 17.4609 105.062 15.957 106.176 14.8633C107.289 13.7891 108.812 13.2422 110.746 13.2422C112.465 13.2422 113.676 13.6914 114.379 14.5898C115.062 15.4883 115.414 17.1484 115.414 19.5508V30H121.898V19.3555C121.898 17.4609 122.465 15.957 123.578 14.8633C124.691 13.7891 126.215 13.2422 128.148 13.2422C129.867 13.2422 131.078 13.6914 131.781 14.5898C132.465 15.4883 132.816 17.1484 132.816 19.5508V30H139.496V18.125C139.496 16.1523 139.398 14.6875 139.203 13.75C139.008 12.832 138.676 12.0117 138.227 11.3281C136.742 9.12109 133.91 7.87109 130.297 7.87109C126.723 7.87109 123.559 9.47266 121.391 12.3633C120.199 9.55078 117.055 7.87109 112.895 7.87109C109.691 7.87109 106.859 9.16016 104.496 11.6797V8.4375ZM151.527 8.4375H144.848V30H151.527V19.3555C151.527 17.4609 152.094 15.957 153.207 14.8633C154.32 13.7891 155.844 13.2422 157.777 13.2422C159.496 13.2422 160.707 13.6914 161.41 14.5898C162.094 15.4883 162.445 17.1484 162.445 19.5508V30H168.93V19.3555C168.93 17.4609 169.496 15.957 170.609 14.8633C171.723 13.7891 173.246 13.2422 175.18 13.2422C176.898 13.2422 178.109 13.6914 178.812 14.5898C179.496 15.4883 179.848 17.1484 179.848 19.5508V30H186.527V18.125C186.527 16.1523 186.43 14.6875 186.234 13.75C186.039 12.832 185.707 12.0117 185.258 11.3281C183.773 9.12109 180.941 7.87109 177.328 7.87109C173.754 7.87109 170.59 9.47266 168.422 12.3633C167.23 9.55078 164.086 7.87109 159.926 7.87109C156.723 7.87109 153.891 9.16016 151.527 11.6797V8.4375ZM209.477 8.4375V19.082C209.477 20.9766 208.93 22.4609 207.816 23.5352C206.703 24.6094 205.18 25.1562 203.246 25.1562C201.508 25.1562 200.297 24.707 199.613 23.8086C198.91 22.9297 198.559 21.2891 198.559 18.8867V8.4375H191.879V20.3125C191.879 22.3047 191.977 23.7695 192.172 24.6875C192.367 25.6055 192.699 26.4258 193.168 27.1289C194.652 29.3359 197.406 30.5273 201.078 30.5273C204.418 30.5273 207.152 29.2773 209.477 26.7578V30H216.156V8.4375H209.477ZM228.207 30V19.3555C228.207 17.4609 228.773 15.957 229.887 14.8633C231 13.7891 232.523 13.2422 234.457 13.2422C236.176 13.2422 237.387 13.6914 238.09 14.5898C238.773 15.4883 239.125 17.1484 239.125 19.5508V30H245.805V18.125C245.805 16.1523 245.707 14.6875 245.512 13.75C245.316 12.832 244.984 12.0117 244.535 11.3281C243.051 9.12109 240.219 7.87109 236.605 7.87109C233.402 7.87109 230.57 9.16016 228.207 11.6797V8.4375H221.527V30H228.207ZM258.266 1.11328H251.625V6.28906H258.266V1.11328ZM258.266 30V8.4375H251.625V30H258.266ZM265.863 8.4375H262.719V13.5156H265.863V25.5664C265.863 27.4023 266.41 28.7305 267.523 29.5312C268.637 30.3516 270.473 30.7617 273.031 30.7617H277.543V25.5664H274.75C273.793 25.5664 273.188 25.4297 272.934 25.1758C272.68 24.9219 272.543 24.0625 272.543 22.6367V13.5156H277.543V8.4375H272.543V2.75391H265.863V8.4375ZM284.379 37.5977H285.473C287.348 37.5977 288.148 37.4609 288.91 37.0703C290.219 36.4453 291.312 35.1367 292.309 33.1641L304.379 8.4375H297.035L290.785 22.3242L285.023 8.4375H277.582L286.938 28.3594C287.094 28.7305 287.191 29.1797 287.191 29.7266C287.191 30.9961 286.332 31.6797 284.672 31.6797H280.824V37.5977H284.379Z" fill="white"/>
</svg>
