<svg width="354" height="31" viewBox="0 0 354 31" fill="none" xmlns="http://www.w3.org/2000/svg">
<path d="M0.449219 20.6055C0.449219 23.8672 1.73828 26.3672 4.31641 28.125C6.89453 29.8828 10.5859 30.7617 15.3711 30.7617C25.4297 30.7617 30.7422 27.3438 30.7422 20.918C30.7422 15.918 27.3828 13.2422 19.9805 12.4414L14.6094 11.875C12.0312 11.582 10.4102 11.25 9.76562 10.8594C9.10156 10.4688 8.76953 9.84375 8.76953 9.00391C8.76953 6.89453 11.1133 5.68359 15.1758 5.68359C19.5703 5.68359 21.9336 7.10938 22.2656 10H29.4531V9.76562C29.4531 6.85547 28.1836 4.55078 25.6445 2.87109C23.0859 1.19141 19.5703 0.351562 15.0586 0.351562C10.8594 0.351562 7.5 1.25 4.96094 3.02734C2.40234 4.80469 1.13281 7.12891 1.13281 9.96094C1.13281 14.7461 4.55078 17.3047 12.0508 18.0859L17.1875 18.5938C19.4727 18.8281 20.9766 19.1602 21.7383 19.6094C22.4805 20.0586 22.8516 20.7617 22.8516 21.7188C22.8516 23.9844 20.4688 25.2734 16.25 25.2734C10.7812 25.2734 7.85156 23.5352 7.85156 20.2734V20H0.449219V20.6055ZM41.3086 19.2383C41.3086 17.3438 41.8945 15.8203 43.0664 14.668C44.2188 13.5352 45.7812 12.9688 47.7148 12.9688C49.6484 12.9688 51.2109 13.5352 52.3633 14.6484C53.5156 15.7812 54.082 17.3047 54.082 19.1992C54.082 21.1133 53.4961 22.6367 52.3438 23.7695C51.1914 24.9219 49.6484 25.4883 47.7148 25.4883C45.7812 25.4883 44.2188 24.9219 43.0664 23.7891C41.8945 22.6562 41.3086 21.1328 41.3086 19.2383ZM34.082 19.1992C34.082 22.7734 35.3125 25.5859 37.7539 27.6562C40.1953 29.7266 43.5156 30.7617 47.7148 30.7617C51.9141 30.7617 55.2344 29.7266 57.6758 27.6562C60.0977 25.5859 61.3086 22.7734 61.3086 19.1992C61.3086 15.625 60.0977 12.8125 57.6758 10.7617C55.2539 8.71094 51.9336 7.67578 47.7148 7.67578C43.4766 7.67578 40.1562 8.71094 37.7344 10.7617C35.293 12.8125 34.082 15.625 34.082 19.1992ZM82.6367 21.2305C82.5391 22.5195 81.9727 23.5742 80.957 24.375C79.9219 25.1953 78.6523 25.6055 77.1094 25.6055C75.293 25.6055 73.8281 25.0195 72.7539 23.8672C71.6602 22.7148 71.1133 21.1719 71.1133 19.2383C71.1133 17.3047 71.6602 15.7422 72.7539 14.5703C73.8477 13.418 75.293 12.832 77.1094 12.832C80.293 12.832 82.2266 14.2188 82.5977 16.7188H89.9609C89.2383 10.8789 84.8438 7.67578 77.5195 7.67578C73.2812 7.67578 69.9609 8.71094 67.5391 10.7617C65.0977 12.8125 63.8867 15.625 63.8867 19.1992C63.8867 22.6953 65.0977 25.4883 67.5 27.5977C69.9023 29.707 73.0664 30.7617 77.0312 30.7617C80.7617 30.7617 83.8477 29.8828 86.25 28.125C88.6523 26.3672 89.9805 24.0625 90.1953 21.2305H82.6367ZM101.23 1.11328H94.5898V6.28906H101.23V1.11328ZM101.23 30V8.4375H94.5898V30H101.23ZM124.902 19.6094C124.961 19.7656 124.961 19.9414 124.961 20.3516C124.961 22.0898 124.258 23.4961 122.852 24.5703C121.426 25.6445 119.59 26.1914 117.324 26.1914C115.137 26.1914 113.711 25.0977 113.711 23.4375C113.711 22.6367 114.043 22.0508 114.707 21.6797C115.371 21.3086 116.953 20.9766 119.473 20.7227C119.609 20.7031 119.824 20.6836 120.117 20.6445C122.48 20.4102 124.062 20.0586 124.902 19.6094ZM131.426 16.2305C131.426 14.4141 131.27 13.0664 130.957 12.168C130.625 11.2891 130.078 10.5469 129.316 9.96094C127.285 8.45703 124.258 7.67578 120.352 7.67578C112.402 7.67578 108.105 10.4102 108.105 15.4883V15.5664L115.078 15.5469C115.137 13.0664 116.621 11.9531 119.961 11.9531C123.262 11.9531 124.922 12.7539 124.922 14.3945C124.922 15.7617 122.773 16.6016 118.477 16.8945C117.598 16.9531 116.895 16.9922 116.406 17.0312C112.676 17.3438 110.039 18.0078 108.496 19.0039C106.953 20.0195 106.191 21.543 106.191 23.5938C106.191 25.8008 107.051 27.5391 108.75 28.8281C110.449 30.1172 112.793 30.7617 115.762 30.7617C119.59 30.7617 122.422 29.7656 124.746 27.6367L125.078 30H132.441V29.5117C131.719 29.0234 131.426 28.2227 131.426 26.5234V16.2305ZM144.004 30V1.11328H137.363V30H144.004ZM172.266 6.875H180.137C182.617 6.875 184.277 7.10938 185.098 7.57812C185.918 8.04688 186.328 8.86719 186.328 10.0391C186.328 11.25 185.898 12.1094 185.02 12.6367C184.141 13.1641 182.617 13.4375 180.449 13.4375H172.266V6.875ZM172.266 30V19.3555H180.449H180.625C182.617 19.3555 183.965 19.7656 184.648 20.5859C185.332 21.4062 185.664 23.1445 185.664 25.8008V27.7539C185.664 28.6133 185.859 29.375 186.25 30H194.375C193.516 29.0039 193.008 26.7188 192.852 23.1445C192.832 22.8125 192.832 22.5391 192.812 22.3438C192.715 20.3516 192.422 18.9648 191.914 18.1641C191.387 17.3828 190.488 16.7188 189.219 16.1914C190.723 15.625 191.895 14.6875 192.754 13.3789C193.594 12.0703 194.023 10.5859 194.023 8.88672C194.023 3.57422 190.488 1.11328 182.773 1.11328H165.02V30H172.266ZM205.039 16.4648C205.156 15.1562 205.703 14.1016 206.68 13.3203C207.637 12.5586 208.887 12.168 210.43 12.168C213.535 12.168 215.586 13.8086 215.82 16.4844L205.039 16.4648ZM215.508 23.0078C214.707 24.9805 212.793 26.1133 210.273 26.1133C208.652 26.1133 207.363 25.6445 206.387 24.707C205.391 23.7891 204.883 22.5391 204.844 20.957H223.242V20.0391C223.242 16.0742 222.129 13.0273 219.883 10.8789C217.637 8.75 214.434 7.67578 210.273 7.67578C206.27 7.67578 203.125 8.71094 200.801 10.7617C198.477 12.832 197.324 15.6445 197.324 19.1992C197.324 22.7539 198.496 25.5664 200.82 27.6367C203.145 29.7266 206.289 30.7617 210.273 30.7617C213.418 30.7617 216.074 30.0977 218.262 28.7305C220.449 27.3828 221.992 25.4883 222.871 23.0078H215.508ZM234.355 30V1.11328H227.715V30H234.355ZM258.027 19.6094C258.086 19.7656 258.086 19.9414 258.086 20.3516C258.086 22.0898 257.383 23.4961 255.977 24.5703C254.551 25.6445 252.715 26.1914 250.449 26.1914C248.262 26.1914 246.836 25.0977 246.836 23.4375C246.836 22.6367 247.168 22.0508 247.832 21.6797C248.496 21.3086 250.078 20.9766 252.598 20.7227C252.734 20.7031 252.949 20.6836 253.242 20.6445C255.605 20.4102 257.188 20.0586 258.027 19.6094ZM264.551 16.2305C264.551 14.4141 264.395 13.0664 264.082 12.168C263.75 11.2891 263.203 10.5469 262.441 9.96094C260.41 8.45703 257.383 7.67578 253.477 7.67578C245.527 7.67578 241.23 10.4102 241.23 15.4883V15.5664L248.203 15.5469C248.262 13.0664 249.746 11.9531 253.086 11.9531C256.387 11.9531 258.047 12.7539 258.047 14.3945C258.047 15.7617 255.898 16.6016 251.602 16.8945C250.723 16.9531 250.02 16.9922 249.531 17.0312C245.801 17.3438 243.164 18.0078 241.621 19.0039C240.078 20.0195 239.316 21.543 239.316 23.5938C239.316 25.8008 240.176 27.5391 241.875 28.8281C243.574 30.1172 245.918 30.7617 248.887 30.7617C252.715 30.7617 255.547 29.7656 257.871 27.6367L258.203 30H265.566V29.5117C264.844 29.0234 264.551 28.2227 264.551 26.5234V16.2305ZM271.758 8.4375H268.613V13.5156H271.758V25.5664C271.758 27.4023 272.305 28.7305 273.418 29.5312C274.531 30.3516 276.367 30.7617 278.926 30.7617H283.438V25.5664H280.645C279.688 25.5664 279.082 25.4297 278.828 25.1758C278.574 24.9219 278.438 24.0625 278.438 22.6367V13.5156H283.438V8.4375H278.438V2.75391H271.758V8.4375ZM293.965 1.11328H287.324V6.28906H293.965V1.11328ZM293.965 30V8.4375H287.324V30H293.965ZM305.645 19.2383C305.645 17.3438 306.23 15.8203 307.402 14.668C308.555 13.5352 310.117 12.9688 312.051 12.9688C313.984 12.9688 315.547 13.5352 316.699 14.6484C317.852 15.7812 318.418 17.3047 318.418 19.1992C318.418 21.1133 317.832 22.6367 316.68 23.7695C315.527 24.9219 313.984 25.4883 312.051 25.4883C310.117 25.4883 308.555 24.9219 307.402 23.7891C306.23 22.6562 305.645 21.1328 305.645 19.2383ZM298.418 19.1992C298.418 22.7734 299.648 25.5859 302.09 27.6562C304.531 29.7266 307.852 30.7617 312.051 30.7617C316.25 30.7617 319.57 29.7266 322.012 27.6562C324.434 25.5859 325.645 22.7734 325.645 19.1992C325.645 15.625 324.434 12.8125 322.012 10.7617C319.59 8.71094 316.27 7.67578 312.051 7.67578C307.812 7.67578 304.492 8.71094 302.07 10.7617C299.629 12.8125 298.418 15.625 298.418 19.1992ZM336.328 30V19.3555C336.328 17.4609 336.895 15.957 338.008 14.8633C339.121 13.7891 340.645 13.2422 342.578 13.2422C344.297 13.2422 345.508 13.6914 346.211 14.5898C346.895 15.4883 347.246 17.1484 347.246 19.5508V30H353.926V18.125C353.926 16.1523 353.828 14.6875 353.633 13.75C353.438 12.832 353.105 12.0117 352.656 11.3281C351.172 9.12109 348.34 7.87109 344.727 7.87109C341.523 7.87109 338.691 9.16016 336.328 11.6797V8.4375H329.648V30H336.328Z" fill="white"/>
</svg>
