<svg width="217" height="37" viewBox="0 0 217 37" fill="none" xmlns="http://www.w3.org/2000/svg">
<path d="M26.1914 29V22.9258H7.79297V16.7148H24.1797V10.8359H7.79297V5.95312H26.1914V0.113281H0.546875V29H26.1914ZM35.3711 29L40.0977 22.9648L45.0195 29H53.8867L44.1016 18.1992L53.2617 7.4375H44.6094L40.2148 13.1992L36.0156 7.4375H27.6562L36.1328 18.0039L26.6211 29H35.3711ZM62.3242 18.2383C62.3242 16.3828 62.9102 14.8789 64.0625 13.7656C65.2148 12.6523 66.7383 12.0859 68.6523 12.0859C70.5859 12.0859 72.1094 12.6328 73.2617 13.7266C74.4141 14.8398 74.9805 16.3242 74.9805 18.1992C74.9805 20.0938 74.4141 21.5977 73.2812 22.6914C72.1289 23.8047 70.5859 24.3516 68.6523 24.3516C66.7188 24.3516 65.1953 23.8047 64.043 22.6914C62.8906 21.5781 62.3242 20.0938 62.3242 18.2383ZM62.3242 36.5977V26.7539C64.1992 28.6484 66.6211 29.5664 69.8438 29.5664C73.5352 29.5664 76.5039 28.5117 78.7695 26.4219C81.0352 24.332 82.168 21.5781 82.168 18.1992C82.168 14.8594 81.0352 12.125 78.7891 10.0156C76.5234 7.92578 73.5938 6.87109 69.9805 6.87109C66.6211 6.87109 64.1211 7.75 62.3242 9.60547V7.4375H55.6836V36.5977H62.3242ZM92.0312 18.2383C92.0312 16.3438 92.6172 14.8203 93.7891 13.668C94.9414 12.5352 96.5039 11.9688 98.4375 11.9688C100.371 11.9688 101.934 12.5352 103.086 13.6484C104.238 14.7812 104.805 16.3047 104.805 18.1992C104.805 20.1133 104.219 21.6367 103.066 22.7695C101.914 23.9219 100.371 24.4883 98.4375 24.4883C96.5039 24.4883 94.9414 23.9219 93.7891 22.7891C92.6172 21.6562 92.0312 20.1328 92.0312 18.2383ZM84.8047 18.1992C84.8047 21.7734 86.0352 24.5859 88.4766 26.6562C90.918 28.7266 94.2383 29.7617 98.4375 29.7617C102.637 29.7617 105.957 28.7266 108.398 26.6562C110.82 24.5859 112.031 21.7734 112.031 18.1992C112.031 14.625 110.82 11.8125 108.398 9.76172C105.977 7.71094 102.656 6.67578 98.4375 6.67578C94.1992 6.67578 90.8789 7.71094 88.457 9.76172C86.0156 11.8125 84.8047 14.625 84.8047 18.1992ZM115.234 21.9297C115.527 27.1055 119.766 29.7617 127.754 29.7617C135.664 29.7617 139.844 27.0273 139.844 21.8711C139.844 18.1016 137.266 15.7773 132.637 15.4453L127.969 15.0742C124.316 14.7812 122.969 14.2148 122.969 13.043C122.969 11.8125 124.57 11.0703 127.285 11.0703C130.508 11.0703 132.207 11.9883 132.52 13.8828H139.199V13.6875C139.199 11.5 138.184 9.78125 136.133 8.53125C134.082 7.30078 131.25 6.67578 127.637 6.67578C120.059 6.67578 115.918 9.25391 115.918 14C115.918 15.8164 116.562 17.3203 117.871 18.5117C119.18 19.7031 120.938 20.4062 123.164 20.6016L129.199 21.1289C130.742 21.2461 131.738 21.4219 132.227 21.6758C132.695 21.9297 132.93 22.3203 132.93 22.8867C132.93 24.1367 131.113 24.9961 128.32 24.9961C124.258 24.9961 122.5 24.0977 122.285 21.9297H115.234ZM162.07 7.4375V18.082C162.07 19.9766 161.523 21.4609 160.41 22.5352C159.297 23.6094 157.773 24.1562 155.84 24.1562C154.102 24.1562 152.891 23.707 152.207 22.8086C151.504 21.9297 151.152 20.2891 151.152 17.8867V7.4375H144.473V19.3125C144.473 21.3047 144.57 22.7695 144.766 23.6875C144.961 24.6055 145.293 25.4258 145.762 26.1289C147.246 28.3359 150 29.5273 153.672 29.5273C157.012 29.5273 159.746 28.2773 162.07 25.7578V29H168.75V7.4375H162.07ZM180.801 19.3516C180.801 17.1836 181.367 15.5039 182.48 14.2734C183.594 13.043 185.137 12.4375 187.09 12.4375C188.32 12.4375 188.75 12.457 189.199 12.5156V6.83203C189.082 6.8125 188.906 6.8125 188.672 6.79297C188.008 6.71484 187.559 6.67578 187.324 6.67578C184.961 6.67578 182.832 7.84766 180.801 10.2891V7.4375H174.121V29H180.801V19.3516ZM198.184 15.4648C198.301 14.1562 198.848 13.1016 199.824 12.3203C200.781 11.5586 202.031 11.168 203.574 11.168C206.68 11.168 208.73 12.8086 208.965 15.4844L198.184 15.4648ZM208.652 22.0078C207.852 23.9805 205.938 25.1133 203.418 25.1133C201.797 25.1133 200.508 24.6445 199.531 23.707C198.535 22.7891 198.027 21.5391 197.988 19.957H216.387V19.0391C216.387 15.0742 215.273 12.0273 213.027 9.87891C210.781 7.75 207.578 6.67578 203.418 6.67578C199.414 6.67578 196.27 7.71094 193.945 9.76172C191.621 11.832 190.469 14.6445 190.469 18.1992C190.469 21.7539 191.641 24.5664 193.965 26.6367C196.289 28.7266 199.434 29.7617 203.418 29.7617C206.562 29.7617 209.219 29.0977 211.406 27.7305C213.594 26.3828 215.137 24.4883 216.016 22.0078H208.652Z" fill="white"/>
</svg>
