<svg width="231" height="37" viewBox="0 0 231 37" fill="none" xmlns="http://www.w3.org/2000/svg">
<path d="M13.5195 5.91406C20.1602 5.91406 23.6367 8.84375 23.6367 14.4492C23.6367 20.0547 20.1406 23.0039 13.5195 23.0039H7.91406V5.91406H13.5195ZM0.316406 0.113281V29H13.3633C16.4883 29 18.832 28.8633 20.3945 28.5703C21.9375 28.2773 23.3242 27.8086 24.5547 27.125C26.6836 25.9531 28.3438 24.2734 29.4961 22.1055C30.6484 19.9375 31.2344 17.418 31.2344 14.5664C31.2344 11.6953 30.6484 9.17578 29.4961 7.00781C28.3438 4.83984 26.6836 3.16016 24.5547 2.00781C23.3242 1.32422 21.9375 0.835938 20.3945 0.542969C18.832 0.25 16.4883 0.113281 13.3633 0.113281H0.316406ZM42.6992 0.113281H36.0586V5.28906H42.6992V0.113281ZM42.6992 29V7.4375H36.0586V29H42.6992ZM47.7773 21.9297C48.0703 27.1055 52.3086 29.7617 60.2969 29.7617C68.207 29.7617 72.3867 27.0273 72.3867 21.8711C72.3867 18.1016 69.8086 15.7773 65.1797 15.4453L60.5117 15.0742C56.8594 14.7812 55.5117 14.2148 55.5117 13.043C55.5117 11.8125 57.1133 11.0703 59.8281 11.0703C63.0508 11.0703 64.75 11.9883 65.0625 13.8828H71.7422V13.6875C71.7422 11.5 70.7266 9.78125 68.6758 8.53125C66.625 7.30078 63.793 6.67578 60.1797 6.67578C52.6016 6.67578 48.4609 9.25391 48.4609 14C48.4609 15.8164 49.1055 17.3203 50.4141 18.5117C51.7227 19.7031 53.4805 20.4062 55.707 20.6016L61.7422 21.1289C63.2852 21.2461 64.2812 21.4219 64.7695 21.6758C65.2383 21.9297 65.4727 22.3203 65.4727 22.8867C65.4727 24.1367 63.6562 24.9961 60.8633 24.9961C56.8008 24.9961 55.043 24.0977 54.8281 21.9297H47.7773ZM94.3398 20.2305C94.2422 21.5195 93.6758 22.5742 92.6602 23.375C91.625 24.1953 90.3555 24.6055 88.8125 24.6055C86.9961 24.6055 85.5312 24.0195 84.457 22.8672C83.3633 21.7148 82.8164 20.1719 82.8164 18.2383C82.8164 16.3047 83.3633 14.7422 84.457 13.5703C85.5508 12.418 86.9961 11.832 88.8125 11.832C91.9961 11.832 93.9297 13.2188 94.3008 15.7188H101.664C100.941 9.87891 96.5469 6.67578 89.2227 6.67578C84.9844 6.67578 81.6641 7.71094 79.2422 9.76172C76.8008 11.8125 75.5898 14.625 75.5898 18.1992C75.5898 21.6953 76.8008 24.4883 79.2031 26.5977C81.6055 28.707 84.7695 29.7617 88.7344 29.7617C92.4648 29.7617 95.5508 28.8828 97.9531 27.125C100.355 25.3672 101.684 23.0625 101.898 20.2305H94.3398ZM111.645 18.2383C111.645 16.3438 112.23 14.8203 113.402 13.668C114.555 12.5352 116.117 11.9688 118.051 11.9688C119.984 11.9688 121.547 12.5352 122.699 13.6484C123.852 14.7812 124.418 16.3047 124.418 18.1992C124.418 20.1133 123.832 21.6367 122.68 22.7695C121.527 23.9219 119.984 24.4883 118.051 24.4883C116.117 24.4883 114.555 23.9219 113.402 22.7891C112.23 21.6562 111.645 20.1328 111.645 18.2383ZM104.418 18.1992C104.418 21.7734 105.648 24.5859 108.09 26.6562C110.531 28.7266 113.852 29.7617 118.051 29.7617C122.25 29.7617 125.57 28.7266 128.012 26.6562C130.434 24.5859 131.645 21.7734 131.645 18.1992C131.645 14.625 130.434 11.8125 128.012 9.76172C125.59 7.71094 122.27 6.67578 118.051 6.67578C113.812 6.67578 110.492 7.71094 108.07 9.76172C105.629 11.8125 104.418 14.625 104.418 18.1992ZM148.539 29L159.047 7.4375H151.82L145.375 21.5195L139.496 7.4375H132.172L142.25 29H148.539ZM167.289 15.4648C167.406 14.1562 167.953 13.1016 168.93 12.3203C169.887 11.5586 171.137 11.168 172.68 11.168C175.785 11.168 177.836 12.8086 178.07 15.4844L167.289 15.4648ZM177.758 22.0078C176.957 23.9805 175.043 25.1133 172.523 25.1133C170.902 25.1133 169.613 24.6445 168.637 23.707C167.641 22.7891 167.133 21.5391 167.094 19.957H185.492V19.0391C185.492 15.0742 184.379 12.0273 182.133 9.87891C179.887 7.75 176.684 6.67578 172.523 6.67578C168.52 6.67578 165.375 7.71094 163.051 9.76172C160.727 11.832 159.574 14.6445 159.574 18.1992C159.574 21.7539 160.746 24.5664 163.07 26.6367C165.395 28.7266 168.539 29.7617 172.523 29.7617C175.668 29.7617 178.324 29.0977 180.512 27.7305C182.699 26.3828 184.242 24.4883 185.121 22.0078H177.758ZM196.195 19.3516C196.195 17.1836 196.762 15.5039 197.875 14.2734C198.988 13.043 200.531 12.4375 202.484 12.4375C203.715 12.4375 204.145 12.457 204.594 12.5156V6.83203C204.477 6.8125 204.301 6.8125 204.066 6.79297C203.402 6.71484 202.953 6.67578 202.719 6.67578C200.355 6.67578 198.227 7.84766 196.195 10.2891V7.4375H189.516V29H196.195V19.3516ZM210.688 36.5977H211.781C213.656 36.5977 214.457 36.4609 215.219 36.0703C216.527 35.4453 217.621 34.1367 218.617 32.1641L230.688 7.4375H223.344L217.094 21.3242L211.332 7.4375H203.891L213.246 27.3594C213.402 27.7305 213.5 28.1797 213.5 28.7266C213.5 29.9961 212.641 30.6797 210.98 30.6797H207.133V36.5977H210.688Z" fill="#292A2E"/>
</svg>
