<svg width="220" height="37" viewBox="0 0 220 37" fill="none" xmlns="http://www.w3.org/2000/svg">
<path d="M7.55469 5.875H15.4258C17.9062 5.875 19.5664 6.10938 20.3867 6.57812C21.207 7.04688 21.6172 7.86719 21.6172 9.03906C21.6172 10.25 21.1875 11.1094 20.3086 11.6367C19.4297 12.1641 17.9062 12.4375 15.7383 12.4375H7.55469V5.875ZM7.55469 29V18.3555H15.7383H15.9141C17.9062 18.3555 19.2539 18.7656 19.9375 19.5859C20.6211 20.4062 20.9531 22.1445 20.9531 24.8008V26.7539C20.9531 27.6133 21.1484 28.375 21.5391 29H29.6641C28.8047 28.0039 28.2969 25.7188 28.1406 22.1445C28.1211 21.8125 28.1211 21.5391 28.1016 21.3438C28.0039 19.3516 27.7109 17.9648 27.2031 17.1641C26.6758 16.3828 25.7773 15.7188 24.5078 15.1914C26.0117 14.625 27.1836 13.6875 28.043 12.3789C28.8828 11.0703 29.3125 9.58594 29.3125 7.88672C29.3125 2.57422 25.7773 0.113281 18.0625 0.113281H0.308594V29H7.55469ZM51.832 18.6094C51.8906 18.7656 51.8906 18.9414 51.8906 19.3516C51.8906 21.0898 51.1875 22.4961 49.7812 23.5703C48.3555 24.6445 46.5195 25.1914 44.2539 25.1914C42.0664 25.1914 40.6406 24.0977 40.6406 22.4375C40.6406 21.6367 40.9727 21.0508 41.6367 20.6797C42.3008 20.3086 43.8828 19.9766 46.4023 19.7227C46.5391 19.7031 46.7539 19.6836 47.0469 19.6445C49.4102 19.4102 50.9922 19.0586 51.832 18.6094ZM58.3555 15.2305C58.3555 13.4141 58.1992 12.0664 57.8867 11.168C57.5547 10.2891 57.0078 9.54688 56.2461 8.96094C54.2148 7.45703 51.1875 6.67578 47.2812 6.67578C39.332 6.67578 35.0352 9.41016 35.0352 14.4883V14.5664L42.0078 14.5469C42.0664 12.0664 43.5508 10.9531 46.8906 10.9531C50.1914 10.9531 51.8516 11.7539 51.8516 13.3945C51.8516 14.7617 49.7031 15.6016 45.4062 15.8945C44.5273 15.9531 43.8242 15.9922 43.3359 16.0312C39.6055 16.3438 36.9688 17.0078 35.4258 18.0039C33.8828 19.0195 33.1211 20.543 33.1211 22.5938C33.1211 24.8008 33.9805 26.5391 35.6797 27.8281C37.3789 29.1172 39.7227 29.7617 42.6914 29.7617C46.5195 29.7617 49.3516 28.7656 51.6758 26.6367L52.0078 29H59.3711V28.5117C58.6484 28.0234 58.3555 27.2227 58.3555 25.5234V15.2305ZM70.5234 29V18.3555C70.5234 16.4609 71.0898 14.957 72.2031 13.8633C73.3164 12.7891 74.8398 12.2422 76.7734 12.2422C78.4922 12.2422 79.7031 12.6914 80.4062 13.5898C81.0898 14.4883 81.4414 16.1484 81.4414 18.5508V29H88.1211V17.125C88.1211 15.1523 88.0234 13.6875 87.8281 12.75C87.6328 11.832 87.3008 11.0117 86.8516 10.3281C85.3672 8.12109 82.5352 6.87109 78.9219 6.87109C75.7188 6.87109 72.8867 8.16016 70.5234 10.6797V7.4375H63.8438V29H70.5234ZM100.582 29V22.4375L103.219 20.3672L110.777 29H119.664L108.141 16.2461L118.785 7.4375H110.172L100.582 15.5625V0.113281H93.9414V29H100.582ZM129.02 0.113281H122.379V5.28906H129.02V0.113281ZM129.02 29V7.4375H122.379V29H129.02ZM141.578 29V18.3555C141.578 16.4609 142.145 14.957 143.258 13.8633C144.371 12.7891 145.895 12.2422 147.828 12.2422C149.547 12.2422 150.758 12.6914 151.461 13.5898C152.145 14.4883 152.496 16.1484 152.496 18.5508V29H159.176V17.125C159.176 15.1523 159.078 13.6875 158.883 12.75C158.688 11.832 158.355 11.0117 157.906 10.3281C156.422 8.12109 153.59 6.87109 149.977 6.87109C146.773 6.87109 143.941 8.16016 141.578 10.6797V7.4375H134.898V29H141.578ZM182.984 17.4766C182.984 19.2344 182.418 20.6406 181.285 21.6758C180.133 22.7109 178.609 23.2383 176.676 23.2383C174.742 23.2383 173.199 22.7109 172.066 21.6758C170.914 20.6406 170.348 19.2344 170.348 17.4766C170.348 15.7188 170.914 14.3125 172.066 13.2773C173.199 12.2422 174.742 11.7148 176.676 11.7148C178.609 11.7148 180.133 12.2422 181.285 13.2773C182.418 14.3125 182.984 15.7188 182.984 17.4766ZM189.664 7.4375H182.984V9.39062C181.168 7.65234 178.766 6.83203 175.387 6.83203C171.773 6.83203 168.824 7.82812 166.559 9.80078C164.293 11.793 163.16 14.3516 163.16 17.4766C163.16 20.6406 164.293 23.1992 166.578 25.1523C168.844 27.1055 171.812 28.082 175.504 28.082C178.785 28.082 181.188 27.2227 182.984 25.4844V26.9297C182.984 28.7461 182.516 30.0352 181.578 30.7578C180.621 31.4805 178.941 31.832 176.52 31.832C173.238 31.832 171.676 30.9336 171.676 29.1172H164.996V29.4883C164.996 34.1953 168.883 36.5977 176.48 36.5977C181.422 36.5977 184.84 35.5625 187.281 33.3164C188.141 32.5156 188.746 31.5781 189.117 30.5039C189.488 29.4297 189.664 27.6523 189.664 25.1523V7.4375ZM194.41 21.9297C194.703 27.1055 198.941 29.7617 206.93 29.7617C214.84 29.7617 219.02 27.0273 219.02 21.8711C219.02 18.1016 216.441 15.7773 211.812 15.4453L207.145 15.0742C203.492 14.7812 202.145 14.2148 202.145 13.043C202.145 11.8125 203.746 11.0703 206.461 11.0703C209.684 11.0703 211.383 11.9883 211.695 13.8828H218.375V13.6875C218.375 11.5 217.359 9.78125 215.309 8.53125C213.258 7.30078 210.426 6.67578 206.812 6.67578C199.234 6.67578 195.094 9.25391 195.094 14C195.094 15.8164 195.738 17.3203 197.047 18.5117C198.355 19.7031 200.113 20.4062 202.34 20.6016L208.375 21.1289C209.918 21.2461 210.914 21.4219 211.402 21.6758C211.871 21.9297 212.105 22.3203 212.105 22.8867C212.105 24.1367 210.289 24.9961 207.496 24.9961C203.434 24.9961 201.676 24.0977 201.461 21.9297H194.41Z" fill="#292A2E"/>
</svg>
