<?xml version="1.0" encoding="UTF-8"?>
<svg width="20px" height="20px" viewBox="0 0 20 20" version="1.1" xmlns="http://www.w3.org/2000/svg" xmlns:xlink="http://www.w3.org/1999/xlink">
    <title>change wallet</title>
    <defs>
        <rect id="path-1" x="0" y="0" width="20" height="20"></rect>
    </defs>
    <g id="Page-1" stroke="none" stroke-width="1" fill="none" fill-rule="evenodd">
        <g id="TopScore-login2" transform="translate(-446.000000, -579.000000)">
            <g id="change-wallet" transform="translate(446.000000, 579.000000)">
                <mask id="mask-2" fill="white">
                    <use xlink:href="#path-1"></use>
                </mask>
                <g id="key-(Background/Mask)"></g>
                <path d="M10.4833985,17.4121094 L12.4232702,15.4722378 C12.69322,15.202288 12.6806642,14.7816686 12.4169923,14.5117188 L11.4941407,13.5888672 L12.8627233,12.2202846 C13.1263952,11.9566128 13.1263952,11.5297154 12.8564454,11.2597657 L11.607143,10.0041853 C13.3084543,9.15666857 14.2626954,7.74414067 14.2626954,6.0804967 C14.2626954,3.72628353 12.3604912,1.82407929 10.0000001,1.82407929 C7.63323113,1.82407929 5.73730479,3.72000562 5.73730479,6.0804967 C5.73730479,7.76925228 6.69782377,9.28222661 8.2296318,9.9727958 L8.2296318,15.8614677 C8.2296318,16.0874721 8.29868872,16.3448661 8.49330368,16.5143695 L9.52287957,17.4058315 C9.81166305,17.6569476 10.2071709,17.6883371 10.4833985,17.4121094 Z M9.32198671,15.6103516 L9.32198671,9.14411277 C7.89062511,8.83021768 6.86732712,7.57463732 6.86732712,6.0804967 C6.86732712,4.35407371 8.26102131,2.96037951 10.0000001,2.96037951 C11.7389789,2.96037951 13.1263952,4.35407371 13.1263952,6.0804967 C13.1263952,7.56208152 12.0968193,8.83649558 10.5273439,9.18178018 L10.5273439,10.5440849 L11.732701,11.749442 L10.4457311,13.0113003 L10.4457311,14.1476005 L11.2932479,14.9825614 L10.0000001,16.288365 L9.32198671,15.6103516 Z M11.1174666,5.00069759 C11.1174666,4.38546321 10.6152345,3.88323107 10.0000001,3.88323107 C9.37848783,3.88323107 8.88253359,4.37918531 8.88253359,5.00069759 C8.88253359,5.61593196 9.38476573,6.11816411 10.0000001,6.11816411 C10.6152345,6.11816411 11.1174666,5.61593196 11.1174666,5.00069759 Z" id="key" fill="#FFFFFF" mask="url(#mask-2)" transform="translate(10.000000, 9.715528) rotate(45.000000) translate(-10.000000, -9.715528) "></path>
            </g>
        </g>
    </g>
</svg>