<?xml version="1.0" encoding="UTF-8"?>
<svg width="16px" height="16px" viewBox="0 0 16 16" version="1.1" xmlns="http://www.w3.org/2000/svg" xmlns:xlink="http://www.w3.org/1999/xlink">
    <title>doc.text.fill copy</title>
    <defs>
        <rect id="path-1" x="0" y="0" width="16" height="16"></rect>
    </defs>
    <g id="Page-1" stroke="none" stroke-width="1" fill="none" fill-rule="evenodd">
        <g id="TopScore-Dash-board-3-Copy-10" transform="translate(-788.000000, -424.000000)">
            <g id="Group-8" transform="translate(776.000000, 355.000000)">
                <g id="Group-Copy-5" transform="translate(12.000000, 48.000000)">
                    <g id="doc.text.fill-copy" transform="translate(0.000000, 21.000000)">
                        <mask id="mask-2" fill="white">
                            <use xlink:href="#path-1"></use>
                        </mask>
                        <g id="doc.text.fill-(Background/Mask)"></g>
                        <path d="M10.6768973,13.2466518 C11.7566964,13.2466518 12.3141741,12.6791295 12.3141741,11.594308 L12.3141741,7.09933036 L8.54743304,7.09933036 C7.91964286,7.09933036 7.61830357,6.79799107 7.61830357,6.17020089 L7.61830357,2.36328125 L5.32310268,2.36328125 C4.24832589,2.36328125 3.68582589,2.93080357 3.68582589,4.02064732 L3.68582589,11.594308 C3.68582589,12.6791295 4.24832589,13.2466518 5.32310268,13.2466518 L10.6768973,13.2466518 Z M7.818997,8.09642607 C7.96461933,8.09642607 8.07747663,8.20928337 8.07747663,8.36582737 L8.07682589,9.53328125 L9.37938065,9.53424426 C9.52864353,9.53424426 9.64514139,9.64710156 9.64514139,9.79272389 C9.64514139,9.93834621 9.52864353,10.0512035 9.37938065,10.0512035 L8.07682589,10.0502813 L8.07747663,11.2018221 C8.07747663,11.351085 7.96461933,11.4675829 7.818997,11.4675829 C7.67337468,11.4675829 7.56051738,11.351085 7.56051738,11.2018221 L7.55982589,10.0502813 L6.5433859,10.0512035 C6.3868419,10.0512035 6.2739846,9.93834621 6.2739846,9.79272389 C6.2739846,9.64710156 6.3868419,9.53424426 6.5433859,9.53424426 L7.55982589,9.53328125 L7.56051738,8.36582737 C7.56051738,8.20928337 7.67337468,8.09642607 7.818997,8.09642607 Z M8.3515625,2.41350446 C8.58258929,2.44363839 8.80859375,2.61439732 9.05970982,2.87053571 L9.05970982,2.87053571 L11.8069196,5.65290179 C12.0680804,5.91908482 12.233817,6.13504464 12.2639509,6.36607143 L12.2639509,6.36607143 L8.64285714,6.36607143 C8.45200893,6.36607143 8.35658482,6.27064732 8.3515625,6.07477679 L8.3515625,6.07477679 Z" id="doc.text.fill" fill="#fff" mask="url(#mask-2)"></path>
                    </g>
                </g>
            </g>
        </g>
    </g>
</svg>