<svg width="169" height="24" viewBox="0 0 169 24" fill="none" xmlns="http://www.w3.org/2000/svg">
<path d="M12.0664 11.3086C11.8906 13.1367 10.8594 14.1562 9.13672 14.1562C6.89844 14.1562 5.72656 12.5273 5.72656 9.38672C5.72656 6.1875 6.81641 4.60547 8.98438 4.60547C10.7656 4.60547 11.7617 5.50781 11.9141 7.27734H17.2227C17.0469 5.03906 16.25 3.30469 14.8203 2.09766C13.3789 0.890625 11.4102 0.292969 8.91406 0.292969C6.20703 0.292969 4.0625 1.10156 2.49219 2.73047C0.921875 4.35938 0.136719 6.57422 0.136719 9.38672C0.136719 12.2109 0.933594 14.4258 2.51562 16.043C4.09766 17.6719 6.27734 18.4805 9.04297 18.4805C11.5156 18.4805 13.4727 17.8477 14.9141 16.5938C16.3555 15.3398 17.1641 13.582 17.3164 11.3086H12.0664ZM23.832 11.6133C23.832 9.26953 24.4297 8.33203 25.918 8.33203C27.4062 8.33203 28.0273 9.28125 28.0273 11.6133C28.0273 13.957 27.4062 14.9297 25.918 14.9297C24.4297 14.9297 23.832 13.9688 23.832 11.6133ZM18.7109 11.6133C18.7109 13.7344 19.3555 15.4102 20.6445 16.6289C21.9219 17.8477 23.6797 18.457 25.918 18.457C28.1562 18.457 29.9141 17.8477 31.1914 16.6289C32.4688 15.4102 33.1133 13.7344 33.1133 11.6133C33.1133 9.50391 32.4805 7.83984 31.2031 6.62109C29.9258 5.41406 28.1562 4.80469 25.918 4.80469C23.6797 4.80469 21.9102 5.41406 20.6328 6.62109C19.3555 7.83984 18.7109 9.50391 18.7109 11.6133ZM40.1797 18V11.1562C40.1797 9.69141 40.7773 8.90625 41.9023 8.90625C43.168 8.90625 43.6836 9.60938 43.6836 11.3555V18H48.6523V11.2266C48.6523 9.63281 49.2148 8.90625 50.4453 8.90625C51.6523 8.90625 52.1562 9.58594 52.1562 11.1797V18H57.1484V9.31641C57.1484 6.51562 55.4141 4.89844 52.4141 4.89844C50.5742 4.89844 49.1328 5.58984 47.9023 7.125C46.9531 5.58984 45.793 4.92188 44.1172 4.92188C42.2891 4.92188 40.918 5.625 39.793 7.125V5.26172H35.1875V18H40.1797ZM65 3.96094V0.316406H59.8906V3.96094H65ZM65 18V5.26172H59.8906V18H65ZM72.9453 18V11.4258C72.9453 9.69141 73.5664 8.85938 74.8438 8.85938C75.4766 8.85938 75.9219 9.03516 76.1797 9.39844C76.4375 9.76172 76.5664 10.4297 76.5664 11.4023V18H81.6289V11.3789C81.6289 9.87891 81.5469 8.80078 81.3945 8.13281C81.2305 7.47656 80.9609 6.91406 80.5742 6.45703C79.7305 5.4375 78.5 4.92188 76.9531 4.92188C75.1133 4.92188 73.6719 5.63672 72.4883 7.125V5.26172H67.8828V18H72.9453ZM88.7305 11.543C88.7305 9.62109 89.3984 8.66016 90.7695 8.66016C92.1289 8.66016 92.9023 9.72656 92.9023 11.5664C92.9023 13.6289 92.2227 14.5664 90.7695 14.5664C89.3984 14.5664 88.7305 13.5938 88.7305 11.543ZM84.5234 19.3711C84.8633 21.7617 87.1016 23.1328 90.6758 23.1328C93.2539 23.1328 95.082 22.6641 96.1719 21.7383C97.2617 20.8125 97.8008 19.2305 97.8008 17.0156V5.26172H93.3125V6.91406C92.3164 5.55469 90.9688 4.92188 89.1289 4.92188C87.4766 4.92188 86.1641 5.53125 85.1797 6.75C84.1836 7.96875 83.6914 9.60938 83.6914 11.6602C83.6914 13.6172 84.207 15.1758 85.25 16.3477C86.2812 17.5312 87.6523 18.1172 89.375 18.1172C90.8867 18.1172 92.0703 17.707 92.9258 16.875V17.5664C92.9258 18.6797 92.7969 19.4062 92.5391 19.7344C92.2695 20.0625 91.7656 20.2266 91.0273 20.2266C90.0898 20.2266 89.668 19.9805 89.5391 19.3711H84.5234ZM107.797 13.9922C108.02 16.9805 110.176 18.457 114.301 18.457C118.754 18.457 121.051 16.957 121.051 14.0391C121.051 12.8789 120.699 12 120.008 11.4023C119.316 10.8047 117.805 10.2422 115.496 9.71484C115.344 9.67969 115.109 9.63281 114.805 9.57422C113.656 9.32812 113.082 8.95312 113.082 8.44922C113.082 7.875 113.562 7.55859 114.453 7.55859C115.344 7.55859 115.977 8.05078 116.059 8.8125H120.617C120.301 6.15234 118.203 4.80469 114.406 4.80469C110.316 4.80469 108.137 6.26953 108.137 9C108.137 10.1367 108.5 10.9922 109.227 11.5781C109.953 12.1641 111.512 12.7148 113.891 13.2188C113.949 13.2305 114.043 13.2539 114.148 13.2773C115.402 13.5469 116.035 13.9688 116.035 14.543C116.035 15.2344 115.449 15.5977 114.383 15.5977C113.27 15.5977 112.719 15.0703 112.719 13.9922H107.797ZM127.566 11.6133C127.566 9.26953 128.164 8.33203 129.652 8.33203C131.141 8.33203 131.762 9.28125 131.762 11.6133C131.762 13.957 131.141 14.9297 129.652 14.9297C128.164 14.9297 127.566 13.9688 127.566 11.6133ZM122.445 11.6133C122.445 13.7344 123.09 15.4102 124.379 16.6289C125.656 17.8477 127.414 18.457 129.652 18.457C131.891 18.457 133.648 17.8477 134.926 16.6289C136.203 15.4102 136.848 13.7344 136.848 11.6133C136.848 9.50391 136.215 7.83984 134.938 6.62109C133.66 5.41406 131.891 4.80469 129.652 4.80469C127.414 4.80469 125.645 5.41406 124.367 6.62109C123.09 7.83984 122.445 9.50391 122.445 11.6133ZM143.363 11.6133C143.363 9.26953 143.961 8.33203 145.449 8.33203C146.938 8.33203 147.559 9.28125 147.559 11.6133C147.559 13.957 146.938 14.9297 145.449 14.9297C143.961 14.9297 143.363 13.9688 143.363 11.6133ZM138.242 11.6133C138.242 13.7344 138.887 15.4102 140.176 16.6289C141.453 17.8477 143.211 18.457 145.449 18.457C147.688 18.457 149.445 17.8477 150.723 16.6289C152 15.4102 152.645 13.7344 152.645 11.6133C152.645 9.50391 152.012 7.83984 150.734 6.62109C149.457 5.41406 147.688 4.80469 145.449 4.80469C143.211 4.80469 141.441 5.41406 140.164 6.62109C138.887 7.83984 138.242 9.50391 138.242 11.6133ZM159.781 18V11.4258C159.781 9.69141 160.402 8.85938 161.68 8.85938C162.312 8.85938 162.758 9.03516 163.016 9.39844C163.273 9.76172 163.402 10.4297 163.402 11.4023V18H168.465V11.3789C168.465 9.87891 168.383 8.80078 168.23 8.13281C168.066 7.47656 167.797 6.91406 167.41 6.45703C166.566 5.4375 165.336 4.92188 163.789 4.92188C161.949 4.92188 160.508 5.63672 159.324 7.125V5.26172H154.719V18H159.781Z" fill="#292A2E"/>
</svg>
