<svg width="16" height="16" viewBox="0 0 16 16" fill="none" xmlns="http://www.w3.org/2000/svg">
<g id="Group 11">
<g id="Group 3 Copy 2">
<rect id="Rectangle" width="16" height="16" rx="4" fill="white"/>
</g>
<g id="person.2.fill">
<mask id="mask0_270_19482" style="mask-type:luminance" maskUnits="userSpaceOnUse" x="0" y="0" width="16" height="16">
<rect id="person.2.fill (Background/Mask)" width="16" height="16" fill="white"/>
</mask>
<g mask="url(#mask0_270_19482)">
<path id="person.2.fill_2" fill-rule="evenodd" clip-rule="evenodd" d="M12.0665 5.91487C12.0665 4.8314 11.251 4 10.2952 4C9.34381 4 8.52393 4.84467 8.52832 5.92371C8.52832 7.02488 9.33504 7.88281 10.2952 7.88281C11.2554 7.88281 12.0665 7.02488 12.0665 5.91487ZM6.77019 6.26866C6.77019 5.32228 6.05554 4.60144 5.22689 4.60144C4.39825 4.60144 3.6836 5.33554 3.68798 6.2775C3.68798 7.23273 4.39386 7.98452 5.22689 7.98452C6.0643 7.98452 6.77019 7.23273 6.77019 6.26866ZM6.09938 12C5.63025 11.3234 6.13445 9.98784 7.12532 9.20066C6.64304 8.88668 6.01608 8.65672 5.22689 8.65672C3.26708 8.65672 2 10.1117 2 11.3101C2 11.7479 2.21922 12 2.81111 12H6.09938ZM13.0267 11.9956C13.7501 11.9956 14 11.7745 14 11.3676C14 10.2311 12.5663 8.66556 10.2952 8.66556C8.01973 8.66556 6.59043 10.2311 6.59043 11.3676C6.59043 11.7745 6.84034 11.9956 7.56376 11.9956H13.0267Z" fill="#CE3900"/>
</g>
</g>
</g>
</svg>
