<?xml version="1.0" encoding="UTF-8"?>
<svg width="20px" height="20px" viewBox="0 0 20 20" version="1.1" xmlns="http://www.w3.org/2000/svg" xmlns:xlink="http://www.w3.org/1999/xlink">
    <title>person.2</title>
    <defs>
        <rect id="path-1" x="0" y="0" width="20" height="20"></rect>
    </defs>
    <g id="Page-1" stroke="none" stroke-width="1" fill="none" fill-rule="evenodd">
        <g id="TopScore-Creation-Heat-Chart" transform="translate(-32.000000, -220.000000)">
            <g id="person.2" transform="translate(32.000000, 220.000000)">
                <mask id="mask-2" fill="white">
                    <use xlink:href="#path-1"></use>
                </mask>
                <g id="person.2-(Background/Mask)"></g>
                <path d="M16.0267857,6.83384487 C16.0267857,5.21414621 14.8025949,3.92089844 13.2770647,3.92089844 C11.7703683,3.92089844 10.5273438,5.23297991 10.5273438,6.84640067 C10.5336217,8.48493304 11.7640904,9.81584821 13.2770647,9.81584821 C14.796317,9.81584821 16.0267857,8.47865513 16.0267857,6.83384487 Z M8.39285714,7.33607701 C8.39285714,5.92354911 7.32561384,4.78097098 6.00097656,4.78097098 C4.68889509,4.78097098 3.60281808,5.94238281 3.60909598,7.34235491 C3.60909598,8.79255022 4.68261719,9.96023996 6.00097656,9.96023996 C7.32561384,9.96023996 8.39285714,8.78627232 8.39285714,7.33607701 Z M11.6761998,6.84012277 C11.6761998,5.81682478 12.4044364,5.01953125 13.2770647,5.01953125 C14.155971,5.01953125 14.8779297,5.80426897 14.8779297,6.83384487 C14.8779297,7.88853237 14.1496931,8.7172154 13.2770647,8.7172154 C12.4107143,8.7172154 11.6761998,7.90108817 11.6761998,6.84012277 Z M4.68889509,7.34235491 C4.68889509,6.52622768 5.28529576,5.86077009 6.00097656,5.86077009 C6.72921317,5.86077009 7.31933594,6.51367188 7.31933594,7.33607701 C7.31933594,8.19614955 6.71665737,8.87416295 6.00097656,8.87416295 C5.29157366,8.87416295 4.68889509,8.19614955 4.68889509,7.34235491 Z M7.42606027,15.7296317 C7.08077567,15.5287388 6.8484933,15.070452 6.89243862,14.6561105 L2.49162946,14.6561105 C2.37234933,14.6561105 2.32212612,14.5996094 2.32212612,14.492885 C2.32212612,13.0552455 4.00460379,11.6866629 5.99469866,11.6866629 C6.69782366,11.6866629 7.40094866,11.8624442 7.94084821,12.1637835 C8.15429688,11.8561663 8.41796875,11.5924944 8.76325335,11.36649 C7.96595982,10.8768136 6.97405134,10.6131417 5.99469866,10.6131417 C3.33914621,10.6131417 1.19210379,12.5090681 1.19210379,14.5933315 C1.19210379,15.3466797 1.64411272,15.7296317 2.54813058,15.7296317 L7.42606027,15.7296317 Z M17.1881975,15.7296317 C18.2742746,15.7296317 18.8016183,15.3843471 18.8016183,14.6435547 C18.8016183,12.9171317 16.6420201,10.6194196 13.2770647,10.6194196 C9.91210938,10.6194196 7.75251116,12.9171317 7.75251116,14.6435547 C7.75251116,15.3843471 8.27985491,15.7296317 9.36593192,15.7296317 L17.1881975,15.7296317 Z M8.96414621,14.4677734 C8.96414621,13.5072545 10.5147879,11.7180525 13.2770647,11.7180525 C16.0393415,11.7180525 17.5899833,13.5072545 17.5899833,14.4677734 C17.5899833,14.5807757 17.5334821,14.6309989 17.3828125,14.6309989 L9.16503906,14.6309989 C9.02064732,14.6309989 8.96414621,14.5807757 8.96414621,14.4677734 Z" fill="#6C747D" mask="url(#mask-2)"></path>
            </g>
        </g>
    </g>
</svg>