<?xml version="1.0" encoding="UTF-8"?>
<svg width="20px" height="20px" viewBox="0 0 20 20" version="1.1" xmlns="http://www.w3.org/2000/svg" xmlns:xlink="http://www.w3.org/1999/xlink">
    <title>dot.radiowaves.up.forward</title>
    <defs>
        <rect id="path-1" x="0" y="0" width="20" height="20"></rect>
    </defs>
    <g id="Page-1" stroke="none" stroke-width="1" fill="none" fill-rule="evenodd">
        <g id="TopScore-Creation-Heat-Chart" transform="translate(-32.000000, -164.000000)">
            <g id="dot.radiowaves.up.forward" transform="translate(32.000000, 164.000000)">
                <mask id="mask-2" fill="white">
                    <use xlink:href="#path-1"></use>
                </mask>
                <g id="dot.radiowaves.up.forward-(Background/Mask)"></g>
                <path d="M3.92792793,4.62958199 C10.2612613,4.62958199 15.3693694,9.74340836 15.3693694,16.0636656 C15.3693694,16.5138264 15.7387387,16.8829582 16.1891892,16.8829582 C16.6396396,16.8829582 17,16.5138264 17,16.0636656 C17,8.84308682 11.1531532,3 3.92792793,3 C3.47747748,3 3.10810811,3.36913183 3.10810811,3.8192926 C3.10810811,4.26045016 3.47747748,4.62958199 3.92792793,4.62958199 Z M3.92792793,8.50096463 C8.13513514,8.50096463 11.5045045,11.8681672 11.5045045,16.0636656 C11.5045045,16.5138264 11.8648649,16.8829582 12.3153153,16.8829582 C12.7657658,16.8829582 13.1351351,16.5138264 13.1351351,16.0636656 C13.1351351,10.9768489 9.02702703,6.87138264 3.92792793,6.87138264 C3.47747748,6.87138264 3.10810811,7.24051447 3.10810811,7.68167203 C3.10810811,8.1318328 3.47747748,8.50096463 3.92792793,8.50096463 Z M3.92792793,12.1742765 C6.07207207,12.1742765 7.81981982,13.9209003 7.81981982,16.0636656 C7.81981982,16.5138264 8.18918919,16.8829582 8.63963964,16.8829582 C9.09009009,16.8829582 9.45045045,16.5138264 9.45045045,16.0636656 C9.45045045,13.0205788 6.96396396,10.5446945 3.92792793,10.5446945 C3.47747748,10.5446945 3.10810811,10.9138264 3.10810811,11.3639871 C3.10810811,11.8051447 3.47747748,12.1742765 3.92792793,12.1742765 Z M5.66666667,15.6765273 C5.66666667,14.9292605 5.08108108,14.3440514 4.34234234,14.3440514 C3.61261261,14.3440514 3,14.9562701 3,15.6945338 C3,16.3967846 3.62162162,17 4.34234234,17 C5.07207207,17 5.66666667,16.3967846 5.66666667,15.6765273 Z" fill="#6C747D" mask="url(#mask-2)"></path>
            </g>
        </g>
    </g>
</svg>