<?xml version="1.0" encoding="UTF-8"?>
<svg width="20px" height="20px" viewBox="0 0 20 20" version="1.1" xmlns="http://www.w3.org/2000/svg" xmlns:xlink="http://www.w3.org/1999/xlink">
    <title>bubble.left.and.bubble.right</title>
    <defs>
        <rect id="path-1" x="0" y="0" width="20" height="20"></rect>
    </defs>
    <g id="Page-1" stroke="none" stroke-width="1" fill="none" fill-rule="evenodd">
        <g id="TopScore-Creation-Heat-Chart" transform="translate(-32.000000, -332.000000)">
            <g id="bubble.left.and.bubble.right" transform="translate(32.000000, 332.000000)">
                <mask id="mask-2" fill="white">
                    <use xlink:href="#path-1"></use>
                </mask>
                <g id="bubble.left.and.bubble.right-(Background/Mask)"></g>
                <path d="M6.18303571,16.2067522 L8.19824219,14.4112723 C8.66280692,14.8946708 9.35965402,15.1520647 10.2322824,15.1520647 L12.3793248,15.1520647 L14.4698661,16.9475446 C14.8842076,17.2991071 15.179269,17.4937221 15.5182757,17.4937221 C16.0205078,17.4937221 16.3155692,17.1358817 16.3155692,16.5897042 L16.3155692,15.1520647 L16.6043527,15.1520647 C18.1863839,15.1520647 19.2410714,14.1852679 19.2410714,12.5592913 L19.2410714,8.7234933 C19.2410714,7.07240513 18.1675502,6.08049665 16.5541295,6.08049665 L15.4617746,6.08049665 L15.4617746,5.67243304 C15.4617746,3.96484375 14.413365,2.95410156 12.6932199,2.95410156 L3.52748326,2.95410156 C1.85756138,2.95410156 0.758928571,3.96484375 0.758928571,5.67243304 L0.758928571,11.5485491 C0.758928571,13.2310268 1.83872768,14.2292132 3.47726004,14.2292132 L4.26827567,14.2292132 L4.26827567,15.836356 C4.26827567,16.3888114 4.56961496,16.734096 5.078125,16.734096 C5.4359654,16.734096 5.74986049,16.5834263 6.18303571,16.2067522 Z M4.84584263,13.0426897 L3.6781529,13.0426897 C2.63602121,13.0426897 2.00823103,12.4588449 2.00823103,11.3727679 L2.00823103,5.81054687 C2.00823103,4.72446987 2.64229911,4.1343471 3.6781529,4.1343471 L12.5362723,4.1343471 C13.578404,4.1343471 14.2061942,4.72446987 14.2061942,5.81054687 L14.2061942,6.08049665 L10.2322824,6.08049665 C8.56236049,6.08049665 7.5453404,7.07240513 7.5453404,8.7234933 L7.5453404,12.5592913 C7.5453404,12.8229632 7.57045201,13.0615234 7.62067522,13.2875279 L5.39202009,15.3717913 L5.39202009,13.6139788 C5.39202009,13.2373047 5.15973772,13.0426897 4.84584263,13.0426897 Z M13.2331194,14.3484933 C12.9568917,14.0973772 12.7246094,13.984375 12.3542132,13.984375 L10.3641183,13.984375 C9.37848772,13.984375 8.78208705,13.4381975 8.78208705,12.3960658 L8.78208705,8.84277344 C8.78208705,7.81319754 9.37848772,7.25446429 10.3641183,7.25446429 L16.4160156,7.25446429 C17.4079241,7.25446429 18.0043248,7.81319754 18.0043248,8.84277344 L18.0043248,12.3960658 C18.0043248,13.4319196 17.4016462,13.984375 16.4160156,13.984375 L15.7380022,13.984375 C15.430385,13.984375 15.1981027,14.1727121 15.1981027,14.5493862 L15.1981027,16.1314174 L13.2331194,14.3484933 Z" fill="#6C747D" mask="url(#mask-2)"></path>
            </g>
        </g>
    </g>
</svg>