<?xml version="1.0" encoding="UTF-8"?>
<svg width="20px" height="20px" viewBox="0 0 20 20" version="1.1" xmlns="http://www.w3.org/2000/svg" xmlns:xlink="http://www.w3.org/1999/xlink">
    <title>highlighter</title>
    <defs>
        <rect id="path-1" x="0" y="0" width="20" height="20"></rect>
    </defs>
    <g id="Page-1" stroke="none" stroke-width="1" fill="none" fill-rule="evenodd">
        <g id="TopScore-Dash-board-2-Copy-9" transform="translate(-32.000000, -162.000000)">
            <g id="highlighter" transform="translate(32.000000, 162.000000)">
                <mask id="mask-2" fill="white">
                    <use xlink:href="#path-1"></use>
                </mask>
                <g id="highlighter-(Background/Mask)"></g>
                <path d="M3.93314231,14.3475041 C4.16236867,14.3475041 4.25405922,14.3026731 4.42215855,14.1756522 L4.93409742,13.7945894 C5.21680993,14.0710467 5.63705826,14.1308213 6.05730659,13.9514976 L8.58643744,12.9203865 C8.77745941,12.8456683 8.87679083,12.7709501 8.99904489,12.651401 L16.3801337,5.48592649 C17.1136581,4.76863182 17.1136581,3.90937237 16.3724928,3.17713405 L14.7144222,1.54827744 C13.9732569,0.823510946 13.0945559,0.816039127 12.3610315,1.5333338 L4.97994269,8.69133667 C4.85004776,8.8183576 4.78127985,8.90801944 4.69723018,9.10228674 L3.62750716,11.5679872 C3.45176695,11.9639936 3.49761223,12.3525282 3.78032474,12.6588728 L2.6800382,13.772174 C2.44317096,14.018744 2.55778415,14.3475041 2.9321872,14.3475041 L3.93314231,14.3475041 Z M13.8280802,2.51214211 L15.3868195,4.04386512 C15.5778415,4.23066061 15.5702006,4.4548154 15.3638968,4.6490827 L14.8672397,5.13475097 L12.7048711,3.01275402 L13.2091691,2.51961393 C13.4078319,2.33281844 13.6446991,2.32534662 13.8280802,2.51214211 Z M11.8796562,3.81971053 L14.034384,5.94170748 L8.4947469,11.328889 L6.33237822,9.20689222 L11.8796562,3.81971053 Z M5.53008596,12.5542674 L5.0487106,12.0910146 C4.92645654,11.9714654 4.92645654,11.8593882 4.97994269,11.7323672 L5.66762178,10.1707569 L7.50143266,11.9789373 L5.90448902,12.6289856 C5.75931232,12.6812883 5.6599809,12.6812883 5.53008596,12.5542674 Z M17.3352436,17 C17.7020057,17 18,16.6936554 18,16.3350081 C18,15.9763607 17.7020057,15.6774879 17.3352436,15.6774879 L2.67239733,15.6774879 C2.29799427,15.6774879 2,15.9763607 2,16.3350081 C2,16.6936554 2.30563515,17 2.67239733,17 L17.3352436,17 Z" fill="#ffffff" mask="url(#mask-2)"></path>
            </g>
        </g>
    </g>
</svg>