<svg width="20" height="20" viewBox="0 0 20 20" fill="none" xmlns="http://www.w3.org/2000/svg">
<path d="M10.0007 12.5559C9.80259 12.5559 5.1017 12.5148 1.50699 8.91943C1.43086 8.8433 1.35676 8.76718 1.284 8.68971C0.531508 7.89477 0.173788 6.95028 0.249913 5.95796C0.316606 5.08286 0.719463 4.23403 1.38505 3.56845C2.05064 2.90286 2.89879 2.5 3.77457 2.43331C4.69144 2.36324 5.56789 2.6637 6.32307 3.30369C6.40459 2.31743 6.81216 1.48545 7.50941 0.886553C8.17567 0.314605 9.06088 0 10.0013 0C10.9418 0 11.8277 0.314605 12.4932 0.886553C13.1912 1.48545 13.5981 2.31743 13.6803 3.30369C14.4354 2.6637 15.3119 2.36324 16.2288 2.43331C17.1039 2.5 17.9527 2.90286 18.6176 3.56845C19.2832 4.23403 19.686 5.08219 19.7527 5.95796C19.8282 6.95028 19.4705 7.89477 18.7187 8.68971C18.6459 8.76651 18.5711 8.8433 18.4957 8.91943C14.8996 12.5148 10.1994 12.5559 10.0007 12.5559ZM4.03326 3.17098C3.21812 3.17098 2.45282 3.54958 1.9085 4.09391C0.929649 5.07276 0.485698 6.76906 1.82227 8.18176C1.89031 8.25384 1.95969 8.32525 2.0311 8.39666C5.41159 11.7771 9.95552 11.8162 10.0013 11.8162C10.0465 11.8162 14.5991 11.7684 17.9715 8.39666C18.043 8.32525 18.1123 8.25384 18.1804 8.18176C19.517 6.76974 19.0723 5.07276 18.0935 4.09458C17.1146 3.11574 15.4183 2.67179 14.0063 4.00768C13.9342 4.07572 13.8628 4.14511 13.7914 4.21652C13.7362 4.27176 13.6836 4.32767 13.6311 4.38359L12.9251 5.128L12.9527 4.10536C12.9547 4.02789 12.9574 3.94974 12.9574 3.87092C12.9574 3.77055 12.9561 3.67084 12.9534 3.57114C12.8995 1.62759 11.3857 0.741714 10.002 0.741714C8.61828 0.741714 7.10386 1.62692 7.05064 3.57114C7.04795 3.67017 7.0466 3.76987 7.0466 3.87092C7.0466 3.94772 7.04862 4.02385 7.05064 4.0993L7.07759 5.128L6.37427 4.38561C6.32105 4.32902 6.26716 4.27243 6.21192 4.21652C6.14051 4.14511 6.0691 4.07572 5.99702 4.00768C5.36848 3.41283 4.6847 3.17098 4.03326 3.17098Z" fill="white"/>
<path d="M19.6288 18.0114C18.3037 18.6204 16.7899 18.7794 15.3577 18.4574C13.9686 18.1448 12.7506 17.4213 11.8149 16.3589C11.9065 16.4222 12.0008 16.4836 12.0978 16.5422C12.8981 17.0245 13.7874 17.267 14.6766 17.267C15.4669 17.267 16.2577 17.0757 16.9867 16.6904C17.0385 16.6634 17.0897 16.6351 17.1409 16.6062L16.7745 15.9621C16.73 15.9877 16.6855 16.012 16.6404 16.0356C15.3234 16.7315 13.7685 16.6843 12.4805 15.9082C11.1621 15.114 10.3746 13.7242 10.3746 12.1909V11.9053H10.3678H9.63352H9.62678V12.1909C9.62678 13.7242 8.83926 15.114 7.52088 15.9082C6.23282 16.6843 4.67798 16.7321 3.36095 16.0356C3.31582 16.012 3.27136 15.9877 3.22689 15.9621L2.86041 16.6062C2.91161 16.6351 2.96281 16.6634 3.01469 16.6904C3.7436 17.0757 4.53382 17.267 5.32471 17.267C6.21396 17.267 7.10253 17.0245 7.90353 16.5422C8.00054 16.4842 8.09485 16.4229 8.18647 16.3589C7.25074 17.4213 6.03274 18.1448 4.64363 18.4574C3.2114 18.7801 1.69766 18.6211 0.372541 18.0114L0 18.6568C0.990299 19.123 2.07761 19.3615 3.16963 19.3615C3.718 19.3615 4.26704 19.3015 4.80598 19.1803C6.46726 18.8064 7.90959 17.9037 8.97534 16.5711C9.2246 16.2599 9.44153 15.9258 9.62611 15.5761V19.3615H10.3672V15.5633C10.5538 15.9177 10.7727 16.2565 11.0247 16.5711C12.0911 17.9037 13.5327 18.8057 15.194 19.1803C15.733 19.3015 16.282 19.3615 16.8304 19.3615C17.9224 19.3615 19.0097 19.123 20 18.6568L19.6288 18.0114Z" fill="white"/>
<path d="M9.51901 8.63098H8.98007C8.98007 7.82863 8.19929 7.17517 7.2393 7.17517C6.27932 7.17517 5.49853 7.82796 5.49853 8.63098H4.95959C4.95959 7.53154 5.98223 6.63623 7.2393 6.63623C8.49638 6.63623 9.51901 7.53087 9.51901 8.63098Z" fill="white"/>
<path d="M7.85902 8.64259C8.28726 8.64259 8.63441 8.29543 8.63441 7.86719C8.63441 7.43895 8.28726 7.0918 7.85902 7.0918C7.43078 7.0918 7.08362 7.43895 7.08362 7.86719C7.08362 8.29543 7.43078 8.64259 7.85902 8.64259Z" fill="white"/>
<path d="M15.0472 8.63098H14.5083C14.5083 7.82863 13.7275 7.17517 12.7675 7.17517C11.8075 7.17517 11.0267 7.82796 11.0267 8.63098H10.4878C10.4878 7.53154 11.5104 6.63623 12.7675 6.63623C14.0246 6.63623 15.0472 7.53087 15.0472 8.63098Z" fill="white"/>
<path d="M13.3878 8.64259C13.8161 8.64259 14.1632 8.29543 14.1632 7.86719C14.1632 7.43895 13.8161 7.0918 13.3878 7.0918C12.9596 7.0918 12.6124 7.43895 12.6124 7.86719C12.6124 8.29543 12.9596 8.64259 13.3878 8.64259Z" fill="white"/>
<path d="M9.99184 10.6123C9.35657 10.6123 8.76778 10.2855 8.49292 9.78097L8.96651 9.52295C9.14908 9.85709 9.55126 10.0733 9.99252 10.0733C10.4338 10.0733 10.836 9.85709 11.0185 9.52295L11.4914 9.78097C11.2159 10.2855 10.6271 10.6123 9.99184 10.6123Z" fill="white"/>
</svg>
