<?xml version="1.0" encoding="UTF-8"?>
<svg width="16px" height="16px" viewBox="0 0 16 16" version="1.1" xmlns="http://www.w3.org/2000/svg" xmlns:xlink="http://www.w3.org/1999/xlink">
    <title>Paid collect</title>
    <g id="Page-1" stroke="none" stroke-width="1" fill="none" fill-rule="evenodd">
        <g id="TopScore-合并后-2" transform="translate(-764.000000, -963.000000)">
            <g id="Paid-collect" transform="translate(764.000000, 963.000000)">
                <rect id="Rectangle" x="0" y="0" width="16" height="16"></rect>
                <g id="Group" transform="translate(2.000000, 4.000000)" stroke="#EF4444" stroke-width="0.5">
                    <g id="Group-6">
                        <path d="M7.64,0.25 C7.84710678,0.25 8.03460678,0.333946609 8.17033009,0.469669914 C8.30605339,0.605393219 8.39,0.792893219 8.39,1 L8.39,1 L3.7,1.44377139 C3.38124312,1.44377139 3.09036804,1.56310397 2.86955915,1.75948307 C2.64266891,1.96127069 2.48992473,2.24449428 2.45675773,2.56319707 L2.45675773,2.56319707 L2.45054735,5.39513271 L1,5.39590462 C0.792893219,5.39590462 0.605393219,5.31195801 0.469669914,5.17623471 C0.333946609,5.0405114 0.25,4.8530114 0.25,4.64590462 L0.25,4.64590462 L0.25,1 C0.25,0.792893219 0.333946609,0.605393219 0.469669914,0.469669914 C0.605393219,0.333946609 0.792893219,0.25 1,0.25 L1,0.25 Z" id="Combined-Shape"></path>
                        <path d="M11,2.60294118 C11.2071068,2.60294118 11.3946068,2.68688779 11.5303301,2.82261109 C11.6389087,2.93118973 11.7143503,3.07290546 11.7401838,3.23128728 L11.75,3.35294118 L11.75,7 C11.75,7.20710678 11.6660534,7.39460678 11.5303301,7.53033009 C11.4217514,7.63890873 11.2800357,7.71435029 11.1216539,7.74018377 L11,7.75 L4.36,7.75 C4.15289322,7.75 3.96539322,7.66605339 3.82966991,7.53033009 C3.72109127,7.42175144 3.64564971,7.28003571 3.61981623,7.1216539 L3.61,7 L3.61,3.35294118 C3.61,3.1458344 3.69394661,2.9583344 3.82966991,2.82261109 C3.93824856,2.71403245 4.07996429,2.63859089 4.2383461,2.61275741 L4.36,2.60294118 L11,2.60294118 Z M7.68,3.79705882 C7.31149846,3.79705882 6.97732257,3.95233558 6.73563969,4.20507585 C6.49791442,4.45367744 6.35,4.79687946 6.35,5.17647059 C6.35,5.55606171 6.49791442,5.89926373 6.73563969,6.14786533 C6.97732257,6.40060559 7.31149846,6.55588235 7.68,6.55588235 C8.04850154,6.55588235 8.38267743,6.40060559 8.62436031,6.14786533 C8.86208558,5.89926373 9.01,5.55606171 9.01,5.17647059 C9.01,4.79687946 8.86208558,4.45367744 8.62436031,4.20507585 C8.38267743,3.95233558 8.04850154,3.79705882 7.68,3.79705882 Z" id="Combined-Shape"></path>
                    </g>
                </g>
            </g>
        </g>
    </g>
</svg>