<?xml version="1.0" encoding="UTF-8"?>
<svg width="38px" height="10px" viewBox="0 0 38 10" version="1.1" xmlns="http://www.w3.org/2000/svg" xmlns:xlink="http://www.w3.org/1999/xlink">
    <title>Group 7</title>
    <g id="Page-1" stroke="none" stroke-width="1" fill="none" fill-rule="evenodd">
        <g id="TopScore-Dash-board-3-Copy" transform="translate(-110.000000, -159.000000)">
            <g id="Group-7" transform="translate(110.000000, 159.000000)">
                <path d="M6,0 L33,0 C35.7614237,-5.07265313e-16 38,2.23857625 38,5 C38,7.76142375 35.7614237,10 33,10 L0,10 L0,10 L0,6 C-4.05812251e-16,2.6862915 2.6862915,6.08718376e-16 6,0 Z" id="Rectangle" fill="#73ABFF"></path>
                <g id="Soon" transform="translate(8.289872, 2.579102)" fill="#FFFFFF" fill-rule="nonzero">
                    <path d="M0.548018443,3.03222656 C0.561690318,3.27636719 0.619307506,3.47460938 0.720870006,3.62695312 C0.914229381,3.91210938 1.25504969,4.0546875 1.74333094,4.0546875 C1.96208094,4.0546875 2.16129969,4.0234375 2.34098719,3.9609375 C2.68864344,3.83984375 2.86247157,3.62304688 2.86247157,3.31054688 C2.86247157,3.07617188 2.78922938,2.90917969 2.64274501,2.80957031 C2.49430751,2.71191406 2.26188563,2.62695312 1.94547938,2.5546875 L1.36247157,2.42285156 C0.981612193,2.33691406 0.712080943,2.2421875 0.553877818,2.13867188 C0.280440318,1.95898438 0.143721568,1.69042969 0.143721568,1.33300781 C0.143721568,0.946289062 0.277510631,0.62890625 0.545088756,0.380859375 C0.812666881,0.1328125 1.19157313,0.0087890625 1.68180751,0.0087890625 C2.13297938,0.0087890625 2.51628016,0.117675781 2.83170985,0.335449219 C3.14713954,0.553222656 3.30485438,0.901367188 3.30485438,1.37988281 L2.75700282,1.37988281 C2.72770594,1.14941406 2.66520594,0.97265625 2.56950282,0.849609375 C2.39176844,0.625 2.09001063,0.512695312 1.66422938,0.512695312 C1.32047938,0.512695312 1.07340907,0.584960938 0.923018443,0.729492188 C0.772627818,0.874023438 0.697432506,1.04199219 0.697432506,1.23339844 C0.697432506,1.44433594 0.785323131,1.59863281 0.961104381,1.69628906 C1.07633876,1.75878906 1.33708094,1.83691406 1.74333094,1.93066406 L2.34684657,2.06835938 C2.63786219,2.13476562 2.86247157,2.22558594 3.02067469,2.34082031 C3.29411219,2.54199219 3.43083094,2.83398438 3.43083094,3.21679688 C3.43083094,3.69335938 3.2574911,4.03417969 2.91081141,4.23925781 C2.56413172,4.44433594 2.16129969,4.546875 1.70231532,4.546875 C1.16715907,4.546875 0.748213756,4.41015625 0.445479381,4.13671875 C0.142745006,3.86523438 -0.00569249407,3.49707031 0.000166880934,3.03222656 L0.548018443,3.03222656 Z" id="Path"></path>
                    <path d="M6.88367693,0 C7.64344255,0 8.20594255,0.244140625 8.57117693,0.732421875 C8.85633318,1.11328125 8.9989113,1.60058594 8.9989113,2.19433594 C8.9989113,2.83691406 8.83582536,3.37109375 8.50965349,3.796875 C8.12684099,4.296875 7.58094255,4.546875 6.87195818,4.546875 C6.2098488,4.546875 5.68934099,4.328125 5.31043474,3.890625 C4.97254411,3.46875 4.8035988,2.93554688 4.8035988,2.29101562 C4.8035988,1.70898438 4.94813005,1.2109375 5.23719255,0.796875 C5.6082863,0.265625 6.15711443,0 6.88367693,0 Z M6.94227068,4.02539062 C7.45594255,4.02539062 7.82752458,3.84130859 8.05701677,3.47314453 C8.28650896,3.10498047 8.40125505,2.68164062 8.40125505,2.203125 C8.40125505,1.69726562 8.26893083,1.29003906 8.00428239,0.981445312 C7.73963396,0.672851562 7.37781755,0.518554688 6.91883318,0.518554688 C6.47352068,0.518554688 6.11023943,0.671386719 5.82898943,0.977050781 C5.54773943,1.28271484 5.40711443,1.73339844 5.40711443,2.32910156 C5.40711443,2.80566406 5.52771989,3.20751953 5.76893083,3.53466797 C6.01014177,3.86181641 6.40125505,4.02539062 6.94227068,4.02539062 Z" id="Shape"></path>
                    <path d="M12.407812,0 C13.1675776,0 13.7300776,0.244140625 14.095312,0.732421875 C14.3804682,1.11328125 14.5230463,1.60058594 14.5230463,2.19433594 C14.5230463,2.83691406 14.3599604,3.37109375 14.0337885,3.796875 C13.650976,4.296875 13.1050776,4.546875 12.3960932,4.546875 C11.7339838,4.546875 11.213476,4.328125 10.8345698,3.890625 C10.4966792,3.46875 10.3277338,2.93554688 10.3277338,2.29101562 C10.3277338,1.70898438 10.4722651,1.2109375 10.7613276,0.796875 C11.1324213,0.265625 11.6812495,0 12.407812,0 Z M12.4664057,4.02539062 C12.9800776,4.02539062 13.3516596,3.84130859 13.5811518,3.47314453 C13.810644,3.10498047 13.9253901,2.68164062 13.9253901,2.203125 C13.9253901,1.69726562 13.7930659,1.29003906 13.5284174,0.981445312 C13.263769,0.672851562 12.9019526,0.518554688 12.4429682,0.518554688 C11.9976557,0.518554688 11.6343745,0.671386719 11.3531245,0.977050781 C11.0718745,1.28271484 10.9312495,1.73339844 10.9312495,2.32910156 C10.9312495,2.80566406 11.0518549,3.20751953 11.2930659,3.53466797 C11.5342768,3.86181641 11.9253901,4.02539062 12.4664057,4.02539062 Z" id="Shape"></path>
                    <path d="M16.0745251,0.1171875 L16.7630017,0.1171875 L18.9368298,3.60351562 L18.9368298,0.1171875 L19.4905408,0.1171875 L19.4905408,4.42089844 L18.8372205,4.42089844 L16.6311658,0.9375 L16.6311658,4.42089844 L16.0745251,4.42089844 L16.0745251,0.1171875 Z" id="Path"></path>
                </g>
            </g>
        </g>
    </g>
</svg>