<svg width="16" height="16" viewBox="0 0 16 16" fill="none" xmlns="http://www.w3.org/2000/svg">
<rect width="16" height="16" fill="#D8D8D8" fill-opacity="0.01"/>
<mask id="mask0_276_29857" style="mask-type:luminance" maskUnits="userSpaceOnUse" x="2" y="2" width="12" height="12">
<rect x="2.5" y="2.5" width="11" height="11" fill="white"/>
</mask>
<g mask="url(#mask0_276_29857)">
<path fill-rule="evenodd" clip-rule="evenodd" d="M3.7934 11H12.2066C12.384 11 12.5 10.8742 12.5 10.6908V5.30917C12.5 5.12223 12.384 5 12.2066 5H3.7934C3.616 5 3.5 5.12223 3.5 5.30917V10.6908C3.5 10.8742 3.616 11 3.7934 11ZM4.17892 5.81965C4.17892 5.74775 4.20963 5.7154 4.27786 5.7154H11.7255C11.7938 5.7154 11.8211 5.74775 11.8211 5.81965V10.1803C11.8211 10.2522 11.7938 10.281 11.7255 10.281H4.27786C4.20963 10.281 4.17892 10.2522 4.17892 10.1803V5.81965ZM4.69067 9.93229H11.3127C11.4253 9.93229 11.4901 9.86399 11.4901 9.74176V6.25824C11.4901 6.13601 11.4253 6.06771 11.3127 6.06771H4.69067C4.57809 6.06771 4.51327 6.13601 4.51327 6.25824V9.74176C4.51327 9.86399 4.57809 9.93229 4.69067 9.93229ZM4.87491 6.52427C4.87491 6.47394 4.89879 6.44877 4.94655 6.44877H7.20508C6.9185 6.7831 6.73427 7.31875 6.73427 7.99461C6.73427 8.67406 6.9185 9.2133 7.20849 9.55123H4.94655C4.89879 9.55123 4.87491 9.52247 4.87491 9.47573V6.52427ZM8.7881 6.44877H11.0569C11.1012 6.44877 11.1285 6.47394 11.1285 6.52427V9.47573C11.1285 9.52247 11.1012 9.55123 11.0569 9.55123H8.78469C9.0815 9.2133 9.26914 8.67406 9.26914 7.99461C9.26914 7.31875 9.08491 6.7831 8.7881 6.44877ZM7.14708 7.99461C7.14708 7.08868 7.5326 6.52067 7.98635 6.52067C8.46058 6.52067 8.85633 7.08868 8.85633 7.99461C8.85633 8.90773 8.46058 9.47933 7.98635 9.47933C7.5326 9.47933 7.14708 8.90773 7.14708 7.99461Z" fill="white"/>
</g>
</svg>
