<?xml version="1.0" encoding="UTF-8"?>
<!DOCTYPE svg PUBLIC "-//W3C//DTD SVG 1.1//EN" "http://www.w3.org/Graphics/SVG/1.1/DTD/svg11.dtd">
<svg xmlns="http://www.w3.org/2000/svg" version="1.1" width="56px" height="56px" style="shape-rendering:geometricPrecision; text-rendering:geometricPrecision; image-rendering:optimizeQuality; fill-rule:evenodd; clip-rule:evenodd" xmlns:xlink="http://www.w3.org/1999/xlink">
<g><path style="opacity:0.773" fill="#fefffe" d="M 32.5,10.5 C 44.5686,10.4019 47.5686,15.5685 41.5,26C 34.2044,28.6846 29.871,26.1846 28.5,18.5C 28.7821,15.2691 30.1154,12.6024 32.5,10.5 Z M 34.5,14.5 C 39.6589,14.1363 41.4922,16.4696 40,21.5C 37.3212,24.1715 34.9879,23.8382 33,20.5C 32.2516,18.1599 32.7516,16.1599 34.5,14.5 Z"/></g>
<g><path style="opacity:0.76" fill="#fefffe" d="M 13.5,12.5 C 20.6057,12.1055 23.7723,15.4388 23,22.5C 21.3357,27.0383 18.1691,28.5383 13.5,27C 9.78846,24.487 8.62179,20.987 10,16.5C 10.6897,14.6498 11.8564,13.3164 13.5,12.5 Z M 14.5,16.5 C 19.0139,16.6932 20.3473,18.8599 18.5,23C 13.5705,23.427 12.2372,21.2604 14.5,16.5 Z"/></g>
<g><path style="opacity:0.788" fill="#fefffe" d="M 24.5,32.5 C 20.8813,33.1858 17.2146,33.3524 13.5,33C 9.54417,34.1181 7.21084,36.6181 6.5,40.5C 11.4797,39.9853 16.1464,40.652 20.5,42.5C 15.0154,43.6517 9.34875,43.8184 3.5,43C 1.99183,35.1404 5.32517,30.4737 13.5,29C 16.9963,28.3047 20.3297,28.8047 23.5,30.5C 24.2975,30.9569 24.6309,31.6236 24.5,32.5 Z"/></g>
<g><path style="opacity:0.828" fill="#fefffe" d="M 20.5,42.5 C 20.7312,38.7073 22.0645,35.3739 24.5,32.5C 34.1232,26.5763 42.9566,27.5763 51,35.5C 52.373,37.6954 52.7063,40.0288 52,42.5C 41.5001,43.8222 31.0001,43.8222 20.5,42.5 Z M 34.5,32.5 C 40.5295,32.1814 45.1962,34.5147 48.5,39.5C 40.8622,40.4975 33.1955,40.8308 25.5,40.5C 26.6479,35.7581 29.6479,33.0914 34.5,32.5 Z"/></g>
</svg>
