<?xml version="1.0" encoding="UTF-8"?>
<!DOCTYPE svg PUBLIC "-//W3C//DTD SVG 1.1//EN" "http://www.w3.org/Graphics/SVG/1.1/DTD/svg11.dtd">
<svg xmlns="http://www.w3.org/2000/svg" version="1.1" width="56px" height="56px" style="shape-rendering:geometricPrecision; text-rendering:geometricPrecision; image-rendering:optimizeQuality; fill-rule:evenodd; clip-rule:evenodd" xmlns:xlink="http://www.w3.org/1999/xlink">
<g><path style="opacity:0.799" fill="#fefffe" d="M 15.5,7.5 C 20.5111,7.33407 25.5111,7.50074 30.5,8C 34.6328,11.1311 38.4662,14.6311 42,18.5C 43.1068,22.8878 43.6068,27.3878 43.5,32C 43.3333,35.8333 43.1667,39.6667 43,43.5C 42.5,44 42,44.5 41.5,45C 33.2704,46.604 24.9371,46.9373 16.5,46C 15.0692,45.5348 13.9025,44.7014 13,43.5C 12.3333,32.5 12.3333,21.5 13,10.5C 14.045,9.62656 14.8783,8.62656 15.5,7.5 Z M 18.5,11.5 C 21.1667,11.5 23.8333,11.5 26.5,11.5C 26.1744,15.8839 26.5078,20.2172 27.5,24.5C 31.4295,25.4328 35.4295,25.7662 39.5,25.5C 39.5,30.8333 39.5,36.1667 39.5,41.5C 31.9129,41.8142 24.4129,41.4808 17,40.5C 16.3333,31.5 16.3333,22.5 17,13.5C 17.7172,12.9558 18.2172,12.2891 18.5,11.5 Z M 30.5,14.5 C 32.9635,16.4611 35.2968,18.6278 37.5,21C 35.1902,21.4966 32.8568,21.6633 30.5,21.5C 30.5,19.1667 30.5,16.8333 30.5,14.5 Z"/></g>
<g><path style="opacity:0.606" fill="#fefffe" d="M 27.5,27.5 C 29.2132,28.6354 29.8799,30.302 29.5,32.5C 36.1667,33.1667 36.1667,33.8333 29.5,34.5C 29.7852,36.288 29.4519,37.9547 28.5,39.5C 26.7826,38.3315 26.1159,36.6648 26.5,34.5C 21.3706,34.281 21.3706,33.6144 26.5,32.5C 26.366,30.7085 26.6993,29.0418 27.5,27.5 Z"/></g>
</svg>
