<?xml version="1.0" encoding="UTF-8"?>
<!DOCTYPE svg PUBLIC "-//W3C//DTD SVG 1.1//EN" "http://www.w3.org/Graphics/SVG/1.1/DTD/svg11.dtd">
<svg xmlns="http://www.w3.org/2000/svg" version="1.1" width="56px" height="56px" style="shape-rendering:geometricPrecision; text-rendering:geometricPrecision; image-rendering:optimizeQuality; fill-rule:evenodd; clip-rule:evenodd" xmlns:xlink="http://www.w3.org/1999/xlink">
<g><path style="opacity:0.874" fill="#fefffe" d="M 21.5,8.5 C 35.7223,6.90575 44.0556,13.0724 46.5,27C 43.64,41.9198 34.9734,47.4198 20.5,43.5C 20.8333,42.8333 21.1667,42.1667 21.5,41.5C 25.9072,40.8754 30.2406,40.042 34.5,39C 37.6545,38.0186 37.9878,36.6852 35.5,35C 31.2037,34.036 26.8704,33.2026 22.5,32.5C 20.0175,26.8476 15.8508,24.5142 10,25.5C 9.58504,20.9794 10.9184,16.9794 14,13.5C 16.4795,11.6859 18.9795,10.0192 21.5,8.5 Z M 27.5,16.5 C 35.1973,20.8775 35.1973,25.2108 27.5,29.5C 19.5647,25.0248 19.5647,20.6914 27.5,16.5 Z"/></g>
<g><path style="opacity:0.815" fill="#fefffe" d="M 8.5,26.5 C 20.3119,26.4687 23.8119,31.802 19,42.5C 12.5967,47.1569 7.26335,46.1569 3,39.5C 1.57082,33.7001 3.40415,29.3668 8.5,26.5 Z M 15.5,32.5 C 15.5223,35.2797 14.1889,37.7797 11.5,40C 9.61327,40.1626 8.11327,39.3293 7,37.5C 6.31232,36.6683 6.47899,36.0016 7.5,35.5C 8.27523,37.4753 9.60856,38.3087 11.5,38C 12.6647,36.0083 13.998,34.175 15.5,32.5 Z"/></g>
</svg>
