<?xml version="1.0" encoding="UTF-8"?>
<!DOCTYPE svg PUBLIC "-//W3C//DTD SVG 1.1//EN" "http://www.w3.org/Graphics/SVG/1.1/DTD/svg11.dtd">
<svg xmlns="http://www.w3.org/2000/svg" version="1.1" width="56px" height="56px" style="shape-rendering:geometricPrecision; text-rendering:geometricPrecision; image-rendering:optimizeQuality; fill-rule:evenodd; clip-rule:evenodd" xmlns:xlink="http://www.w3.org/1999/xlink">
<g><path style="opacity:0.819" fill="#fefffe" d="M 16.5,7.5 C 26.1724,7.33353 35.8391,7.5002 45.5,8C 46.4162,8.37424 47.2496,8.87424 48,9.5C 48.6667,20.8333 48.6667,32.1667 48,43.5C 47.1667,44.3333 46.3333,45.1667 45.5,46C 33.5,46.6667 21.5,46.6667 9.5,46C 8.66667,45.1667 7.83333,44.3333 7,43.5C 6.33333,36.5 6.33333,29.5 7,22.5C 9.22763,20.8866 11.7276,20.22 14.5,20.5C 14.0537,15.9289 14.7203,11.5956 16.5,7.5 Z M 19.5,11.5 C 27.7524,11.1842 35.919,11.5175 44,12.5C 44.4998,22.1609 44.6665,31.8276 44.5,41.5C 35.8333,41.5 27.1667,41.5 18.5,41.5C 18.1926,31.4176 18.5259,21.4176 19.5,11.5 Z M 10.5,25.5 C 11.8333,25.5 13.1667,25.5 14.5,25.5C 14.6659,30.5111 14.4993,35.5111 14,40.5C 12.9887,41.3366 11.8221,41.67 10.5,41.5C 10.5,36.1667 10.5,30.8333 10.5,25.5 Z"/></g>
<g><path style="opacity:0.596" fill="#fefffe" d="M 22.5,15.5 C 28.5092,15.3338 34.5092,15.5005 40.5,16C 41.3366,17.0113 41.67,18.1779 41.5,19.5C 34.8333,19.5 28.1667,19.5 21.5,19.5C 21.4326,18.0413 21.7659,16.7079 22.5,15.5 Z"/></g>
<g><path style="opacity:0.772" fill="#fefffe" d="M 21.5,22.5 C 28.1667,22.5 34.8333,22.5 41.5,22.5C 41.5,23.5 41.5,24.5 41.5,25.5C 34.8333,25.5 28.1667,25.5 21.5,25.5C 21.5,24.5 21.5,23.5 21.5,22.5 Z"/></g>
<g><path style="opacity:0.884" fill="#fefffe" d="M 21.5,28.5 C 24.5,28.5 27.5,28.5 30.5,28.5C 30.6641,31.1873 30.4974,33.854 30,36.5C 27.2809,37.4438 24.4475,37.7771 21.5,37.5C 21.5,34.5 21.5,31.5 21.5,28.5 Z"/></g>
<g><path style="opacity:0.725" fill="#fefffe" d="M 31.5,28.5 C 34.8333,28.5 38.1667,28.5 41.5,28.5C 41.5,29.5 41.5,30.5 41.5,31.5C 38.4816,31.6646 35.4816,31.498 32.5,31C 31.7476,30.3292 31.4142,29.4959 31.5,28.5 Z"/></g>
<g><path style="opacity:0.722" fill="#fefffe" d="M 31.5,34.5 C 34.8333,34.5 38.1667,34.5 41.5,34.5C 41.5,35.5 41.5,36.5 41.5,37.5C 38.4816,37.6646 35.4816,37.498 32.5,37C 31.7476,36.3292 31.4142,35.4959 31.5,34.5 Z"/></g>
</svg>
