<?xml version="1.0" encoding="UTF-8"?>
<!DOCTYPE svg PUBLIC "-//W3C//DTD SVG 1.1//EN" "http://www.w3.org/Graphics/SVG/1.1/DTD/svg11.dtd">
<svg xmlns="http://www.w3.org/2000/svg" version="1.1" width="56px" height="56px" style="shape-rendering:geometricPrecision; text-rendering:geometricPrecision; image-rendering:optimizeQuality; fill-rule:evenodd; clip-rule:evenodd" xmlns:xlink="http://www.w3.org/1999/xlink">
<g><path style="opacity:0.816" fill="#fefffe" d="M 20.5,8.5 C 29.1731,8.33358 37.8397,8.50025 46.5,9C 47,9.5 47.5,10 48,10.5C 48.6667,16.5 48.6667,22.5 48,28.5C 46.2111,30.229 44.0444,30.8957 41.5,30.5C 41.5,33.1667 41.5,35.8333 41.5,38.5C 35.9139,37.9561 30.2472,38.1228 24.5,39C 21.9518,41.8851 19.1185,44.3851 16,46.5C 15.228,46.3552 14.5613,46.0219 14,45.5C 13.5034,43.1902 13.3367,40.8568 13.5,38.5C 10.9556,38.8957 8.7889,38.229 7,36.5C 6.33333,30.5 6.33333,24.5 7,18.5C 7.5,18 8,17.5 8.5,17C 11.8168,16.5017 15.1501,16.335 18.5,16.5C 18.1072,13.4867 18.7739,10.8201 20.5,8.5 Z M 22.5,12.5 C 29.8333,12.5 37.1667,12.5 44.5,12.5C 44.5,17.1667 44.5,21.8333 44.5,26.5C 39.8823,25.3087 37.3823,26.9754 37,31.5C 33.3091,26.8905 28.4757,25.2238 22.5,26.5C 22.5,21.8333 22.5,17.1667 22.5,12.5 Z M 10.5,20.5 C 13.1667,20.5 15.8333,20.5 18.5,20.5C 17.2036,29.6942 21.2036,33.1942 30.5,31C 31.5,32 32.5,33 33.5,34C 27.2314,33.1733 22.0647,35.0066 18,39.5C 17.6177,34.9754 15.1177,33.3087 10.5,34.5C 10.5,29.8333 10.5,25.1667 10.5,20.5 Z"/></g>
</svg>
