<?xml version="1.0" encoding="UTF-8"?>
<svg width="24px" height="24px" viewBox="0 0 24 24" version="1.1" xmlns="http://www.w3.org/2000/svg" xmlns:xlink="http://www.w3.org/1999/xlink">
    <title>Group 27</title>
    <g id="Page-1" stroke="none" stroke-width="1" fill="none" fill-rule="evenodd">
        <g id="TopScore-Dash-board-3-Copy-10" transform="translate(-778.000000, -808.000000)">
            <g id="Group-15" transform="translate(778.000000, 808.000000)">
                <g id="Group-27" transform="translate(0.000000, 0.000000)">
                    <rect id="Rectangle" fill-opacity="0" fill="#D8D8D8" x="0" y="0" width="24" height="24"></rect>
                    <g id="Group-5" transform="translate(3.750000, 4.800000)" fill="#FFFFFF">
                        <path d="M12.3287716,14.3181818 C12.2287245,14.3181818 12.1302888,14.2798948 12.0570479,14.2078922 L8.95383143,11.1614994 L5.53362839,11.1614994 C5.10824531,11.1614994 4.70835006,10.9999223 4.40762297,10.7066263 C4.25806507,10.5606212 4.25806507,10.3243272 4.40762297,10.1784649 C4.55718086,10.0327455 4.7996082,10.0327455 4.9491661,10.1784649 C5.10531568,10.330756 5.31288035,10.414616 5.53362839,10.414616 L9.1132036,10.414616 C9.21515492,10.414616 9.31300475,10.4543317 9.38478082,10.5249056 L11.9457217,13.038994 L11.9457217,10.7880577 C11.9457217,10.5817648 12.1172519,10.414616 12.3286251,10.414616 L14.1575966,10.414616 C14.6134479,10.414616 14.9841933,10.052889 14.9841933,9.60844485 L14.9841933,4.41654809 C14.9841933,3.97210389 14.6134479,3.61051976 14.1575966,3.61051976 L11.9672546,3.61051976 C11.7558814,3.61051976 11.5843512,3.44322816 11.5843512,3.23707806 C11.5843512,3.0307851 11.7558814,2.86363636 11.9672546,2.86363636 L14.1575966,2.86363636 C15.0356084,2.86363636 15.75,3.56023228 15.75,4.41654809 L15.75,9.60844485 C15.75,10.4647607 15.0356084,11.1614994 14.1575966,11.1614994 L12.7115285,11.1614994 L12.7115285,13.9447401 C12.7115285,14.0960312 12.6180731,14.2323217 12.4746674,14.290038 C12.4275003,14.3090386 12.377843,14.3181818 12.3287716,14.3181818" id="Fill-5"></path>
                        <path d="M1.54463585,0.746883394 C1.10245879,0.746883394 0.742834718,1.10846753 0.742834718,1.55305459 L0.742834718,6.74480849 C0.742834718,7.18939555 1.10245879,7.55097968 1.54463585,7.55097968 L3.31860132,7.55097968 C3.52377602,7.55097968 3.69001867,7.71827128 3.69001867,7.92442138 L3.69001867,10.1753576 L6.17413868,7.66126927 C6.24390376,7.59069536 6.33881837,7.55097968 6.43771144,7.55097968 L9.90990961,7.55097968 C10.3520867,7.55097968 10.7117107,7.18939555 10.7117107,6.74480849 L10.7117107,1.55305459 C10.7117107,1.10846753 10.3520867,0.746883394 9.90990961,0.746883394 L1.54463585,0.746883394 Z M3.31860132,11.4545455 C3.27085983,11.4545455 3.22297626,11.4454023 3.17708192,11.4264016 C3.03797802,11.3686853 2.94732604,11.2323948 2.94732604,11.0811038 L2.94732604,8.29786308 L1.54463585,8.29786308 C0.69296192,8.29786308 0,7.6011243 0,6.74480849 L0,1.55305459 C0,0.696595912 0.69296192,0 1.54463585,0 L9.90990961,0 C10.7615835,0 11.4545455,0.696595912 11.4545455,1.55305459 L11.4545455,6.74480849 C11.4545455,7.6011243 10.7615835,8.29786308 9.90990961,8.29786308 L6.5923029,8.29786308 L3.58217408,11.3443987 C3.51098812,11.4162584 3.41564724,11.4545455 3.31860132,11.4545455 L3.31860132,11.4545455 Z" id="Fill-7"></path>
                    </g>
                </g>
            </g>
        </g>
    </g>
</svg>