<?xml version="1.0" encoding="UTF-8"?>
<svg width="16px" height="16px" viewBox="0 0 16 16" version="1.1" xmlns="http://www.w3.org/2000/svg" xmlns:xlink="http://www.w3.org/1999/xlink">
    <title>Group 2</title>
    <g id="Page-1" stroke="none" stroke-width="1" fill="none" fill-rule="evenodd">
        <g id="TopScore-Dash-board-3-Copy-10" transform="translate(-880.000000, -424.000000)">
            <g id="Group-8" transform="translate(776.000000, 355.000000)">
                <g id="Group-9" transform="translate(104.000000, 48.000000)">
                    <g id="Group-2" transform="translate(0.000000, 21.000000)">
                        <rect id="Rectangle" x="0" y="0" width="16" height="16"></rect>
                        <g id="Group-6" transform="translate(2.000000, 4.000000)" fill="#A4A4A4">
                            <path d="M7.64,0 C8.19228475,-1.01453063e-16 8.64,0.44771525 8.64,1 L8.64,1.693 L3.7,1.69377139 C3.18716416,1.69377139 2.76449284,2.07981158 2.70672773,2.57715026 L2.7,2.69377139 L2.7,5.645 L1,5.64590462 C0.44771525,5.64590462 -2.65431532e-16,5.19818937 0,4.64590462 L0,1 C-6.76353751e-17,0.44771525 0.44771525,-1.20591542e-16 1,0 L7.64,0 Z" id="Combined-Shape"></path>
                            <path d="M11,2.35294118 C11.5522847,2.35294118 12,2.80065643 12,3.35294118 L12,7 C12,7.55228475 11.5522847,8 11,8 L4.36,8 C3.80771525,8 3.36,7.55228475 3.36,7 L3.36,3.35294118 C3.36,2.80065643 3.80771525,2.35294118 4.36,2.35294118 L11,2.35294118 Z M7.68,4.04705882 C7.08353247,4.04705882 6.6,4.55271369 6.6,5.17647059 C6.6,5.80022748 7.08353247,6.30588235 7.68,6.30588235 C8.27646753,6.30588235 8.76,5.80022748 8.76,5.17647059 C8.76,4.55271369 8.27646753,4.04705882 7.68,4.04705882 Z" id="Combined-Shape"></path>
                        </g>
                    </g>
                </g>
            </g>
        </g>
    </g>
</svg>