<svg width="28" height="28" viewBox="0 0 28 28" fill="none" xmlns="http://www.w3.org/2000/svg">
<path fill-rule="evenodd" clip-rule="evenodd" d="M8.1815 23C8.30378 23 8.42409 22.9532 8.51361 22.8652L12.3064 19.1418H16.4867C17.0066 19.1418 17.4953 18.9443 17.8629 18.5859C18.0457 18.4074 18.0457 18.1186 17.8629 17.9403C17.6801 17.7622 17.3838 17.7622 17.201 17.9403C17.0102 18.1265 16.7565 18.229 16.4867 18.229H12.1116C11.987 18.229 11.8674 18.2775 11.7797 18.3638L8.64967 21.4365V18.6854C8.64967 18.4333 8.44003 18.229 8.18168 18.229H5.94627C5.38912 18.229 4.93599 17.7869 4.93599 17.2437V10.898C4.93599 10.3548 5.38912 9.91286 5.94627 9.91286H8.62336C8.8817 9.91286 9.09135 9.70839 9.09135 9.45643C9.09135 9.20429 8.8817 9 8.62336 9H5.94627C4.87315 9 4 9.8514 4 10.898V17.2437C4 18.2903 4.87315 19.1418 5.94627 19.1418H7.71369V22.5436C7.71369 22.7285 7.82791 22.8951 8.00318 22.9656C8.06083 22.9888 8.12153 23 8.1815 23" fill="white"/>
<path d="M8.1815 23C8.30378 23 8.42409 22.9532 8.51361 22.8652L12.3064 19.1418H16.4867C17.0066 19.1418 17.4953 18.9443 17.8629 18.5859C18.0457 18.4074 18.0457 18.1186 17.8629 17.9403C17.6801 17.7622 17.3838 17.7622 17.201 17.9403C17.0102 18.1265 16.7565 18.229 16.4867 18.229H12.1116C11.987 18.229 11.8674 18.2775 11.7797 18.3638L8.64967 21.4365V18.6854C8.64967 18.4333 8.44003 18.229 8.18168 18.229H5.94627C5.38912 18.229 4.93599 17.7869 4.93599 17.2437V10.898C4.93599 10.3548 5.38912 9.91286 5.94627 9.91286H8.62336C8.8817 9.91286 9.09135 9.70839 9.09135 9.45643C9.09135 9.20429 8.8817 9 8.62336 9H5.94627C4.87315 9 4 9.8514 4 10.898V17.2437C4 18.2903 4.87315 19.1418 5.94627 19.1418H7.71369V22.5436C7.71369 22.7285 7.82791 22.8951 8.00318 22.9656C8.06083 22.9888 8.12153 23 8.1815 23" stroke="#1A1A1A" stroke-width="0.25"/>
<path fill-rule="evenodd" clip-rule="evenodd" d="M22.1121 5.91286C22.6526 5.91286 23.0921 6.35479 23.0921 6.89818V13.2437C23.0921 13.787 22.6526 14.229 22.1121 14.229H19.9439C19.6932 14.229 19.49 14.4334 19.49 14.6854V17.4365L16.4538 14.3638C16.3686 14.2775 16.2526 14.229 16.1317 14.229H11.8879C11.3474 14.229 10.9079 13.787 10.9079 13.2437V6.89818C10.9079 6.35479 11.3474 5.91286 11.8879 5.91286H22.1121ZM19.9439 19C20.0023 19 20.0608 18.9888 20.1169 18.9656C20.2869 18.8951 20.3977 18.7285 20.3977 18.5436V15.1418H22.1121C23.153 15.1418 24 14.2903 24 13.2437V6.89818C24 5.8514 23.153 5 22.1121 5H11.8879C10.847 5 10 5.8514 10 6.89818V13.2437C10 14.2903 10.847 15.1418 11.8879 15.1418H15.9427L19.6218 18.8654C19.7088 18.9532 19.8253 19 19.9439 19V19Z" fill="white"/>
<path d="M19.49 17.4365H19.615V17.7409L19.4011 17.5244L19.49 17.4365ZM16.4538 14.3638L16.5427 14.2759L16.5427 14.2759L16.4538 14.3638ZM20.1169 18.9656L20.1648 19.0811L20.1647 19.0811L20.1169 18.9656ZM20.3977 15.1418H20.2727V15.0168H20.3977V15.1418ZM15.9427 15.1418V15.0168H15.995L16.0317 15.054L15.9427 15.1418ZM19.6218 18.8654L19.533 18.9533L19.5329 18.9532L19.6218 18.8654ZM22.1121 5.78786C22.7222 5.78786 23.2171 6.2864 23.2171 6.89818H22.9671C22.9671 6.42319 22.5829 6.03786 22.1121 6.03786V5.78786ZM23.2171 6.89818V13.2437H22.9671V6.89818H23.2171ZM23.2171 13.2437C23.2171 13.8554 22.7222 14.354 22.1121 14.354V14.104C22.5829 14.104 22.9671 13.7186 22.9671 13.2437H23.2171ZM22.1121 14.354H19.9439V14.104H22.1121V14.354ZM19.9439 14.354C19.7629 14.354 19.615 14.5018 19.615 14.6854H19.365C19.365 14.3651 19.6235 14.104 19.9439 14.104V14.354ZM19.615 14.6854V17.4365H19.365V14.6854H19.615ZM19.4011 17.5244L16.3649 14.4516L16.5427 14.2759L19.5789 17.3487L19.4011 17.5244ZM16.3649 14.4517C16.3031 14.3891 16.219 14.354 16.1317 14.354V14.104C16.2861 14.104 16.4341 14.166 16.5427 14.2759L16.3649 14.4517ZM16.1317 14.354H11.8879V14.104H16.1317V14.354ZM11.8879 14.354C11.2778 14.354 10.7829 13.8554 10.7829 13.2437H11.0329C11.0329 13.7186 11.4171 14.104 11.8879 14.104V14.354ZM10.7829 13.2437V6.89818H11.0329V13.2437H10.7829ZM10.7829 6.89818C10.7829 6.2864 11.2778 5.78786 11.8879 5.78786V6.03786C11.4171 6.03786 11.0329 6.42319 11.0329 6.89818H10.7829ZM11.8879 5.78786H22.1121V6.03786H11.8879V5.78786ZM19.9439 18.875C19.9862 18.875 20.0284 18.8669 20.0691 18.8501L20.1647 19.0811C20.0932 19.1107 20.0184 19.125 19.9439 19.125V18.875ZM20.069 18.8501C20.192 18.7991 20.2727 18.6783 20.2727 18.5436H20.5227C20.5227 18.7787 20.3818 18.991 20.1648 19.0811L20.069 18.8501ZM20.2727 18.5436V15.1418H20.5227V18.5436H20.2727ZM20.3977 15.0168H22.1121V15.2668H20.3977V15.0168ZM22.1121 15.0168C23.0834 15.0168 23.875 14.2219 23.875 13.2437H24.125C24.125 14.3587 23.2227 15.2668 22.1121 15.2668V15.0168ZM23.875 13.2437V6.89818H24.125V13.2437H23.875ZM23.875 6.89818C23.875 5.9198 23.0834 5.125 22.1121 5.125V4.875C23.2227 4.875 24.125 5.78299 24.125 6.89818H23.875ZM22.1121 5.125H11.8879V4.875H22.1121V5.125ZM11.8879 5.125C10.9166 5.125 10.125 5.9198 10.125 6.89818H9.875C9.875 5.78299 10.7773 4.875 11.8879 4.875V5.125ZM10.125 6.89818V13.2437H9.875V6.89818H10.125ZM10.125 13.2437C10.125 14.2219 10.9166 15.0168 11.8879 15.0168V15.2668C10.7773 15.2668 9.875 14.3587 9.875 13.2437H10.125ZM11.8879 15.0168H15.9427V15.2668H11.8879V15.0168ZM16.0317 15.054L19.7107 18.7775L19.5329 18.9532L15.8538 15.2297L16.0317 15.054ZM19.7106 18.7774C19.7738 18.8412 19.8581 18.875 19.9439 18.875V19.125C19.7925 19.125 19.6438 19.0652 19.533 18.9533L19.7106 18.7774Z" fill="#1A1A1A"/>
</svg>
