<svg width="696" height="90" viewBox="0 0 696 90" fill="none" xmlns="http://www.w3.org/2000/svg">
<path d="M22.457 87V52.0781H70.2109V34.5586H22.457V17.8594H74.6055V0.339844H0.71875V87H22.457ZM104.723 46.3945C105.074 42.4688 106.715 39.3047 109.645 36.9609C112.516 34.6758 116.266 33.5039 120.895 33.5039C130.211 33.5039 136.363 38.4258 137.066 46.4531L104.723 46.3945ZM136.129 66.0234C133.727 71.9414 127.984 75.3398 120.426 75.3398C115.562 75.3398 111.695 73.9336 108.766 71.1211C105.777 68.3672 104.254 64.6172 104.137 59.8711H159.332V57.1172C159.332 45.2227 155.992 36.082 149.254 29.6367C142.516 23.25 132.906 20.0273 120.426 20.0273C108.414 20.0273 98.9805 23.1328 92.0078 29.2852C85.0352 35.4961 81.5781 43.9336 81.5781 54.5977C81.5781 65.2617 85.0938 73.6992 92.0664 79.9102C99.0391 86.1797 108.473 89.2852 120.426 89.2852C129.859 89.2852 137.828 87.293 144.391 83.1914C150.953 79.1484 155.582 73.4648 158.219 66.0234H136.129ZM190.27 46.3945C190.621 42.4688 192.262 39.3047 195.191 36.9609C198.062 34.6758 201.812 33.5039 206.441 33.5039C215.758 33.5039 221.91 38.4258 222.613 46.4531L190.27 46.3945ZM221.676 66.0234C219.273 71.9414 213.531 75.3398 205.973 75.3398C201.109 75.3398 197.242 73.9336 194.312 71.1211C191.324 68.3672 189.801 64.6172 189.684 59.8711H244.879V57.1172C244.879 45.2227 241.539 36.082 234.801 29.6367C228.062 23.25 218.453 20.0273 205.973 20.0273C193.961 20.0273 184.527 23.1328 177.555 29.2852C170.582 35.4961 167.125 43.9336 167.125 54.5977C167.125 65.2617 170.641 73.6992 177.613 79.9102C184.586 86.1797 194.02 89.2852 205.973 89.2852C215.406 89.2852 223.375 87.293 229.938 83.1914C236.5 79.1484 241.129 73.4648 243.766 66.0234H221.676ZM312.262 55.418C312.262 60.9844 310.562 65.4961 307.105 68.8359C303.648 72.2344 299.078 73.9336 293.336 73.9336C287.535 73.9336 282.965 72.293 279.508 68.9531C276.051 65.6133 274.352 61.1602 274.352 55.5352C274.352 49.8516 276.051 45.3984 279.508 42.0586C282.906 38.7188 287.535 37.0781 293.336 37.0781C299.078 37.0781 303.648 38.7188 307.105 42.0586C310.562 45.3984 312.262 49.8516 312.262 55.418ZM312.262 29.8711C307.047 24.2461 299.547 21.4922 289.703 21.4922C278.688 21.4922 269.781 24.5977 262.984 30.8086C256.188 37.0781 252.789 45.2227 252.789 55.3008C252.789 65.3203 256.188 73.4648 262.984 79.7344C269.723 86.0039 278.512 89.168 289.352 89.168C299.43 89.168 306.695 86.5898 312.262 81.0234V87H332.301V0.339844H312.262V29.8711ZM369.215 0.339844H349.293V87H369.215V81.0234C374.84 86.5898 382.105 89.168 392.184 89.168C402.965 89.168 411.754 86.0039 418.551 79.7344C425.348 73.4648 428.746 65.3203 428.746 55.3008C428.746 45.2227 425.348 37.0781 418.551 30.8086C411.754 24.5977 402.848 21.4922 391.773 21.4922C381.93 21.4922 374.312 24.3047 369.215 29.8711V0.339844ZM369.215 55.418C369.215 49.8516 370.914 45.3984 374.371 42.0586C377.828 38.7188 382.398 37.0781 388.199 37.0781C394 37.0781 398.629 38.7188 402.086 42.0586C405.484 45.3984 407.184 49.8516 407.184 55.5352C407.184 61.1602 405.484 65.6133 402.027 68.9531C398.57 72.293 394 73.9336 388.199 73.9336C382.457 73.9336 377.887 72.2344 374.43 68.8359C370.973 65.4961 369.215 60.9844 369.215 55.418ZM494.312 55.8281C494.488 56.2969 494.488 56.8242 494.488 58.0547C494.488 63.2695 492.379 67.4883 488.16 70.7109C483.883 73.9336 478.375 75.5742 471.578 75.5742C465.016 75.5742 460.738 72.293 460.738 67.3125C460.738 64.9102 461.734 63.1523 463.727 62.0391C465.719 60.9258 470.465 59.9297 478.023 59.168C478.434 59.1094 479.078 59.0508 479.957 58.9336C487.047 58.2305 491.793 57.1758 494.312 55.8281ZM513.883 45.6914C513.883 40.2422 513.414 36.1992 512.477 33.5039C511.48 30.8672 509.84 28.6406 507.555 26.8828C501.461 22.3711 492.379 20.0273 480.66 20.0273C456.812 20.0273 443.922 28.2305 443.922 43.4648V43.6992L464.84 43.6406C465.016 36.1992 469.469 32.8594 479.488 32.8594C489.391 32.8594 494.371 35.2617 494.371 40.1836C494.371 44.2852 487.926 46.8047 475.035 47.6836C472.398 47.8594 470.289 47.9766 468.824 48.0938C457.633 49.0312 449.723 51.0234 445.094 54.0117C440.465 57.0586 438.18 61.6289 438.18 67.7812C438.18 74.4023 440.758 79.6172 445.855 83.4844C450.953 87.3516 457.984 89.2852 466.891 89.2852C478.375 89.2852 486.871 86.2969 493.844 79.9102L494.84 87H516.93V85.5352C514.762 84.0703 513.883 81.668 513.883 76.5703V45.6914ZM582.32 60.6914C582.027 64.5586 580.328 67.7227 577.281 70.125C574.176 72.5859 570.367 73.8164 565.738 73.8164C560.289 73.8164 555.895 72.0586 552.672 68.6016C549.391 65.1445 547.75 60.5156 547.75 54.7148C547.75 48.9141 549.391 44.2266 552.672 40.7109C555.953 37.2539 560.289 35.4961 565.738 35.4961C575.289 35.4961 581.09 39.6562 582.203 47.1562H604.293C602.125 29.6367 588.941 20.0273 566.969 20.0273C554.254 20.0273 544.293 23.1328 537.027 29.2852C529.703 35.4375 526.07 43.875 526.07 54.5977C526.07 65.0859 529.703 73.4648 536.91 79.793C544.117 86.1211 553.609 89.2852 565.504 89.2852C576.695 89.2852 585.953 86.6484 593.16 81.375C600.367 76.1016 604.352 69.1875 604.996 60.6914H582.32ZM638.102 87V67.3125L646.012 61.1016L668.688 87H695.348L660.777 48.7383L692.711 22.3125H666.871L638.102 46.6875V0.339844H618.18V87H638.102Z" fill="white"/>
</svg>
