<svg width="495" height="112" viewBox="0 0 495 112" fill="none" xmlns="http://www.w3.org/2000/svg">
<path d="M84.0625 89H100.469V41.832H57.7539V59.1172H77.4414C75.3906 63.5703 72.168 67.0859 67.6562 69.6055C63.1445 72.125 57.9297 73.4141 52.0117 73.4141C43.2812 73.4141 36.4258 70.9531 31.4453 65.9727C26.4648 61.0508 23.9453 54.3125 23.9453 45.6992C23.9453 37.0859 26.4648 30.2891 31.5039 25.3086C36.4844 20.3281 43.3398 17.8672 52.0117 17.8672C64.8438 17.8672 73.1055 22.6719 77.0898 32.3398H100.703C99.4141 22.7305 94.3164 14.9375 85.4102 8.96094C76.5039 3.04297 65.3711 0.0546875 52.0117 0.0546875C36.1914 0.0546875 23.5938 4.21484 14.1602 12.4766C4.72656 20.7383 0.0390625 31.8125 0.0390625 45.6992C0.0390625 60.6406 5.37109 71.8906 16.2109 80.5039C25.0586 87.3594 37.4219 91.2852 50.7812 91.2852C64.082 91.2852 74.5703 87.3008 82.832 79.2734L84.0625 89ZM171.25 57.8281C171.426 58.2969 171.426 58.8242 171.426 60.0547C171.426 65.2695 169.316 69.4883 165.098 72.7109C160.82 75.9336 155.312 77.5742 148.516 77.5742C141.953 77.5742 137.676 74.293 137.676 69.3125C137.676 66.9102 138.672 65.1523 140.664 64.0391C142.656 62.9258 147.402 61.9297 154.961 61.168C155.371 61.1094 156.016 61.0508 156.895 60.9336C163.984 60.2305 168.73 59.1758 171.25 57.8281ZM190.82 47.6914C190.82 42.2422 190.352 38.1992 189.414 35.5039C188.418 32.8672 186.777 30.6406 184.492 28.8828C178.398 24.3711 169.316 22.0273 157.598 22.0273C133.75 22.0273 120.859 30.2305 120.859 45.4648V45.6992L141.777 45.6406C141.953 38.1992 146.406 34.8594 156.426 34.8594C166.328 34.8594 171.309 37.2617 171.309 42.1836C171.309 46.2852 164.863 48.8047 151.973 49.6836C149.336 49.8594 147.227 49.9766 145.762 50.0938C134.57 51.0312 126.66 53.0234 122.031 56.0117C117.402 59.0586 115.117 63.6289 115.117 69.7812C115.117 76.4023 117.695 81.6172 122.793 85.4844C127.891 89.3516 134.922 91.2852 143.828 91.2852C155.312 91.2852 163.809 88.2969 170.781 81.9102L171.777 89H193.867V87.5352C191.699 86.0703 190.82 83.668 190.82 78.5703V47.6914ZM228.555 89V2.33984H208.633V89H228.555ZM267.461 89V2.33984H247.539V89H267.461ZM303.965 48.3945C304.316 44.4688 305.957 41.3047 308.887 38.9609C311.758 36.6758 315.508 35.5039 320.137 35.5039C329.453 35.5039 335.605 40.4258 336.309 48.4531L303.965 48.3945ZM335.371 68.0234C332.969 73.9414 327.227 77.3398 319.668 77.3398C314.805 77.3398 310.938 75.9336 308.008 73.1211C305.02 70.3672 303.496 66.6172 303.379 61.8711H358.574V59.1172C358.574 47.2227 355.234 38.082 348.496 31.6367C341.758 25.25 332.148 22.0273 319.668 22.0273C307.656 22.0273 298.223 25.1328 291.25 31.2852C284.277 37.4961 280.82 45.9336 280.82 56.5977C280.82 67.2617 284.336 75.6992 291.309 81.9102C298.281 88.1797 307.715 91.2852 319.668 91.2852C329.102 91.2852 337.07 89.293 343.633 85.1914C350.195 81.1484 354.824 75.4648 357.461 68.0234H335.371ZM390.684 60.0547C390.684 53.5508 392.383 48.5117 395.723 44.8203C399.062 41.1289 403.691 39.3125 409.551 39.3125C413.242 39.3125 414.531 39.3711 415.879 39.5469V22.4961C415.527 22.4375 415 22.4375 414.297 22.3789C412.305 22.1445 410.957 22.0273 410.254 22.0273C403.164 22.0273 396.777 25.543 390.684 32.8672V24.3125H370.645V89H390.684V60.0547ZM434.16 111.793H437.441C443.066 111.793 445.469 111.383 447.754 110.211C451.68 108.336 454.961 104.41 457.949 98.4922L494.16 24.3125H472.129L453.379 65.9727L436.094 24.3125H413.77L441.836 84.0781C442.305 85.1914 442.598 86.5391 442.598 88.1797C442.598 91.9883 440.02 94.0391 435.039 94.0391H423.496V111.793H434.16Z" fill="white"/>
</svg>
