<svg width="1535" height="463" viewBox="0 0 1535 463" fill="none" xmlns="http://www.w3.org/2000/svg">
<g filter="url(#filter0_d_828_27)">
<path fill-rule="evenodd" clip-rule="evenodd" d="M1497 455C1513.57 455 1527 441.569 1527 425V82H981.471L906 7H37C20.4315 7 7 20.4315 7 37V425C7 441.569 20.4314 455 37 455H1497Z" fill="black" fill-opacity="0.01"/>
</g>
<g filter="url(#filter1_d_828_27)">
<path fill-rule="evenodd" clip-rule="evenodd" d="M37 7C20.4315 7 7 20.4315 7 37V425C7 441.569 20.4314 455 37 455H1497C1513.57 455 1527 441.569 1527 425V82H981.471L906 7H37Z" fill="#1A1A1A"/>
</g>
<defs>
<filter id="filter0_d_828_27" x="0" y="0" width="1530" height="458" filterUnits="userSpaceOnUse" color-interpolation-filters="sRGB">
<feFlood flood-opacity="0" result="BackgroundImageFix"/>
<feColorMatrix in="SourceAlpha" type="matrix" values="0 0 0 0 0 0 0 0 0 0 0 0 0 0 0 0 0 0 127 0" result="hardAlpha"/>
<feOffset dx="-2" dy="-2"/>
<feGaussianBlur stdDeviation="2.5"/>
<feColorMatrix type="matrix" values="0 0 0 0 1 0 0 0 0 1 0 0 0 0 1 0 0 0 0.14 0"/>
<feBlend mode="normal" in2="BackgroundImageFix" result="effect1_dropShadow_828_27"/>
<feBlend mode="normal" in="SourceGraphic" in2="effect1_dropShadow_828_27" result="shape"/>
</filter>
<filter id="filter1_d_828_27" x="7" y="7" width="1528" height="456" filterUnits="userSpaceOnUse" color-interpolation-filters="sRGB">
<feFlood flood-opacity="0" result="BackgroundImageFix"/>
<feColorMatrix in="SourceAlpha" type="matrix" values="0 0 0 0 0 0 0 0 0 0 0 0 0 0 0 0 0 0 127 0" result="hardAlpha"/>
<feOffset dx="4" dy="4"/>
<feGaussianBlur stdDeviation="2"/>
<feColorMatrix type="matrix" values="0 0 0 0 0 0 0 0 0 0 0 0 0 0 0 0 0 0 0.4 0"/>
<feBlend mode="normal" in2="BackgroundImageFix" result="effect1_dropShadow_828_27"/>
<feBlend mode="normal" in="SourceGraphic" in2="effect1_dropShadow_828_27" result="shape"/>
</filter>
</defs>
</svg>
