<svg width="113" height="461" viewBox="0 0 113 461" fill="none" xmlns="http://www.w3.org/2000/svg">
<g filter="url(#filter0_d_813_2941)">
<rect x="7" y="7" width="100" height="448" rx="20" fill="black" fill-opacity="0.01"/>
</g>
<g filter="url(#filter1_d_813_2941)">
<rect x="7" y="7" width="100" height="448" rx="20" fill="#FF4E31"/>
</g>
<path d="M40 134.625V141.188H58.8672V124.102H51.9531V131.977C50.1719 131.156 48.7656 129.867 47.7578 128.062C46.75 126.258 46.2344 124.172 46.2344 121.805C46.2344 118.312 47.2188 115.57 49.2109 113.578C51.1797 111.586 53.875 110.578 57.3203 110.578C60.7656 110.578 63.4844 111.586 65.4766 113.602C67.4688 115.594 68.4531 118.336 68.4531 121.805C68.4531 126.938 66.5312 130.242 62.6641 131.836V141.281C66.5078 140.766 69.625 138.727 72.0156 135.164C74.3828 131.602 75.5781 127.148 75.5781 121.805C75.5781 115.477 73.9141 110.438 70.6094 106.664C67.3047 102.891 62.875 101.016 57.3203 101.016C51.3438 101.016 46.8438 103.148 43.3984 107.484C40.6562 111.023 39.0859 115.969 39.0859 121.312C39.0859 126.633 40.6797 130.828 43.8906 134.133L40 134.625ZM56.2422 155.695C57.8125 155.836 59.0781 156.492 60.0156 157.664C60.9297 158.812 61.3984 160.312 61.3984 162.164C61.3984 165.891 59.4297 168.352 56.2188 168.633L56.2422 155.695ZM48.3906 168.258C46.0234 167.297 44.6641 165 44.6641 161.977C44.6641 160.031 45.2266 158.484 46.3516 157.312C47.4531 156.117 48.9531 155.508 50.8516 155.461V177.539H51.9531C56.7109 177.539 60.3672 176.203 62.9453 173.508C65.5 170.812 66.7891 166.969 66.7891 161.977C66.7891 157.172 65.5469 153.398 63.0859 150.609C60.6016 147.82 57.2266 146.438 52.9609 146.438C48.6953 146.438 45.3203 147.844 42.8359 150.633C40.3281 153.422 39.0859 157.195 39.0859 161.977C39.0859 165.75 39.8828 168.938 41.5234 171.562C43.1406 174.188 45.4141 176.039 48.3906 177.094V168.258ZM65.875 184.43V180.656H59.7813V184.43H45.3203C43.1172 184.43 41.5234 185.086 40.5625 186.422C39.5781 187.758 39.0859 189.961 39.0859 193.031V198.445H45.3203V195.094C45.3203 193.945 45.4844 193.219 45.7891 192.914C46.0938 192.609 47.125 192.445 48.8359 192.445H59.7813V198.445H65.875V192.445H72.6953V184.43H65.875ZM51.2734 219.281C47.3594 219.281 44.3594 220.828 42.25 223.922C40.1406 227.016 39.0859 231.445 39.0859 237.188C39.0859 249.258 43.1875 255.633 50.8984 255.633C56.8984 255.633 60.1094 251.602 61.0703 242.719L61.75 236.273C62.1016 233.18 62.5 231.234 62.9688 230.461C63.4375 229.664 64.1875 229.266 65.1953 229.266C67.7266 229.266 69.1797 232.078 69.1797 236.953C69.1797 242.227 67.4688 245.062 64 245.461V254.086H64.2813C67.7734 254.086 70.5391 252.562 72.5547 249.516C74.5703 246.445 75.5781 242.227 75.5781 236.812C75.5781 231.773 74.5 227.742 72.3672 224.695C70.2344 221.625 67.4453 220.102 64.0469 220.102C58.3047 220.102 55.2344 224.203 54.2969 233.203L53.6875 239.367C53.4063 242.109 53.0078 243.914 52.4688 244.828C51.9297 245.719 51.0859 246.164 49.9375 246.164C47.2188 246.164 45.6719 243.305 45.6719 238.242C45.6719 231.68 47.7578 228.164 51.6719 228.164H52V219.281H51.2734ZM65.875 263.414V259.641H59.7813V263.414H45.3203C43.1172 263.414 41.5234 264.07 40.5625 265.406C39.5781 266.742 39.0859 268.945 39.0859 272.016L39.0859 277.43H45.3203V274.078C45.3203 272.93 45.4844 272.203 45.7891 271.898C46.0938 271.594 47.125 271.43 48.8359 271.43H59.7813V277.43H65.875V271.43H72.6953V263.414H65.875ZM52.4688 302.906C52.2813 302.977 52.0703 302.977 51.5781 302.977C49.4922 302.977 47.8047 302.133 46.5156 300.445C45.2266 298.734 44.5703 296.531 44.5703 293.812C44.5703 291.188 45.8828 289.477 47.875 289.477C48.8359 289.477 49.5391 289.875 49.9844 290.672C50.4297 291.469 50.8281 293.367 51.1328 296.391C51.1563 296.555 51.1797 296.812 51.2266 297.164C51.5078 300 51.9297 301.898 52.4688 302.906ZM56.5234 310.734C58.7031 310.734 60.3203 310.547 61.3984 310.172C62.4531 309.773 63.3438 309.117 64.0469 308.203C65.8516 305.766 66.7891 302.133 66.7891 297.445C66.7891 287.906 63.5078 282.75 57.4141 282.75H57.3203L57.3438 291.117C60.3203 291.188 61.6563 292.969 61.6563 296.977C61.6563 300.938 60.6953 302.93 58.7266 302.93C57.0859 302.93 56.0781 300.352 55.7266 295.195C55.6563 294.141 55.6094 293.297 55.5625 292.711C55.1875 288.234 54.3906 285.07 53.1953 283.219C51.9766 281.367 50.1484 280.453 47.6875 280.453C45.0391 280.453 42.9531 281.484 41.4063 283.523C39.8594 285.562 39.0859 288.375 39.0859 291.938C39.0859 296.531 40.2813 299.93 42.8359 302.719L40 303.117V311.953H40.5859C41.1719 311.086 42.1328 310.734 44.1719 310.734H56.5234ZM51.5781 325.336C54.1797 325.336 56.1953 326.016 57.6719 327.352C59.1484 328.688 59.875 330.539 59.875 332.883C59.875 334.359 59.8516 334.875 59.7813 335.414H66.6016C66.625 335.273 66.625 335.062 66.6484 334.781C66.7422 333.984 66.7891 333.445 66.7891 333.164C66.7891 330.328 65.3828 327.773 62.4531 325.336H65.875V317.32H40V325.336H51.5781ZM65.875 340.711V336.938H59.7813V340.711H45.3203C43.1172 340.711 41.5234 341.367 40.5625 342.703C39.5781 344.039 39.0859 346.242 39.0859 349.312V354.727H45.3203V351.375C45.3203 350.227 45.4844 349.5 45.7891 349.195C46.0938 348.891 47.125 348.727 48.8359 348.727H59.7813V354.727H65.875V348.727H72.6953V340.711H65.875ZM56.2422 366.398C57.8125 366.539 59.0781 367.195 60.0156 368.367C60.9297 369.516 61.3984 371.016 61.3984 372.867C61.3984 376.594 59.4297 379.055 56.2188 379.336L56.2422 366.398ZM48.3906 378.961C46.0234 378 44.6641 375.703 44.6641 372.68C44.6641 370.734 45.2266 369.188 46.3516 368.016C47.4531 366.82 48.9531 366.211 50.8516 366.164V388.242H51.9531C56.7109 388.242 60.3672 386.906 62.9453 384.211C65.5 381.516 66.7891 377.672 66.7891 372.68C66.7891 367.875 65.5469 364.102 63.0859 361.312C60.6016 358.523 57.2266 357.141 52.9609 357.141C48.6953 357.141 45.3203 358.547 42.8359 361.336C40.3281 364.125 39.0859 367.898 39.0859 372.68C39.0859 376.453 39.8828 379.641 41.5234 382.266C43.1406 384.891 45.4141 386.742 48.3906 387.797V378.961ZM52.6328 415.195C50.4063 415.195 48.6016 414.516 47.2656 413.133C45.9063 411.75 45.2266 409.922 45.2266 407.625C45.2266 405.305 45.8828 403.477 47.2188 402.094C48.5547 400.711 50.3359 400.031 52.5859 400.031C54.8594 400.031 56.6406 400.711 57.9766 402.094C59.3125 403.453 59.9688 405.305 59.9688 407.625C59.9688 409.922 59.3125 411.75 57.9766 413.133C56.6406 414.516 54.8594 415.195 52.6328 415.195ZM62.8516 415.195C65.1016 413.109 66.2031 410.109 66.2031 406.172C66.2031 401.766 64.9609 398.203 62.4766 395.484C59.9688 392.766 56.7109 391.406 52.6797 391.406C48.6719 391.406 45.4141 392.766 42.9063 395.484C40.3984 398.18 39.1328 401.695 39.1328 406.031C39.1328 410.062 40.1641 412.969 42.3906 415.195H40V423.211H74.6641V415.195H62.8516Z" fill="black"/>
<path fill-rule="evenodd" clip-rule="evenodd" d="M75.1014 35H81V83H33V82.9972H72.8644V48.7425L40.585 81.0219L34.8323 75.2691L66.9686 43.1328H33V35H75.1014Z" fill="black"/>
<defs>
<filter id="filter0_d_813_2941" x="0" y="0" width="110" height="458" filterUnits="userSpaceOnUse" color-interpolation-filters="sRGB">
<feFlood flood-opacity="0" result="BackgroundImageFix"/>
<feColorMatrix in="SourceAlpha" type="matrix" values="0 0 0 0 0 0 0 0 0 0 0 0 0 0 0 0 0 0 127 0" result="hardAlpha"/>
<feOffset dx="-2" dy="-2"/>
<feGaussianBlur stdDeviation="2.5"/>
<feColorMatrix type="matrix" values="0 0 0 0 1 0 0 0 0 1 0 0 0 0 1 0 0 0 0.1 0"/>
<feBlend mode="normal" in2="BackgroundImageFix" result="effect1_dropShadow_813_2941"/>
<feBlend mode="normal" in="SourceGraphic" in2="effect1_dropShadow_813_2941" result="shape"/>
</filter>
<filter id="filter1_d_813_2941" x="5" y="5" width="108" height="456" filterUnits="userSpaceOnUse" color-interpolation-filters="sRGB">
<feFlood flood-opacity="0" result="BackgroundImageFix"/>
<feColorMatrix in="SourceAlpha" type="matrix" values="0 0 0 0 0 0 0 0 0 0 0 0 0 0 0 0 0 0 127 0" result="hardAlpha"/>
<feOffset dx="2" dy="2"/>
<feGaussianBlur stdDeviation="2"/>
<feColorMatrix type="matrix" values="0 0 0 0 0 0 0 0 0 0 0 0 0 0 0 0 0 0 0.2 0"/>
<feBlend mode="normal" in2="BackgroundImageFix" result="effect1_dropShadow_813_2941"/>
<feBlend mode="normal" in="SourceGraphic" in2="effect1_dropShadow_813_2941" result="shape"/>
</filter>
</defs>
</svg>
