<svg width="906" height="90" viewBox="0 0 906 90" fill="none" xmlns="http://www.w3.org/2000/svg">
<path d="M49.0938 87L70.832 23.8945L91.5742 87H113.664L141.73 0.339844H119.172L101.418 58.6992L81.7305 0.339844H60.3438L39.9531 58.6992L22.668 0.339844H0.109375L27.707 87H49.0938ZM168.039 87V55.0664C168.039 49.3828 169.738 44.8711 173.078 41.5898C176.418 38.3672 180.988 36.7266 186.789 36.7266C191.945 36.7266 195.578 38.0742 197.688 40.7695C199.738 43.4648 200.793 48.4453 200.793 55.6523V87H220.832V51.375C220.832 45.457 220.539 41.0625 219.953 38.25C219.367 35.4961 218.371 33.0352 217.023 30.9844C212.57 24.2461 204.309 20.7891 193.234 20.7891C183.332 20.7891 175.012 24.4805 168.039 32.0391V0.339844H148V87H168.039ZM290.324 55.8281C290.5 56.2969 290.5 56.8242 290.5 58.0547C290.5 63.2695 288.391 67.4883 284.172 70.7109C279.895 73.9336 274.387 75.5742 267.59 75.5742C261.027 75.5742 256.75 72.293 256.75 67.3125C256.75 64.9102 257.746 63.1523 259.738 62.0391C261.73 60.9258 266.477 59.9297 274.035 59.168C274.445 59.1094 275.09 59.0508 275.969 58.9336C283.059 58.2305 287.805 57.1758 290.324 55.8281ZM309.895 45.6914C309.895 40.2422 309.426 36.1992 308.488 33.5039C307.492 30.8672 305.852 28.6406 303.566 26.8828C297.473 22.3711 288.391 20.0273 276.672 20.0273C252.824 20.0273 239.934 28.2305 239.934 43.4648V43.6992L260.852 43.6406C261.027 36.1992 265.48 32.8594 275.5 32.8594C285.402 32.8594 290.383 35.2617 290.383 40.1836C290.383 44.2852 283.938 46.8047 271.047 47.6836C268.41 47.8594 266.301 47.9766 264.836 48.0938C253.645 49.0312 245.734 51.0234 241.105 54.0117C236.477 57.0586 234.191 61.6289 234.191 67.7812C234.191 74.4023 236.77 79.6172 241.867 83.4844C246.965 87.3516 253.996 89.2852 262.902 89.2852C274.387 89.2852 282.883 86.2969 289.855 79.9102L290.852 87H312.941V85.5352C310.773 84.0703 309.895 81.668 309.895 76.5703V45.6914ZM331.516 22.3125H322.082V37.5469H331.516V73.6992C331.516 79.207 333.156 83.1914 336.496 85.5938C339.836 88.0547 345.344 89.2852 353.02 89.2852H366.555V73.6992H358.176C355.305 73.6992 353.488 73.2891 352.727 72.5273C351.965 71.7656 351.555 69.1875 351.555 64.9102V37.5469H366.555V22.3125H351.555V5.26172H331.516V22.3125ZM385.305 21.1406V21.4922C385.305 26.4727 382.961 31.6289 377.102 38.8945H391.516C394.797 34.8516 397.141 30.9258 398.547 27.1758C399.953 23.4844 400.656 19.207 400.656 14.4023V0.339844H378.098V21.1406H385.305ZM416.184 65.7891C417.062 81.3164 429.777 89.2852 453.742 89.2852C477.473 89.2852 490.012 81.082 490.012 65.6133C490.012 54.3047 482.277 47.332 468.391 46.3359L454.387 45.2227C443.43 44.3438 439.387 42.6445 439.387 39.1289C439.387 35.4375 444.191 33.2109 452.336 33.2109C462.004 33.2109 467.102 35.9648 468.039 41.6484H488.078V41.0625C488.078 34.5 485.031 29.3438 478.879 25.5938C472.727 21.9023 464.23 20.0273 453.391 20.0273C430.656 20.0273 418.234 27.7617 418.234 42C418.234 47.4492 420.168 51.9609 424.094 55.5352C428.02 59.1094 433.293 61.2188 439.973 61.8047L458.078 63.3867C462.707 63.7383 465.695 64.2656 467.16 65.0273C468.566 65.7891 469.27 66.9609 469.27 68.6602C469.27 72.4102 463.82 74.9883 455.441 74.9883C443.254 74.9883 437.98 72.293 437.336 65.7891H416.184ZM567.766 22.3125H547.727V87H567.766V55.0664C567.766 49.3828 569.465 44.8711 572.805 41.5898C576.145 38.3672 580.715 36.7266 586.516 36.7266C591.672 36.7266 595.305 38.0742 597.414 40.7695C599.465 43.4648 600.52 48.4453 600.52 55.6523V87H619.973V55.0664C619.973 49.3828 621.672 44.8711 625.012 41.5898C628.352 38.3672 632.922 36.7266 638.723 36.7266C643.879 36.7266 647.512 38.0742 649.621 40.7695C651.672 43.4648 652.727 48.4453 652.727 55.6523V87H672.766V51.375C672.766 45.457 672.473 41.0625 671.887 38.25C671.301 35.4961 670.305 33.0352 668.957 30.9844C664.504 24.3633 656.008 20.6133 645.168 20.6133C634.445 20.6133 624.953 25.418 618.449 34.0898C614.875 25.6523 605.441 20.6133 592.961 20.6133C583.352 20.6133 574.855 24.4805 567.766 32.0391V22.3125ZM706.223 54.7148C706.223 49.0312 707.98 44.4609 711.496 41.0039C714.953 37.6055 719.641 35.9062 725.441 35.9062C731.242 35.9062 735.93 37.6055 739.387 40.9453C742.844 44.3438 744.543 48.9141 744.543 54.5977C744.543 60.3398 742.785 64.9102 739.328 68.3086C735.871 71.7656 731.242 73.4648 725.441 73.4648C719.641 73.4648 714.953 71.7656 711.496 68.3672C707.98 64.9688 706.223 60.3984 706.223 54.7148ZM684.543 54.5977C684.543 65.3203 688.234 73.7578 695.559 79.9688C702.883 86.1797 712.844 89.2852 725.441 89.2852C738.039 89.2852 748 86.1797 755.324 79.9688C762.59 73.7578 766.223 65.3203 766.223 54.5977C766.223 43.875 762.59 35.4375 755.324 29.2852C748.059 23.1328 738.098 20.0273 725.441 20.0273C712.727 20.0273 702.766 23.1328 695.5 29.2852C688.176 35.4375 684.543 43.875 684.543 54.5977ZM798.273 58.0547C798.273 51.5508 799.973 46.5117 803.312 42.8203C806.652 39.1289 811.281 37.3125 817.141 37.3125C820.832 37.3125 822.121 37.3711 823.469 37.5469V20.4961C823.117 20.4375 822.59 20.4375 821.887 20.3789C819.895 20.1445 818.547 20.0273 817.844 20.0273C810.754 20.0273 804.367 23.543 798.273 30.8672V22.3125H778.234V87H798.273V58.0547ZM850.422 46.3945C850.773 42.4688 852.414 39.3047 855.344 36.9609C858.215 34.6758 861.965 33.5039 866.594 33.5039C875.91 33.5039 882.062 38.4258 882.766 46.4531L850.422 46.3945ZM881.828 66.0234C879.426 71.9414 873.684 75.3398 866.125 75.3398C861.262 75.3398 857.395 73.9336 854.465 71.1211C851.477 68.3672 849.953 64.6172 849.836 59.8711H905.031V57.1172C905.031 45.2227 901.691 36.082 894.953 29.6367C888.215 23.25 878.605 20.0273 866.125 20.0273C854.113 20.0273 844.68 23.1328 837.707 29.2852C830.734 35.4961 827.277 43.9336 827.277 54.5977C827.277 65.2617 830.793 73.6992 837.766 79.9102C844.738 86.1797 854.172 89.2852 866.125 89.2852C875.559 89.2852 883.527 87.293 890.09 83.1914C896.652 79.1484 901.281 73.4648 903.918 66.0234H881.828Z" fill="white"/>
</svg>
