<?xml version="1.0" encoding="UTF-8"?>
<svg width="32px" height="23px" viewBox="0 0 32 23" version="1.1" xmlns="http://www.w3.org/2000/svg" xmlns:xlink="http://www.w3.org/1999/xlink">
    <title>N Copy 2</title>
    <g id="Page-1" stroke="none" stroke-width="1" fill="none" fill-rule="evenodd">
        <g id="N-Copy-2" transform="translate(0.125000, 0.328125)" fill="#757575" fill-rule="nonzero">
            <path d="M31.75,20.40625 C31.75,21.03125 31.5286458,21.5651042 31.0859375,22.0078125 C30.6432292,22.4505208 30.109375,22.671875 29.484375,22.671875 L24.953125,22.671875 C24.3177083,22.671875 23.78125,22.453125 23.34375,22.015625 L5.859375,4.53125 L4.53125,4.53125 L4.53125,20.40625 C4.53125,21.03125 4.30989583,21.5651042 3.8671875,22.0078125 C3.42447917,22.4505208 2.890625,22.671875 2.265625,22.671875 C1.640625,22.671875 1.10677083,22.4505208 0.6640625,22.0078125 C0.221354167,21.5651042 0,21.03125 0,20.40625 L0,2.265625 C0,1.640625 0.221354167,1.10677083 0.6640625,0.6640625 C1.10677083,0.221354167 1.640625,0 2.265625,0 L6.796875,0 C7.43229167,0 7.96875,0.21875 8.40625,0.65625 L25.890625,18.140625 L27.21875,18.140625 L27.21875,2.265625 C27.21875,1.640625 27.4401042,1.10677083 27.8828125,0.6640625 C28.3255208,0.221354167 28.859375,0 29.484375,0 C30.109375,0 30.6432292,0.221354167 31.0859375,0.6640625 C31.5286458,1.10677083 31.75,1.640625 31.75,2.265625 L31.75,20.40625 Z" id="Path"></path>
        </g>
    </g>
</svg>