<?xml version="1.0" encoding="UTF-8"?>
<svg width="32px" height="23px" viewBox="0 0 32 23" version="1.1" xmlns="http://www.w3.org/2000/svg" xmlns:xlink="http://www.w3.org/1999/xlink">
    <title>D Copy 2</title>
    <g id="Page-1" stroke="none" stroke-width="1" fill="none" fill-rule="evenodd">
        <g id="D-Copy-2" transform="translate(0.125000, 0.312500)" fill="#DEDEDE" fill-rule="nonzero">
            <path d="M19.46875,18.140625 L26.265625,11.34375 L19.46875,4.53125 L4.53125,4.53125 L4.53125,18.140625 L19.46875,18.140625 Z M31.078125,9.734375 C31.5260417,10.1822917 31.75,10.71875 31.75,11.34375 C31.75,11.96875 31.5260417,12.5 31.078125,12.9375 L22,22.015625 C21.5625,22.4635417 21.03125,22.6875 20.40625,22.6875 L2.265625,22.6875 C1.828125,22.6875 1.4375,22.5729167 1.09375,22.34375 C0.364583333,21.875 0,21.2291667 0,20.40625 L0,2.265625 C0,1.640625 0.221354167,1.10677083 0.6640625,0.6640625 C1.10677083,0.221354167 1.640625,0 2.265625,0 L20.40625,0 C21.03125,0 21.5677083,0.223958333 22.015625,0.671875 L31.078125,9.734375 Z" id="Shape"></path>
        </g>
    </g>
</svg>