<?xml version="1.0" encoding="UTF-8"?>
<svg width="70px" height="23px" viewBox="0 0 70 23" version="1.1" xmlns="http://www.w3.org/2000/svg" xmlns:xlink="http://www.w3.org/1999/xlink">
    <title>S+ Copy 2</title>
    <g id="Page-1" stroke="none" stroke-width="1" fill="none" fill-rule="evenodd">
        <g id="S+-Copy-2" transform="translate(0.984375, 0.328125)" fill="#FFD000" fill-rule="nonzero">
            <path d="M31.75,11.328125 L31.75,15.875 C31.75,16.5 31.5260417,17.03125 31.078125,17.46875 L26.546875,22 C26.109375,22.4479167 25.5729167,22.671875 24.9375,22.671875 L2.265625,22.671875 C1.640625,22.671875 1.10677083,22.4505208 0.6640625,22.0078125 C0.221354167,21.5651042 0,21.03125 0,20.40625 C0,19.78125 0.221354167,19.2473958 0.6640625,18.8046875 C1.10677083,18.3619792 1.640625,18.140625 2.265625,18.140625 L24,18.140625 L27.21875,14.921875 L27.21875,13.59375 L2.265625,13.59375 C1.640625,13.59375 1.10677083,13.3723958 0.6640625,12.9296875 C0.221354167,12.4869792 0,11.953125 0,11.328125 L0,6.796875 C0,6.171875 0.223958333,5.63541667 0.671875,5.1875 L5.203125,0.65625 C5.640625,0.21875 6.171875,0 6.796875,0 L29.484375,0 C30.109375,0 30.6432292,0.221354167 31.0859375,0.6640625 C31.5286458,1.10677083 31.75,1.640625 31.75,2.265625 C31.75,2.890625 31.5286458,3.42447917 31.0859375,3.8671875 C30.6432292,4.30989583 30.109375,4.53125 29.484375,4.53125 L7.75,4.53125 L4.53125,7.734375 L4.53125,9.0625 L29.484375,9.0625 C30.109375,9.0625 30.6432292,9.28385417 31.0859375,9.7265625 C31.5286458,10.1692708 31.75,10.703125 31.75,11.328125 Z" id="Path"></path>
            <path d="M65.765625,9.0625 C66.390625,9.0625 66.9244792,9.28385417 67.3671875,9.7265625 C67.8098958,10.1692708 68.03125,10.7083333 68.03125,11.34375 C68.03125,11.96875 67.8098958,12.5026042 67.3671875,12.9453125 C66.9244792,13.3880208 66.390625,13.609375 65.765625,13.609375 L54.421875,13.609375 L54.421875,15.875 C54.421875,16.5 54.2005208,17.0338542 53.7578125,17.4765625 C53.3151042,17.9192708 52.78125,18.140625 52.15625,18.140625 C51.53125,18.140625 50.9973958,17.9192708 50.5546875,17.4765625 C50.1119792,17.0338542 49.890625,16.5 49.890625,15.875 L49.890625,13.609375 L38.546875,13.609375 C37.921875,13.609375 37.3880208,13.3880208 36.9453125,12.9453125 C36.5026042,12.5026042 36.28125,11.96875 36.28125,11.34375 C36.28125,10.7083333 36.5026042,10.1692708 36.9453125,9.7265625 C37.3880208,9.28385417 37.921875,9.0625 38.546875,9.0625 L49.890625,9.0625 L49.890625,6.796875 C49.890625,6.171875 50.1119792,5.63802083 50.5546875,5.1953125 C50.9973958,4.75260417 51.53125,4.53125 52.15625,4.53125 C52.78125,4.53125 53.3151042,4.75260417 53.7578125,5.1953125 C54.2005208,5.63802083 54.421875,6.171875 54.421875,6.796875 L54.421875,9.0625 L65.765625,9.0625 Z" id="Path"></path>
        </g>
    </g>
</svg>