<?xml version="1.0" encoding="UTF-8"?>
<svg width="70px" height="23px" viewBox="0 0 70 23" version="1.1" xmlns="http://www.w3.org/2000/svg" xmlns:xlink="http://www.w3.org/1999/xlink">
    <title>SS Copy 4</title>
    <g id="Page-1" stroke="none" stroke-width="1" fill="none" fill-rule="evenodd">
        <g id="SS-Copy-4" transform="translate(0.984375, 0.328125)" fill="#FF4E31" fill-rule="nonzero">
            <path d="M31.75,11.328125 L31.75,15.875 C31.75,16.5 31.5260417,17.03125 31.078125,17.46875 L26.546875,22 C26.109375,22.4479167 25.5729167,22.671875 24.9375,22.671875 L2.265625,22.671875 C1.640625,22.671875 1.10677083,22.4505208 0.6640625,22.0078125 C0.221354167,21.5651042 0,21.03125 0,20.40625 C0,19.78125 0.221354167,19.2473958 0.6640625,18.8046875 C1.10677083,18.3619792 1.640625,18.140625 2.265625,18.140625 L24,18.140625 L27.21875,14.921875 L27.21875,13.59375 L2.265625,13.59375 C1.640625,13.59375 1.10677083,13.3723958 0.6640625,12.9296875 C0.221354167,12.4869792 0,11.953125 0,11.328125 L0,6.796875 C0,6.171875 0.223958333,5.63541667 0.671875,5.1875 L5.203125,0.65625 C5.640625,0.21875 6.171875,0 6.796875,0 L29.484375,0 C30.109375,0 30.6432292,0.221354167 31.0859375,0.6640625 C31.5286458,1.10677083 31.75,1.640625 31.75,2.265625 C31.75,2.890625 31.5286458,3.42447917 31.0859375,3.8671875 C30.6432292,4.30989583 30.109375,4.53125 29.484375,4.53125 L7.75,4.53125 L4.53125,7.734375 L4.53125,9.0625 L29.484375,9.0625 C30.109375,9.0625 30.6432292,9.28385417 31.0859375,9.7265625 C31.5286458,10.1692708 31.75,10.703125 31.75,11.328125 Z" id="Path"></path>
            <path d="M68.03125,11.328125 L68.03125,15.875 C68.03125,16.5 67.8072917,17.03125 67.359375,17.46875 L62.828125,22 C62.390625,22.4479167 61.8541667,22.671875 61.21875,22.671875 L38.546875,22.671875 C37.921875,22.671875 37.3880208,22.4505208 36.9453125,22.0078125 C36.5026042,21.5651042 36.28125,21.03125 36.28125,20.40625 C36.28125,19.78125 36.5026042,19.2473958 36.9453125,18.8046875 C37.3880208,18.3619792 37.921875,18.140625 38.546875,18.140625 L60.28125,18.140625 L63.5,14.921875 L63.5,13.59375 L38.546875,13.59375 C37.921875,13.59375 37.3880208,13.3723958 36.9453125,12.9296875 C36.5026042,12.4869792 36.28125,11.953125 36.28125,11.328125 L36.28125,6.796875 C36.28125,6.171875 36.5052083,5.63541667 36.953125,5.1875 L41.484375,0.65625 C41.921875,0.21875 42.453125,0 43.078125,0 L65.765625,0 C66.390625,0 66.9244792,0.221354167 67.3671875,0.6640625 C67.8098958,1.10677083 68.03125,1.640625 68.03125,2.265625 C68.03125,2.890625 67.8098958,3.42447917 67.3671875,3.8671875 C66.9244792,4.30989583 66.390625,4.53125 65.765625,4.53125 L44.03125,4.53125 L40.8125,7.734375 L40.8125,9.0625 L65.765625,9.0625 C66.390625,9.0625 66.9244792,9.28385417 67.3671875,9.7265625 C67.8098958,10.1692708 68.03125,10.703125 68.03125,11.328125 Z" id="Path"></path>
        </g>
    </g>
</svg>