<?xml version="1.0" encoding="UTF-8"?>
<svg width="70px" height="23px" viewBox="0 0 70 23" version="1.1" xmlns="http://www.w3.org/2000/svg" xmlns:xlink="http://www.w3.org/1999/xlink">
    <title>D+ Copy 2</title>
    <g id="Page-1" stroke="none" stroke-width="1" fill="none" fill-rule="evenodd">
        <g id="D+-Copy-2" transform="translate(0.984375, 0.312500)" fill="#DEDEDE" fill-rule="nonzero">
            <path d="M19.46875,18.140625 L26.265625,11.34375 L19.46875,4.53125 L4.53125,4.53125 L4.53125,18.140625 L19.46875,18.140625 Z M31.078125,9.734375 C31.5260417,10.1822917 31.75,10.71875 31.75,11.34375 C31.75,11.96875 31.5260417,12.5 31.078125,12.9375 L22,22.015625 C21.5625,22.4635417 21.03125,22.6875 20.40625,22.6875 L2.265625,22.6875 C1.828125,22.6875 1.4375,22.5729167 1.09375,22.34375 C0.364583333,21.875 0,21.2291667 0,20.40625 L0,2.265625 C0,1.640625 0.221354167,1.10677083 0.6640625,0.6640625 C1.10677083,0.221354167 1.640625,0 2.265625,0 L20.40625,0 C21.03125,0 21.5677083,0.223958333 22.015625,0.671875 L31.078125,9.734375 Z" id="Shape"></path>
            <path d="M65.765625,9.078125 C66.390625,9.078125 66.9244792,9.29947917 67.3671875,9.7421875 C67.8098958,10.1848958 68.03125,10.7239583 68.03125,11.359375 C68.03125,11.984375 67.8098958,12.5182292 67.3671875,12.9609375 C66.9244792,13.4036458 66.390625,13.625 65.765625,13.625 L54.421875,13.625 L54.421875,15.890625 C54.421875,16.515625 54.2005208,17.0494792 53.7578125,17.4921875 C53.3151042,17.9348958 52.78125,18.15625 52.15625,18.15625 C51.53125,18.15625 50.9973958,17.9348958 50.5546875,17.4921875 C50.1119792,17.0494792 49.890625,16.515625 49.890625,15.890625 L49.890625,13.625 L38.546875,13.625 C37.921875,13.625 37.3880208,13.4036458 36.9453125,12.9609375 C36.5026042,12.5182292 36.28125,11.984375 36.28125,11.359375 C36.28125,10.7239583 36.5026042,10.1848958 36.9453125,9.7421875 C37.3880208,9.29947917 37.921875,9.078125 38.546875,9.078125 L49.890625,9.078125 L49.890625,6.8125 C49.890625,6.1875 50.1119792,5.65364583 50.5546875,5.2109375 C50.9973958,4.76822917 51.53125,4.546875 52.15625,4.546875 C52.78125,4.546875 53.3151042,4.76822917 53.7578125,5.2109375 C54.2005208,5.65364583 54.421875,6.1875 54.421875,6.8125 L54.421875,9.078125 L65.765625,9.078125 Z" id="Path"></path>
        </g>
    </g>
</svg>