<?xml version="1.0" encoding="UTF-8"?>
<svg width="32px" height="23px" viewBox="0 0 32 23" version="1.1" xmlns="http://www.w3.org/2000/svg" xmlns:xlink="http://www.w3.org/1999/xlink">
    <title>C Copy 3</title>
    <g id="Page-1" stroke="none" stroke-width="1" fill="none" fill-rule="evenodd">
        <g id="C-Copy-3" transform="translate(0.125000, 0.328125)" fill="#00FFD0" fill-rule="nonzero">
            <path d="M29.484375,18.140625 C30.109375,18.140625 30.6432292,18.3619792 31.0859375,18.8046875 C31.5286458,19.2473958 31.75,19.78125 31.75,20.40625 C31.75,21.03125 31.5286458,21.5651042 31.0859375,22.0078125 C30.6432292,22.4505208 30.109375,22.671875 29.484375,22.671875 L6.796875,22.671875 C6.171875,22.671875 5.640625,22.4479167 5.203125,22 L0.671875,17.46875 C0.223958333,17.03125 0,16.5 0,15.875 L0,6.796875 C0,6.171875 0.223958333,5.63541667 0.671875,5.1875 L5.203125,0.65625 C5.640625,0.21875 6.171875,0 6.796875,0 L29.484375,0 C30.109375,0 30.6432292,0.221354167 31.0859375,0.6640625 C31.5286458,1.10677083 31.75,1.640625 31.75,2.265625 C31.75,2.890625 31.5286458,3.42447917 31.0859375,3.8671875 C30.6432292,4.30989583 30.109375,4.53125 29.484375,4.53125 L7.75,4.53125 L4.53125,7.734375 L4.53125,14.921875 L7.75,18.140625 L29.484375,18.140625 Z" id="Path"></path>
        </g>
    </g>
</svg>