<?xml version="1.0" encoding="UTF-8"?>
<svg width="32px" height="23px" viewBox="0 0 32 23" version="1.1" xmlns="http://www.w3.org/2000/svg" xmlns:xlink="http://www.w3.org/1999/xlink">
    <title>B Copy 2</title>
    <g id="Page-1" stroke="none" stroke-width="1" fill="none" fill-rule="evenodd">
        <g id="B-Copy-2" transform="translate(0.125000, 0.312500)" fill="#0027FF" fill-rule="nonzero">
            <path d="M24,18.140625 L26.265625,15.875 L24,13.609375 L4.53125,13.609375 L4.53125,18.140625 L24,18.140625 Z M24,9.078125 L26.265625,6.8125 L24,4.53125 L4.53125,4.53125 L4.53125,9.078125 L24,9.078125 Z M28.140625,11.34375 L31.078125,14.265625 C31.5260417,14.7135417 31.75,15.25 31.75,15.875 C31.75,16.5 31.5260417,17.0364583 31.078125,17.484375 L26.546875,22.015625 C26.0989583,22.4635417 25.5625,22.6875 24.9375,22.6875 L2.265625,22.6875 C1.828125,22.6875 1.4375,22.5729167 1.09375,22.34375 C0.364583333,21.875 0,21.2291667 0,20.40625 L0,2.265625 C0,1.640625 0.221354167,1.10677083 0.6640625,0.6640625 C1.10677083,0.221354167 1.640625,0 2.265625,0 L24.9375,0 C25.5625,0 26.0989583,0.223958333 26.546875,0.671875 L31.078125,5.203125 C31.5260417,5.640625 31.75,6.17708333 31.75,6.8125 C31.75,7.4375 31.5260417,7.96875 31.078125,8.40625 L28.140625,11.34375 Z" id="Shape"></path>
        </g>
    </g>
</svg>