<?xml version="1.0" encoding="UTF-8"?>
<svg width="70px" height="23px" viewBox="0 0 70 23" version="1.1" xmlns="http://www.w3.org/2000/svg" xmlns:xlink="http://www.w3.org/1999/xlink">
    <title>B+ Copy 2</title>
    <g id="Page-1" stroke="none" stroke-width="1" fill="none" fill-rule="evenodd">
        <g id="B+-Copy-2" transform="translate(0.984375, 0.312500)" fill="#0027FF" fill-rule="nonzero">
            <path d="M24,18.140625 L26.265625,15.875 L24,13.609375 L4.53125,13.609375 L4.53125,18.140625 L24,18.140625 Z M24,9.078125 L26.265625,6.8125 L24,4.53125 L4.53125,4.53125 L4.53125,9.078125 L24,9.078125 Z M28.140625,11.34375 L31.078125,14.265625 C31.5260417,14.7135417 31.75,15.25 31.75,15.875 C31.75,16.5 31.5260417,17.0364583 31.078125,17.484375 L26.546875,22.015625 C26.0989583,22.4635417 25.5625,22.6875 24.9375,22.6875 L2.265625,22.6875 C1.828125,22.6875 1.4375,22.5729167 1.09375,22.34375 C0.364583333,21.875 0,21.2291667 0,20.40625 L0,2.265625 C0,1.640625 0.221354167,1.10677083 0.6640625,0.6640625 C1.10677083,0.221354167 1.640625,0 2.265625,0 L24.9375,0 C25.5625,0 26.0989583,0.223958333 26.546875,0.671875 L31.078125,5.203125 C31.5260417,5.640625 31.75,6.17708333 31.75,6.8125 C31.75,7.4375 31.5260417,7.96875 31.078125,8.40625 L28.140625,11.34375 Z" id="Shape"></path>
            <path d="M65.765625,9.078125 C66.390625,9.078125 66.9244792,9.29947917 67.3671875,9.7421875 C67.8098958,10.1848958 68.03125,10.7239583 68.03125,11.359375 C68.03125,11.984375 67.8098958,12.5182292 67.3671875,12.9609375 C66.9244792,13.4036458 66.390625,13.625 65.765625,13.625 L54.421875,13.625 L54.421875,15.890625 C54.421875,16.515625 54.2005208,17.0494792 53.7578125,17.4921875 C53.3151042,17.9348958 52.78125,18.15625 52.15625,18.15625 C51.53125,18.15625 50.9973958,17.9348958 50.5546875,17.4921875 C50.1119792,17.0494792 49.890625,16.515625 49.890625,15.890625 L49.890625,13.625 L38.546875,13.625 C37.921875,13.625 37.3880208,13.4036458 36.9453125,12.9609375 C36.5026042,12.5182292 36.28125,11.984375 36.28125,11.359375 C36.28125,10.7239583 36.5026042,10.1848958 36.9453125,9.7421875 C37.3880208,9.29947917 37.921875,9.078125 38.546875,9.078125 L49.890625,9.078125 L49.890625,6.8125 C49.890625,6.1875 50.1119792,5.65364583 50.5546875,5.2109375 C50.9973958,4.76822917 51.53125,4.546875 52.15625,4.546875 C52.78125,4.546875 53.3151042,4.76822917 53.7578125,5.2109375 C54.2005208,5.65364583 54.421875,6.1875 54.421875,6.8125 L54.421875,9.078125 L65.765625,9.078125 Z" id="Path"></path>
        </g>
    </g>
</svg>