<?xml version="1.0" encoding="UTF-8"?>
<svg width="32px" height="23px" viewBox="0 0 32 23" version="1.1" xmlns="http://www.w3.org/2000/svg" xmlns:xlink="http://www.w3.org/1999/xlink">
    <title>A Copy 3</title>
    <g id="Page-1" stroke="none" stroke-width="1" fill="none" fill-rule="evenodd">
        <g id="A-Copy-3" transform="translate(0.125000, 0.328125)" fill="#A300FF" fill-rule="nonzero">
            <path d="M27.21875,13.609375 L27.21875,8.4375 L15.875,4.65625 L4.546875,8.4375 L4.546875,13.609375 L27.21875,13.609375 Z M31.75,20.40625 C31.75,21.03125 31.5286458,21.5651042 31.0859375,22.0078125 C30.6432292,22.4505208 30.109375,22.671875 29.484375,22.671875 C28.859375,22.671875 28.3255208,22.4505208 27.8828125,22.0078125 C27.4401042,21.5651042 27.21875,21.03125 27.21875,20.40625 L27.21875,18.140625 L4.546875,18.140625 L4.546875,20.40625 C4.546875,21.03125 4.32291667,21.5651042 3.875,22.0078125 C3.42708333,22.4505208 2.890625,22.671875 2.265625,22.671875 C1.640625,22.671875 1.10677083,22.4505208 0.6640625,22.0078125 C0.221354167,21.5651042 0,21.03125 0,20.40625 L0,6.796875 C0,5.796875 0.515625,5.08333333 1.546875,4.65625 L1.578125,4.640625 L1.59375,4.640625 L15.15625,0.109375 C15.3854167,0.0364583333 15.625,0 15.875,0 C16.125,0 16.3645833,0.0364583333 16.59375,0.109375 L30.15625,4.640625 L30.1875,4.640625 L30.203125,4.65625 C31.234375,5.08333333 31.75,5.796875 31.75,6.796875 L31.75,20.40625 Z" id="Shape"></path>
        </g>
    </g>
</svg>