<?xml version="1.0" encoding="UTF-8"?>
<svg width="70px" height="23px" viewBox="0 0 70 23" version="1.1" xmlns="http://www.w3.org/2000/svg" xmlns:xlink="http://www.w3.org/1999/xlink">
    <title>A+ Copy 2</title>
    <g id="Page-1" stroke="none" stroke-width="1" fill="none" fill-rule="evenodd">
        <g id="A+-Copy-2" transform="translate(0.984375, 0.328125)" fill="#A300FF" fill-rule="nonzero">
            <path d="M27.21875,13.609375 L27.21875,8.4375 L15.875,4.65625 L4.546875,8.4375 L4.546875,13.609375 L27.21875,13.609375 Z M31.75,20.40625 C31.75,21.03125 31.5286458,21.5651042 31.0859375,22.0078125 C30.6432292,22.4505208 30.109375,22.671875 29.484375,22.671875 C28.859375,22.671875 28.3255208,22.4505208 27.8828125,22.0078125 C27.4401042,21.5651042 27.21875,21.03125 27.21875,20.40625 L27.21875,18.140625 L4.546875,18.140625 L4.546875,20.40625 C4.546875,21.03125 4.32291667,21.5651042 3.875,22.0078125 C3.42708333,22.4505208 2.890625,22.671875 2.265625,22.671875 C1.640625,22.671875 1.10677083,22.4505208 0.6640625,22.0078125 C0.221354167,21.5651042 0,21.03125 0,20.40625 L0,6.796875 C0,5.796875 0.515625,5.08333333 1.546875,4.65625 L1.578125,4.640625 L1.59375,4.640625 L15.15625,0.109375 C15.3854167,0.0364583333 15.625,0 15.875,0 C16.125,0 16.3645833,0.0364583333 16.59375,0.109375 L30.15625,4.640625 L30.1875,4.640625 L30.203125,4.65625 C31.234375,5.08333333 31.75,5.796875 31.75,6.796875 L31.75,20.40625 Z" id="Shape"></path>
            <path d="M65.765625,9.0625 C66.390625,9.0625 66.9244792,9.28385417 67.3671875,9.7265625 C67.8098958,10.1692708 68.03125,10.7083333 68.03125,11.34375 C68.03125,11.96875 67.8098958,12.5026042 67.3671875,12.9453125 C66.9244792,13.3880208 66.390625,13.609375 65.765625,13.609375 L54.421875,13.609375 L54.421875,15.875 C54.421875,16.5 54.2005208,17.0338542 53.7578125,17.4765625 C53.3151042,17.9192708 52.78125,18.140625 52.15625,18.140625 C51.53125,18.140625 50.9973958,17.9192708 50.5546875,17.4765625 C50.1119792,17.0338542 49.890625,16.5 49.890625,15.875 L49.890625,13.609375 L38.546875,13.609375 C37.921875,13.609375 37.3880208,13.3880208 36.9453125,12.9453125 C36.5026042,12.5026042 36.28125,11.96875 36.28125,11.34375 C36.28125,10.7083333 36.5026042,10.1692708 36.9453125,9.7265625 C37.3880208,9.28385417 37.921875,9.0625 38.546875,9.0625 L49.890625,9.0625 L49.890625,6.796875 C49.890625,6.171875 50.1119792,5.63802083 50.5546875,5.1953125 C50.9973958,4.75260417 51.53125,4.53125 52.15625,4.53125 C52.78125,4.53125 53.3151042,4.75260417 53.7578125,5.1953125 C54.2005208,5.63802083 54.421875,6.171875 54.421875,6.796875 L54.421875,9.0625 L65.765625,9.0625 Z" id="Path"></path>
        </g>
    </g>
</svg>