<?xml version="1.0" encoding="UTF-8"?>
<svg width="32px" height="23px" viewBox="0 0 32 23" version="1.1" xmlns="http://www.w3.org/2000/svg" xmlns:xlink="http://www.w3.org/1999/xlink">
    <title>S Copy 7</title>
    <g id="Page-1" stroke="none" stroke-width="1" fill="none" fill-rule="evenodd">
        <g id="S-Copy-7" transform="translate(0.125000, 0.328125)" fill="#FFD000" fill-rule="nonzero">
            <path d="M31.75,11.328125 L31.75,15.875 C31.75,16.5 31.5260417,17.03125 31.078125,17.46875 L26.546875,22 C26.109375,22.4479167 25.5729167,22.671875 24.9375,22.671875 L2.265625,22.671875 C1.640625,22.671875 1.10677083,22.4505208 0.6640625,22.0078125 C0.221354167,21.5651042 0,21.03125 0,20.40625 C0,19.78125 0.221354167,19.2473958 0.6640625,18.8046875 C1.10677083,18.3619792 1.640625,18.140625 2.265625,18.140625 L24,18.140625 L27.21875,14.921875 L27.21875,13.59375 L2.265625,13.59375 C1.640625,13.59375 1.10677083,13.3723958 0.6640625,12.9296875 C0.221354167,12.4869792 0,11.953125 0,11.328125 L0,6.796875 C0,6.171875 0.223958333,5.63541667 0.671875,5.1875 L5.203125,0.65625 C5.640625,0.21875 6.171875,0 6.796875,0 L29.484375,0 C30.109375,0 30.6432292,0.221354167 31.0859375,0.6640625 C31.5286458,1.10677083 31.75,1.640625 31.75,2.265625 C31.75,2.890625 31.5286458,3.42447917 31.0859375,3.8671875 C30.6432292,4.30989583 30.109375,4.53125 29.484375,4.53125 L7.75,4.53125 L4.53125,7.734375 L4.53125,9.0625 L29.484375,9.0625 C30.109375,9.0625 30.6432292,9.28385417 31.0859375,9.7265625 C31.5286458,10.1692708 31.75,10.703125 31.75,11.328125 Z" id="Path"></path>
        </g>
    </g>
</svg>