<svg width="40" height="40" viewBox="0 0 40 40" fill="none" xmlns="http://www.w3.org/2000/svg">
<mask id="mask0_21_22" style="mask-type:luminance" maskUnits="userSpaceOnUse" x="5" y="9" width="30" height="22">
<path fill-rule="evenodd" clip-rule="evenodd" d="M5 9H35V30.3158H5V9Z" fill="white"/>
</mask>
<g mask="url(#mask0_21_22)">
<path fill-rule="evenodd" clip-rule="evenodd" d="M24.5719 24.0988C23.1336 24.0988 21.9521 22.83 21.9521 21.2821C21.9521 19.7342 23.1079 18.4655 24.5719 18.4655C26.036 18.4655 27.1918 19.7342 27.1918 21.2821C27.1918 22.83 26.036 24.0988 24.5719 24.0988M15.1969 24.0988C13.7586 24.0988 12.577 22.83 12.577 21.2821C12.577 19.7342 13.7329 18.4655 15.1969 18.4655C16.661 18.4655 17.8425 19.7342 17.8168 21.2821C17.8168 22.83 16.661 24.0988 15.1969 24.0988M31.3014 11.6649C27.6027 8.92433 24.0839 9.00046 24.0839 9.00046L23.7243 9.40646C28.0908 10.726 30.1199 12.6291 30.1199 12.6291C27.4486 11.1827 24.8288 10.4722 22.3887 10.1931C20.5394 9.9901 18.7671 10.0408 17.2003 10.2439L16.7637 10.2946C15.8647 10.3707 13.6815 10.7006 10.9332 11.8933L9.41781 12.6291C9.41781 12.6291 11.5497 10.6245 16.1729 9.30496L15.9161 9.00046C15.9161 9.00046 12.3973 8.92433 8.69863 11.6649C8.69863 11.6649 5 18.2879 5 26.4588C5 26.4588 7.15753 30.1382 12.8339 30.3158L14.5548 28.2097C11.2928 27.2454 10.0599 25.2154 10.0599 25.2154L10.7791 25.6467L10.8818 25.7229L10.9846 25.78L11.0135 25.7927L11.113 25.8497C11.7551 26.205 12.3973 26.4841 12.988 26.7125C14.0411 27.1185 15.2997 27.5245 16.7637 27.8037C18.6901 28.1589 20.9503 28.2858 23.4161 27.829C24.6233 27.626 25.8562 27.2708 27.1404 26.7379C28.0394 26.408 29.0411 25.9259 30.0942 25.2407C30.0942 25.2407 28.8099 27.3215 25.4452 28.2604L27.1404 30.3158C32.8168 30.1382 35 26.4588 35 26.4588C35 18.2879 31.3014 11.6649 31.3014 11.6649" fill="#73ABFF"/>
</g>
</svg>
