<svg width="40" height="40" viewBox="0 0 40 40" fill="none" xmlns="http://www.w3.org/2000/svg">
<mask id="mask0_24_57" style="mask-type:luminance" maskUnits="userSpaceOnUse" x="7" y="7" width="26" height="26">
<path fill-rule="evenodd" clip-rule="evenodd" d="M7 7H32.9593V33H7V7Z" fill="white"/>
</mask>
<g mask="url(#mask0_24_57)">
<path fill-rule="evenodd" clip-rule="evenodd" d="M23.2252 12.1686C23.2252 12.1686 23.0813 13.5053 21.1269 13.5053H18.6867C16.7323 13.5053 16.7359 12.1686 16.7359 12.1686V7H6.99994V33H16.7359V27.84C16.7359 27.84 16.7323 26.5035 18.6867 26.5035H21.1024C23.0447 26.5035 23.2008 27.8228 23.2008 27.8393V33H32.9593V26.5077H25.199C23.2567 26.5077 23.2482 25.1884 23.2481 25.172L23.2009 23.2468H18.6867C16.7323 23.2468 16.7359 21.9103 16.7359 21.9103V18.0891C16.7359 18.0891 16.7323 16.7526 18.6867 16.7526H23.2252V14.8418C23.2252 14.8418 23.2216 13.5053 25.1761 13.5053H32.9593V7H23.2252V12.1686Z" fill="white"/>
</g>
</svg>
