<svg width="40" height="40" viewBox="0 0 40 40" fill="none" xmlns="http://www.w3.org/2000/svg">
<mask id="mask0_21_19" style="mask-type:luminance" maskUnits="userSpaceOnUse" x="6" y="7" width="27" height="26">
<path fill-rule="evenodd" clip-rule="evenodd" d="M6.99689 7H32.9562V33H6.99689V7Z" fill="white"/>
</mask>
<g mask="url(#mask0_21_19)">
<path fill-rule="evenodd" clip-rule="evenodd" d="M23.2221 12.1686C23.2221 12.1686 23.0782 13.5053 21.1238 13.5053H18.6836C16.7292 13.5053 16.7328 12.1686 16.7328 12.1686V7H6.99683V33H16.7328V27.84C16.7328 27.84 16.7292 26.5035 18.6836 26.5035H21.0993C23.0416 26.5035 23.1977 27.8228 23.1977 27.8393V33H32.9562V26.5077H25.1959C23.2536 26.5077 23.245 25.1884 23.245 25.172L23.1978 23.2468H18.6836C16.7292 23.2468 16.7328 21.9103 16.7328 21.9103V18.0891C16.7328 18.0891 16.7292 16.7526 18.6836 16.7526H23.2221V14.8418C23.2221 14.8418 23.2185 13.5053 25.173 13.5053H32.9562V7H23.2221V12.1686Z" fill="#73ABFF"/>
</g>
</svg>
