<svg width="40" height="40" viewBox="0 0 40 40" fill="none" xmlns="http://www.w3.org/2000/svg">
<path d="M18.0164 18.7836C17.6311 19.4315 11.6205 19.5404 8.3414 17.7027C5.06232 15.865 6.65543 10.2461 9.98139 8.77066C13.3073 7.29522 18.4017 18.1358 18.0164 18.7836Z" fill="white"/>
<path d="M17.9709 21.0324C18.3562 21.6802 15.4481 26.7873 12.169 28.625C8.88992 30.4627 4.67344 26.3141 5.02006 22.7805C5.36668 19.2468 17.5856 20.3845 17.9709 21.0324Z" fill="white"/>
<path d="M19.9545 22.1949C20.7252 22.1949 23.8275 27.1932 23.8275 30.8686C23.8275 34.5439 18.0179 36.0142 15.0386 33.9559C12.0593 31.8978 19.1838 22.1949 19.9545 22.1949Z" fill="white"/>
<path d="M21.9835 21.1092C22.3689 20.4612 28.3795 20.3524 31.6585 22.1901C34.9376 24.0278 33.3446 29.6466 30.0186 31.122C26.6925 32.5975 21.5982 21.7569 21.9835 21.1092Z" fill="white"/>
<path d="M22.029 18.8599C21.6437 18.212 24.5518 13.1049 27.8309 11.2672C31.1101 9.42949 35.3265 13.5782 34.9799 17.1118C34.6333 20.6454 22.4144 19.5078 22.029 18.8599Z" fill="white"/>
<path d="M20.0454 17.6973C19.2747 17.6973 16.1724 12.699 16.1724 9.02368C16.1724 5.34831 21.9819 3.8781 24.9612 5.93631C27.9406 7.99452 20.816 17.6974 20.0454 17.6973Z" fill="white"/>
</svg>
