<svg width="40" height="40" viewBox="0 0 40 40" fill="none" xmlns="http://www.w3.org/2000/svg">
<mask id="mask0_24_46" style="mask-type:luminance" maskUnits="userSpaceOnUse" x="5" y="8" width="30" height="25">
<path fill-rule="evenodd" clip-rule="evenodd" d="M5 8H35V32.4737H5V8Z" fill="white"/>
</mask>
<g mask="url(#mask0_24_46)">
<path fill-rule="evenodd" clip-rule="evenodd" d="M31.9287 14.0927C31.947 14.3582 31.947 14.6237 31.947 14.8917C31.947 23.0568 25.7556 32.4737 14.4345 32.4737V32.4688C11.0902 32.4737 7.81536 31.5119 5 29.6985C5.48629 29.7573 5.97502 29.7866 6.46496 29.7879C9.23644 29.7903 11.9287 28.8567 14.1091 27.1375C11.4753 27.0874 9.16575 25.3633 8.35893 22.8463C9.28154 23.025 10.2322 22.9883 11.1377 22.7399C8.2663 22.1575 6.20049 19.6246 6.20049 16.683V16.6047C7.05606 17.0832 8.01402 17.3487 8.99391 17.378C6.28946 15.5634 5.45582 11.9513 7.08897 9.12726C10.2139 12.9877 14.8245 15.3346 19.7739 15.583C19.2779 13.4368 19.9555 11.1878 21.5545 9.67911C24.0335 7.33957 27.9324 7.45949 30.2626 9.94708C31.6411 9.67422 32.9622 9.16642 34.1712 8.44694C33.7118 9.87733 32.7502 11.0924 31.4656 11.8645C32.6856 11.7201 33.8775 11.3922 35 10.8917C34.1737 12.1349 33.1328 13.2178 31.9287 14.0927" fill="white"/>
</g>
</svg>
