<?xml version="1.0" encoding="UTF-8"?>
<!DOCTYPE svg PUBLIC "-//W3C//DTD SVG 1.1//EN" "http://www.w3.org/Graphics/SVG/1.1/DTD/svg11.dtd">
<svg xmlns="http://www.w3.org/2000/svg" version="1.1" width="56px" height="56px" style="shape-rendering:geometricPrecision; text-rendering:geometricPrecision; image-rendering:optimizeQuality; fill-rule:evenodd; clip-rule:evenodd" xmlns:xlink="http://www.w3.org/1999/xlink">
<g><path style="opacity:0.839" fill="#28292d" d="M 18.5,9.5 C 19.5,9.5 20.5,9.5 21.5,9.5C 21.7307,12.7845 20.3974,15.2845 17.5,17C 23.4908,17.4995 29.4908,17.6662 35.5,17.5C 35.67,18.8221 35.3366,19.9887 34.5,21C 28.8333,21.3333 23.1667,21.6667 17.5,22C 20.3974,23.7155 21.7307,26.2155 21.5,29.5C 20.448,29.6495 19.448,29.4828 18.5,29C 15.2321,25.9039 12.2321,22.7372 9.5,19.5C 11.8088,15.5256 14.8088,12.1923 18.5,9.5 Z"/></g>
<g><path style="opacity:0.838" fill="#28292d" d="M 33.5,25.5 C 34.552,25.3505 35.552,25.5172 36.5,26C 39.7679,29.0961 42.7679,32.2628 45.5,35.5C 44.7814,37.7277 43.448,39.561 41.5,41C 39.5448,41.9533 37.8782,43.2866 36.5,45C 35.552,45.4828 34.552,45.6495 33.5,45.5C 33.2693,42.2155 34.6026,39.7155 37.5,38C 31.5092,37.5005 25.5092,37.3338 19.5,37.5C 19.33,36.1779 19.6634,35.0113 20.5,34C 26.1667,33.6667 31.8333,33.3333 37.5,33C 34.6026,31.2845 33.2693,28.7845 33.5,25.5 Z"/></g>
</svg>
