<?xml version="1.0" encoding="UTF-8"?>
<!DOCTYPE svg PUBLIC "-//W3C//DTD SVG 1.1//EN" "http://www.w3.org/Graphics/SVG/1.1/DTD/svg11.dtd">
<svg xmlns="http://www.w3.org/2000/svg" version="1.1" width="56px" height="56px" style="shape-rendering:geometricPrecision; text-rendering:geometricPrecision; image-rendering:optimizeQuality; fill-rule:evenodd; clip-rule:evenodd" xmlns:xlink="http://www.w3.org/1999/xlink">
<g><path style="opacity:0.829" fill="#28292d" d="M 8.5,8.5 C 17.1731,8.33358 25.8397,8.50025 34.5,9C 36.2785,11.1354 36.9452,13.6354 36.5,16.5C 39.8499,16.335 43.1832,16.5017 46.5,17C 47,17.5 47.5,18 48,18.5C 48.6667,24.5 48.6667,30.5 48,36.5C 46.2111,38.229 44.0444,38.8957 41.5,38.5C 41.6633,40.8568 41.4966,43.1902 41,45.5C 40.4387,46.0219 39.772,46.3552 39,46.5C 35.8815,44.3851 33.0482,41.8851 30.5,39C 24.7528,38.1228 19.0861,37.9561 13.5,38.5C 13.5,35.8333 13.5,33.1667 13.5,30.5C 10.9556,30.8957 8.7889,30.229 7,28.5C 6.33333,22.5 6.33333,16.5 7,10.5C 7.71719,9.9558 8.21719,9.28913 8.5,8.5 Z M 10.5,12.5 C 17.8333,12.5 25.1667,12.5 32.5,12.5C 32.5,17.1667 32.5,21.8333 32.5,26.5C 26.5243,25.2238 21.6909,26.8905 18,31.5C 17.6177,26.9754 15.1177,25.3087 10.5,26.5C 10.5,21.8333 10.5,17.1667 10.5,12.5 Z M 36.5,20.5 C 39.1667,20.5 41.8333,20.5 44.5,20.5C 44.5,25.1667 44.5,29.8333 44.5,34.5C 42.1667,34.5 39.8333,34.5 37.5,34.5C 37.6602,36.1992 37.4935,37.8659 37,39.5C 32.9353,35.0066 27.7686,33.1733 21.5,34C 22.5,33 23.5,32 24.5,31C 33.7964,33.1942 37.7964,29.6942 36.5,20.5 Z"/></g>
</svg>
