<?xml version="1.0" encoding="UTF-8"?>
<!DOCTYPE svg PUBLIC "-//W3C//DTD SVG 1.1//EN" "http://www.w3.org/Graphics/SVG/1.1/DTD/svg11.dtd">
<svg xmlns="http://www.w3.org/2000/svg" version="1.1" width="56px" height="56px" style="shape-rendering:geometricPrecision; text-rendering:geometricPrecision; image-rendering:optimizeQuality; fill-rule:evenodd; clip-rule:evenodd" xmlns:xlink="http://www.w3.org/1999/xlink">
<g><path style="opacity:0.842" fill="#28292d" d="M 33.5,9.5 C 34.552,9.35055 35.552,9.51722 36.5,10C 37.8782,11.7134 39.5448,13.0467 41.5,14C 44.5797,15.7106 45.7464,18.2106 45,21.5C 41.8699,23.628 39.0366,26.128 36.5,29C 35.552,29.4828 34.552,29.6495 33.5,29.5C 33.2693,26.2155 34.6026,23.7155 37.5,22C 31.8333,21.6667 26.1667,21.3333 20.5,21C 19.6634,19.9887 19.33,18.8221 19.5,17.5C 25.5092,17.6662 31.5092,17.4995 37.5,17C 34.6026,15.2845 33.2693,12.7845 33.5,9.5 Z"/></g>
<g><path style="opacity:0.831" fill="#28292d" d="M 18.5,25.5 C 19.5,25.5 20.5,25.5 21.5,25.5C 21.7307,28.7845 20.3974,31.2845 17.5,33C 23.1667,33.3333 28.8333,33.6667 34.5,34C 35.3366,35.0113 35.67,36.1779 35.5,37.5C 29.4908,37.3338 23.4908,37.5005 17.5,38C 20.3974,39.7155 21.7307,42.2155 21.5,45.5C 20.448,45.6495 19.448,45.4828 18.5,45C 17.1218,43.2866 15.4552,41.9533 13.5,41C 11.552,39.561 10.2186,37.7277 9.5,35.5C 12.4348,32.2254 15.4348,28.892 18.5,25.5 Z"/></g>
</svg>
