<?xml version="1.0" encoding="UTF-8"?>
<!DOCTYPE svg PUBLIC "-//W3C//DTD SVG 1.1//EN" "http://www.w3.org/Graphics/SVG/1.1/DTD/svg11.dtd">
<svg xmlns="http://www.w3.org/2000/svg" version="1.1" width="56px" height="56px" style="shape-rendering:geometricPrecision; text-rendering:geometricPrecision; image-rendering:optimizeQuality; fill-rule:evenodd; clip-rule:evenodd" xmlns:xlink="http://www.w3.org/1999/xlink">
<g><path style="opacity:0.839" fill="#28292d" d="M 24.5,7.5 C 29.5111,7.33407 34.5111,7.50074 39.5,8C 40.3333,8.83333 41.1667,9.66667 42,10.5C 42.6667,21.5 42.6667,32.5 42,43.5C 41.0975,44.7014 39.9308,45.5348 38.5,46C 30.8333,46.6667 23.1667,46.6667 15.5,46C 14.0692,45.5348 12.9025,44.7014 12,43.5C 11.3333,35.8333 11.3333,28.1667 12,20.5C 15.6972,15.6377 19.8639,11.3043 24.5,7.5 Z M 28.5,11.5 C 32.0071,10.9935 35.1737,11.6602 38,13.5C 38.6667,22.5 38.6667,31.5 38,40.5C 30.9138,41.6456 23.7471,41.8123 16.5,41C 15.5286,35.9283 15.1953,30.7616 15.5,25.5C 19.5705,25.7662 23.5705,25.4328 27.5,24.5C 28.4922,20.2172 28.8256,15.8839 28.5,11.5 Z M 23.5,14.5 C 24.4682,16.6074 24.8016,18.9407 24.5,21.5C 22.1432,21.6633 19.8098,21.4966 17.5,21C 19.7059,18.9633 21.7059,16.7966 23.5,14.5 Z"/></g>
<g><path style="opacity:0.668" fill="#28292d" d="M 26.5,27.5 C 28.2132,28.6354 28.8799,30.302 28.5,32.5C 33.6294,33.6144 33.6294,34.281 28.5,34.5C 28.8841,36.6648 28.2174,38.3315 26.5,39.5C 25.5481,37.9547 25.2148,36.288 25.5,34.5C 18.8333,33.8333 18.8333,33.1667 25.5,32.5C 25.366,30.7085 25.6993,29.0418 26.5,27.5 Z"/></g>
</svg>
