<svg width="28" height="28" viewBox="0 0 28 28" fill="none" xmlns="http://www.w3.org/2000/svg">
<mask id="mask0_28_57248" style="mask-type:luminance" maskUnits="userSpaceOnUse" x="0" y="0" width="28" height="28">
<rect width="28" height="28" fill="white"/>
</mask>
<g mask="url(#mask0_28_57248)">
<path fill-rule="evenodd" clip-rule="evenodd" d="M19.0251 23.1313C20.9295 23.1313 21.9127 22.1473 21.9127 20.2665V12.3599C21.9127 11.1408 21.7533 10.5835 20.9827 9.80852L16.3501 5.18473C15.5972 4.43587 14.9772 4.26172 13.8611 4.26172H9.5829C7.68737 4.26172 6.69531 5.24569 6.69531 7.13526V20.2665C6.69531 22.1473 7.68737 23.1313 9.5829 23.1313H19.0251ZM8.45798 20.1533V7.23975C8.45798 6.44735 8.88314 6.00326 9.74233 6.00326H13.498V10.7402C13.498 12.0029 14.1269 12.6124 15.4024 12.6124H20.15V20.1533C20.15 20.9544 19.7249 21.3897 18.8657 21.3897H9.73348C8.88314 21.3897 8.45798 20.9544 8.45798 20.1533ZM15.0392 10.5748V6.22966L19.9109 11.0885H15.5706C15.1986 11.0885 15.0392 10.9318 15.0392 10.5748Z" fill="white"/>
<path d="M11.9296 17.1123C11.9296 16.8842 12.1048 16.7075 12.3478 16.7075H16.7493C16.9809 16.7075 17.1617 16.8842 17.1617 17.1123C17.1617 17.3403 16.9809 17.517 16.7493 17.517H12.3478C12.1048 17.517 11.9296 17.3403 11.9296 17.1123Z" fill="white"/>
<path d="M14.3281 14.457C14.5541 14.457 14.7293 14.6338 14.7293 14.8789V19.3201C14.7293 19.5539 14.5541 19.7363 14.3281 19.7363C14.1021 19.7363 13.927 19.5539 13.927 19.3201V14.8789C13.927 14.6338 14.1021 14.457 14.3281 14.457Z" fill="white"/>
</g>
</svg>
