<svg width="28" height="28" viewBox="0 0 28 28" fill="none" xmlns="http://www.w3.org/2000/svg">
<mask id="mask0_28_57240" style="mask-type:luminance" maskUnits="userSpaceOnUse" x="0" y="0" width="28" height="28">
<rect width="28" height="28" transform="matrix(-1 0 0 1 28 0)" fill="white"/>
</mask>
<g mask="url(#mask0_28_57240)">
<path fill-rule="evenodd" clip-rule="evenodd" d="M8.97488 23.1313C7.07049 23.1313 6.0873 22.1473 6.0873 20.2665V12.3599C6.0873 11.1408 6.24673 10.5835 7.01735 9.80852L11.6499 5.18473C12.4028 4.43587 13.0228 4.26172 14.1389 4.26172H18.4171C20.3126 4.26172 21.3047 5.24569 21.3047 7.13526V20.2665C21.3047 22.1473 20.3126 23.1313 18.4171 23.1313H8.97488ZM19.542 20.1533V7.23975C19.542 6.44735 19.1169 6.00326 18.2577 6.00326H14.502V10.7402C14.502 12.0029 13.8731 12.6124 12.5976 12.6124H7.84996V20.1533C7.84996 20.9544 8.27513 21.3897 9.13432 21.3897H18.2665C19.1169 21.3897 19.542 20.9544 19.542 20.1533ZM12.9608 10.5748V6.22966L8.08912 11.0885H12.4294C12.8014 11.0885 12.9608 10.9318 12.9608 10.5748Z" fill="white"/>
<path d="M16.0704 17.1123C16.0704 16.8842 15.8952 16.7075 15.6522 16.7075H11.2507C11.0191 16.7075 10.8383 16.8842 10.8383 17.1123C10.8383 17.3403 11.0191 17.517 11.2507 17.517H15.6522C15.8952 17.517 16.0704 17.3403 16.0704 17.1123Z" fill="white"/>
<path d="M13.6719 14.457C13.4459 14.457 13.2707 14.6338 13.2707 14.8789V19.3201C13.2707 19.5539 13.4459 19.7363 13.6719 19.7363C13.8979 19.7363 14.073 19.5539 14.073 19.3201V14.8789C14.073 14.6338 13.8979 14.457 13.6719 14.457Z" fill="white"/>
</g>
</svg>
