<svg width="28" height="28" viewBox="0 0 28 28" fill="none" xmlns="http://www.w3.org/2000/svg">
<path fill-rule="evenodd" clip-rule="evenodd" d="M19.8185 23C19.6962 23 19.5759 22.9532 19.4864 22.8652L15.6936 19.1418H11.5133C10.9934 19.1418 10.5047 18.9443 10.1371 18.5859C9.9543 18.4074 9.9543 18.1186 10.1371 17.9403C10.3199 17.7622 10.6162 17.7622 10.799 17.9403C10.9898 18.1265 11.2435 18.229 11.5133 18.229H15.8884C16.013 18.229 16.1326 18.2775 16.2203 18.3638L19.3503 21.4365V18.6854C19.3503 18.4333 19.56 18.229 19.8183 18.229H22.0537C22.6109 18.229 23.064 17.7869 23.064 17.2437V10.898C23.064 10.3548 22.6109 9.91286 22.0537 9.91286H19.3766C19.1183 9.91286 18.9087 9.70839 18.9087 9.45643C18.9087 9.20429 19.1183 9 19.3766 9H22.0537C23.1269 9 24 9.8514 24 10.898V17.2437C24 18.2903 23.1269 19.1418 22.0537 19.1418H20.2863V22.5436C20.2863 22.7285 20.1721 22.8951 19.9968 22.9656C19.9392 22.9888 19.8785 23 19.8185 23" fill="white"/>
<path d="M19.8185 23C19.6962 23 19.5759 22.9532 19.4864 22.8652L15.6936 19.1418H11.5133C10.9934 19.1418 10.5047 18.9443 10.1371 18.5859C9.9543 18.4074 9.9543 18.1186 10.1371 17.9403C10.3199 17.7622 10.6162 17.7622 10.799 17.9403C10.9898 18.1265 11.2435 18.229 11.5133 18.229H15.8884C16.013 18.229 16.1326 18.2775 16.2203 18.3638L19.3503 21.4365V18.6854C19.3503 18.4333 19.56 18.229 19.8183 18.229H22.0537C22.6109 18.229 23.064 17.7869 23.064 17.2437V10.898C23.064 10.3548 22.6109 9.91286 22.0537 9.91286H19.3766C19.1183 9.91286 18.9087 9.70839 18.9087 9.45643C18.9087 9.20429 19.1183 9 19.3766 9H22.0537C23.1269 9 24 9.8514 24 10.898V17.2437C24 18.2903 23.1269 19.1418 22.0537 19.1418H20.2863V22.5436C20.2863 22.7285 20.1721 22.8951 19.9968 22.9656C19.9392 22.9888 19.8785 23 19.8185 23" stroke="#1A1A1A" stroke-width="0.25"/>
<path fill-rule="evenodd" clip-rule="evenodd" d="M5.88789 5.91286C5.34745 5.91286 4.90791 6.35479 4.90791 6.89818V13.2437C4.90791 13.787 5.34745 14.229 5.88789 14.229H8.05607C8.30684 14.229 8.51002 14.4334 8.51002 14.6854V17.4365L11.5462 14.3638C11.6314 14.2775 11.7474 14.229 11.8683 14.229H16.1121C16.6526 14.229 17.0921 13.787 17.0921 13.2437V6.89818C17.0921 6.35479 16.6526 5.91286 16.1121 5.91286H5.88789ZM8.05607 19C7.99772 19 7.93919 18.9888 7.8831 18.9656C7.71308 18.8951 7.60229 18.7285 7.60229 18.5436V15.1418H5.88789C4.84695 15.1418 4 14.2903 4 13.2437V6.89818C4 5.8514 4.84695 5 5.88789 5H16.1121C17.153 5 18 5.8514 18 6.89818V13.2437C18 14.2903 17.153 15.1418 16.1121 15.1418H12.0573L8.37821 18.8654C8.29121 18.9532 8.17468 19 8.05607 19V19Z" fill="white"/>
<path d="M8.51002 17.4365H8.38502V17.7409L8.59894 17.5244L8.51002 17.4365ZM11.5462 14.3638L11.4573 14.2759L11.4573 14.2759L11.5462 14.3638ZM7.8831 18.9656L7.8352 19.0811L7.83528 19.0811L7.8831 18.9656ZM7.60229 15.1418H7.72729V15.0168H7.60229V15.1418ZM12.0573 15.1418V15.0168H12.005L11.9683 15.054L12.0573 15.1418ZM8.37821 18.8654L8.46702 18.9533L8.46713 18.9532L8.37821 18.8654ZM5.88789 5.78786C5.27777 5.78786 4.78291 6.2864 4.78291 6.89818H5.03291C5.03291 6.42319 5.41712 6.03786 5.88789 6.03786V5.78786ZM4.78291 6.89818V13.2437H5.03291V6.89818H4.78291ZM4.78291 13.2437C4.78291 13.8554 5.27777 14.354 5.88789 14.354V14.104C5.41712 14.104 5.03291 13.7186 5.03291 13.2437H4.78291ZM5.88789 14.354H8.05607V14.104H5.88789V14.354ZM8.05607 14.354C8.23713 14.354 8.38502 14.5018 8.38502 14.6854H8.63502C8.63502 14.3651 8.37654 14.104 8.05607 14.104V14.354ZM8.38502 14.6854V17.4365H8.63502V14.6854H8.38502ZM8.59894 17.5244L11.6351 14.4516L11.4573 14.2759L8.42111 17.3487L8.59894 17.5244ZM11.6351 14.4517C11.6969 14.3891 11.781 14.354 11.8683 14.354V14.104C11.7139 14.104 11.5659 14.166 11.4573 14.2759L11.6351 14.4517ZM11.8683 14.354H16.1121V14.104H11.8683V14.354ZM16.1121 14.354C16.7222 14.354 17.2171 13.8554 17.2171 13.2437H16.9671C16.9671 13.7186 16.5829 14.104 16.1121 14.104V14.354ZM17.2171 13.2437V6.89818H16.9671V13.2437H17.2171ZM17.2171 6.89818C17.2171 6.2864 16.7222 5.78786 16.1121 5.78786V6.03786C16.5829 6.03786 16.9671 6.42319 16.9671 6.89818H17.2171ZM16.1121 5.78786H5.88789V6.03786H16.1121V5.78786ZM8.05607 18.875C8.0138 18.875 7.97155 18.8669 7.93092 18.8501L7.83528 19.0811C7.90683 19.1107 7.98163 19.125 8.05607 19.125V18.875ZM7.931 18.8501C7.80797 18.7991 7.72729 18.6783 7.72729 18.5436H7.47729C7.47729 18.7787 7.6182 18.991 7.8352 19.0811L7.931 18.8501ZM7.72729 18.5436V15.1418H7.47729V18.5436H7.72729ZM7.60229 15.0168H5.88789V15.2668H7.60229V15.0168ZM5.88789 15.0168C4.91663 15.0168 4.125 14.2219 4.125 13.2437H3.875C3.875 14.3587 4.77728 15.2668 5.88789 15.2668V15.0168ZM4.125 13.2437V6.89818H3.875V13.2437H4.125ZM4.125 6.89818C4.125 5.9198 4.91662 5.125 5.88789 5.125V4.875C4.77729 4.875 3.875 5.78299 3.875 6.89818H4.125ZM5.88789 5.125H16.1121V4.875H5.88789V5.125ZM16.1121 5.125C17.0834 5.125 17.875 5.9198 17.875 6.89818H18.125C18.125 5.78299 17.2227 4.875 16.1121 4.875V5.125ZM17.875 6.89818V13.2437H18.125V6.89818H17.875ZM17.875 13.2437C17.875 14.2219 17.0834 15.0168 16.1121 15.0168V15.2668C17.2227 15.2668 18.125 14.3587 18.125 13.2437H17.875ZM16.1121 15.0168H12.0573V15.2668H16.1121V15.0168ZM11.9683 15.054L8.28929 18.7775L8.46713 18.9532L12.1462 15.2297L11.9683 15.054ZM8.28941 18.7774C8.22625 18.8412 8.14185 18.875 8.05607 18.875V19.125C8.20751 19.125 8.35617 19.0652 8.46702 18.9533L8.28941 18.7774Z" fill="#1A1A1A"/>
</svg>
