<svg width="16" height="19" viewBox="0 0 16 19" fill="none" xmlns="http://www.w3.org/2000/svg">
<path fill-rule="evenodd" clip-rule="evenodd" d="M13.5585 15.1642C15.025 15.1642 16 14.3806 16 12.709V5.67164H11.6852C10.9098 5.67164 10.4261 5.20149 10.4261 4.44776V0H6.29559C4.69098 0 3.80806 0.850746 3.80806 2.39552V2.74627H4.9904C6.19578 2.74627 7.07102 3.02239 7.92322 3.84328L12.2841 8.08209C13.1132 8.88806 13.3205 9.81343 13.3205 10.9254V15.1642H13.5585ZM15.8772 4.66418C15.8388 4.41045 15.6468 4.1791 15.3551 3.88806L12.2534 0.798507C11.9693 0.514925 11.7236 0.328358 11.4626 0.298507L11.4702 4.23881C11.4702 4.53731 11.5931 4.66418 11.9002 4.66418H15.8772ZM9.68906 19C11.3321 19 12.1919 18.1567 12.1919 16.5448V10.7612H6.71785C5.7428 10.7612 5.26679 10.291 5.26679 9.34328V3.83582H2.50288C0.859885 3.83582 0 4.68657 0 6.29851V16.5448C0 18.1642 0.859885 19 2.50288 19H9.68906ZM12.0537 9.66418C11.9616 9.34328 11.762 9.03731 11.4165 8.69403L7.37044 4.70149C7.01727 4.35821 6.71785 4.12687 6.38772 4.02985V9.25373C6.38772 9.52239 6.53359 9.66418 6.80998 9.66418H12.0537Z" fill="white"/>
</svg>
