<svg width="28" height="28" viewBox="0 0 28 28" fill="none" xmlns="http://www.w3.org/2000/svg">
<mask id="mask0_270_24108" style="mask-type:luminance" maskUnits="userSpaceOnUse" x="0" y="0" width="28" height="28">
<path d="M28 0H0V28H28V0Z" fill="#fff"/>
</mask>
<g mask="url(#mask0_270_24108)">
<path fill-rule="evenodd" clip-rule="evenodd" d="M17.542 9.66504C17.542 7.51172 15.9072 5.85938 14 5.85938C12.084 5.85938 10.4492 7.53809 10.4492 9.68262C10.458 11.8711 12.0752 13.5762 14 13.5762C15.9248 13.5762 17.542 11.8711 17.542 9.66504ZM10.2471 15.958C11.5039 17.0215 12.3125 18.6035 12.3125 20.3613C12.3125 20.8359 12.251 21.3105 12.1279 21.75H19.4756C20.917 21.75 21.418 21.3105 21.418 20.502C21.418 18.2432 18.5527 15.1318 13.9912 15.1318C12.5586 15.1318 11.293 15.457 10.2471 15.958ZM11.0645 20.3613C11.0645 17.8828 9.0166 15.835 6.5293 15.835C4.05078 15.835 2.00293 17.8828 2.00293 20.3613C2.00293 22.8486 4.05078 24.8965 6.5293 24.8965C8.99023 24.8965 11.0645 22.8398 11.0645 20.3613ZM4.26172 19.7637H5.93164V18.1025C5.93164 17.7422 6.16895 17.4961 6.5293 17.4961C6.89844 17.4961 7.13574 17.7422 7.13574 18.1025V19.7637H8.79688C9.15723 19.7637 9.40332 20.001 9.40332 20.3613C9.40332 20.7305 9.15723 20.9678 8.79688 20.9678H7.13574V22.6377C7.13574 22.998 6.89844 23.2354 6.5293 23.2354C6.16895 23.2354 5.93164 22.998 5.93164 22.6377V20.9678H4.26172C3.91016 20.9678 3.66406 20.7305 3.66406 20.3613C3.65527 20.001 3.90137 19.7637 4.26172 19.7637Z" fill="white"/>
</g>
</svg>
