<svg width="44" height="44" viewBox="0 0 44 44" fill="none" xmlns="http://www.w3.org/2000/svg">
<mask id="mask0_270_27103" style="mask-type:luminance" maskUnits="userSpaceOnUse" x="0" y="0" width="44" height="44">
<path d="M44 0H0V44H44V0Z" fill="#fff"/>
</mask>
<g mask="url(#mask0_270_27103)">
<path fill-rule="evenodd" clip-rule="evenodd" d="M36.2808 21.4568C36.2808 13.6395 29.8033 7.17578 21.9722 7.17578C14.155 7.17578 7.70508 13.6395 7.70508 21.4568C7.70508 29.274 14.1688 35.7377 21.986 35.7377C29.8171 35.7377 36.2808 29.274 36.2808 21.4568ZM13.6025 29.2326C11.7242 27.2023 10.5778 24.4676 10.5778 21.4568C10.5778 15.1173 15.6466 10.0347 21.9722 10.0347C28.3117 10.0347 33.4081 15.1173 33.4219 21.4568C33.4219 24.4676 32.2755 27.2023 30.3834 29.2464C28.9194 27.6304 25.8947 26.2355 21.986 26.2355C18.0912 26.2355 15.0665 27.6304 13.6025 29.2326ZM26.751 18.7497C26.751 15.9598 24.6516 13.6257 21.986 13.6257C19.3343 13.6257 17.2211 15.9598 17.2349 18.7497C17.2487 21.7054 19.3205 23.9566 21.986 23.9704C24.6655 23.998 26.751 21.7054 26.751 18.7497Z" fill="white"/>
</g>
</svg>
