<?xml version="1.0" encoding="UTF-8"?><svg id="_层_1" xmlns="http://www.w3.org/2000/svg" viewBox="0 0 349.97 348.72"><defs><style>.cls-1{fill:#fff;}</style></defs><path class="cls-1" d="M151.85,160.8c-4.49,7.56-74.61,8.83-112.87-12.61C.73,126.75,19.31,61.2,58.11,43.99c38.8-17.21,98.23,109.25,93.73,116.81Z"/><path class="cls-1" d="M151.32,187.03c4.5,7.56-29.43,67.14-67.68,88.57C45.38,297.04-3.81,248.65,.23,207.42c4.04-41.22,146.59-27.95,151.08-20.39Z"/><path class="cls-1" d="M174.46,200.59c8.99,0,45.18,58.31,45.18,101.19s-67.77,60.03-102.53,36.02c-34.76-24.01,48.36-137.2,57.35-137.2Z"/><path class="cls-1" d="M198.13,187.93c4.49-7.56,74.61-8.83,112.87,12.61,38.25,21.44,19.67,86.99-19.13,104.2-38.8,17.21-98.23-109.25-93.74-116.81Z"/><path class="cls-1" d="M198.66,161.69c-4.5-7.56,29.43-67.14,67.68-88.57,38.25-21.44,87.44,26.96,83.4,68.18-4.04,41.22-146.59,27.95-151.08,20.39Z"/><path class="cls-1" d="M175.52,148.12c-8.99,0-45.18-58.31-45.18-101.18S198.11-13.09,232.86,10.92c34.76,24.01-48.36,137.2-57.35,137.2Z"/></svg>