<svg width="28" height="28" viewBox="0 0 28 28" fill="none" xmlns="http://www.w3.org/2000/svg">
<rect width="28" height="28" fill="#D8D8D8" fill-opacity="0.01"/>
<path fill-rule="evenodd" clip-rule="evenodd" d="M22.0316 10.4201H11.0676C10.8091 10.4201 10.5996 10.2199 10.5996 9.97276C10.5996 9.7258 10.8091 9.52539 11.0676 9.52539H22.0316C22.2901 9.52539 22.4996 9.7258 22.4996 9.97276C22.4996 10.2199 22.2901 10.4201 22.0316 10.4201" fill="white"/>
<path d="M22.0316 10.4201H11.0676C10.8091 10.4201 10.5996 10.2199 10.5996 9.97276C10.5996 9.7258 10.8091 9.52539 11.0676 9.52539H22.0316C22.2901 9.52539 22.4996 9.7258 22.4996 9.97276C22.4996 10.2199 22.2901 10.4201 22.0316 10.4201" stroke="white" stroke-width="0.5"/>
<path fill-rule="evenodd" clip-rule="evenodd" d="M17.8148 14.4474C17.6968 14.4474 17.5797 14.3918 17.4976 14.284C17.3496 14.0895 17.3714 13.7986 17.5464 13.6341L21.4415 9.97366L17.5464 6.31335C17.3714 6.14873 17.3496 5.85778 17.4976 5.66334C17.6458 5.4689 17.9077 5.44455 18.0827 5.60917L22.3525 9.62166C22.4457 9.70917 22.4994 9.83798 22.4994 9.97366C22.4994 10.1093 22.4457 10.2383 22.3525 10.3258L18.0827 14.3383C18.0048 14.4116 17.9095 14.4474 17.8148 14.4474" fill="white"/>
<path d="M17.8148 14.4474C17.6968 14.4474 17.5797 14.3918 17.4976 14.284C17.3496 14.0895 17.3714 13.7986 17.5464 13.6341L21.4415 9.97366L17.5464 6.31335C17.3714 6.14873 17.3496 5.85778 17.4976 5.66334C17.6458 5.4689 17.9077 5.44455 18.0827 5.60917L22.3525 9.62166C22.4457 9.70917 22.4994 9.83798 22.4994 9.97366C22.4994 10.1093 22.4457 10.2383 22.3525 10.3258L18.0827 14.3383C18.0048 14.4116 17.9095 14.4474 17.8148 14.4474" stroke="white" stroke-width="0.5"/>
<path fill-rule="evenodd" clip-rule="evenodd" d="M16.932 18.4729H5.96799C5.70947 18.4729 5.5 18.2726 5.5 18.0255C5.5 17.7785 5.70947 17.5781 5.96799 17.5781H16.932C17.1905 17.5781 17.4 17.7785 17.4 18.0255C17.4 18.2726 17.1905 18.4729 16.932 18.4729" fill="white"/>
<path d="M16.932 18.4729H5.96799C5.70947 18.4729 5.5 18.2726 5.5 18.0255C5.5 17.7785 5.70947 17.5781 5.96799 17.5781H16.932C17.1905 17.5781 17.4 17.7785 17.4 18.0255C17.4 18.2726 17.1905 18.4729 16.932 18.4729" stroke="white" stroke-width="0.5"/>
<path fill-rule="evenodd" clip-rule="evenodd" d="M10.1846 22.5001C10.09 22.5001 9.99466 22.4643 9.91667 22.3911L5.64692 18.3784C5.55368 18.2909 5.5 18.1621 5.5 18.0264C5.5 17.8907 5.55368 17.7619 5.64692 17.6742L9.91667 13.6619C10.0917 13.4973 10.3536 13.5216 10.5018 13.7161C10.6498 13.9105 10.6281 14.2015 10.453 14.3661L6.55795 18.0264L10.453 21.6869C10.6281 21.8513 10.6498 22.1423 10.5018 22.3367C10.4197 22.4445 10.3025 22.5001 10.1846 22.5001" fill="white"/>
<path d="M10.1846 22.5001C10.09 22.5001 9.99466 22.4643 9.91667 22.3911L5.64692 18.3784C5.55368 18.2909 5.5 18.1621 5.5 18.0264C5.5 17.8907 5.55368 17.7619 5.64692 17.6742L9.91667 13.6619C10.0917 13.4973 10.3536 13.5216 10.5018 13.7161C10.6498 13.9105 10.6281 14.2015 10.453 14.3661L6.55795 18.0264L10.453 21.6869C10.6281 21.8513 10.6498 22.1423 10.5018 22.3367C10.4197 22.4445 10.3025 22.5001 10.1846 22.5001" stroke="white" stroke-width="0.5"/>
</svg>
