<svg width="28" height="28" viewBox="0 0 28 28" fill="none" xmlns="http://www.w3.org/2000/svg">
<rect width="28" height="28" transform="matrix(-1 0 0 1 28 0)" fill="#D8D8D8" fill-opacity="0.01"/>
<path fill-rule="evenodd" clip-rule="evenodd" d="M5.96838 10.4201H16.9324C17.1909 10.4201 17.4004 10.2199 17.4004 9.97276C17.4004 9.7258 17.1909 9.52539 16.9324 9.52539H5.96838C5.70986 9.52539 5.50039 9.7258 5.50039 9.97276C5.50039 10.2199 5.70986 10.4201 5.96838 10.4201" fill="#BEBEBE"/>
<path d="M5.96838 10.4201H16.9324C17.1909 10.4201 17.4004 10.2199 17.4004 9.97276C17.4004 9.7258 17.1909 9.52539 16.9324 9.52539H5.96838C5.70986 9.52539 5.50039 9.7258 5.50039 9.97276C5.50039 10.2199 5.70986 10.4201 5.96838 10.4201" stroke="#BEBEBE" stroke-width="0.5"/>
<path fill-rule="evenodd" clip-rule="evenodd" d="M10.1852 14.4474C10.3032 14.4474 10.4203 14.3918 10.5024 14.284C10.6504 14.0895 10.6286 13.7986 10.4536 13.6341L6.55854 9.97366L10.4536 6.31335C10.6286 6.14873 10.6504 5.85778 10.5024 5.66334C10.3542 5.4689 10.0923 5.44455 9.91726 5.60917L5.6475 9.62166C5.55427 9.70917 5.50059 9.83798 5.50059 9.97366C5.50059 10.1093 5.55427 10.2383 5.6475 10.3258L9.91726 14.3383C9.99524 14.4116 10.0905 14.4474 10.1852 14.4474" fill="#BEBEBE"/>
<path d="M10.1852 14.4474C10.3032 14.4474 10.4203 14.3918 10.5024 14.284C10.6504 14.0895 10.6286 13.7986 10.4536 13.6341L6.55854 9.97366L10.4536 6.31335C10.6286 6.14873 10.6504 5.85778 10.5024 5.66334C10.3542 5.4689 10.0923 5.44455 9.91726 5.60917L5.6475 9.62166C5.55427 9.70917 5.50059 9.83798 5.50059 9.97366C5.50059 10.1093 5.55427 10.2383 5.6475 10.3258L9.91726 14.3383C9.99524 14.4116 10.0905 14.4474 10.1852 14.4474" stroke="#BEBEBE" stroke-width="0.5"/>
<path fill-rule="evenodd" clip-rule="evenodd" d="M11.068 18.4729H22.032C22.2905 18.4729 22.5 18.2726 22.5 18.0255C22.5 17.7785 22.2905 17.5781 22.032 17.5781H11.068C10.8095 17.5781 10.6 17.7785 10.6 18.0255C10.6 18.2726 10.8095 18.4729 11.068 18.4729" fill="#BEBEBE"/>
<path d="M11.068 18.4729H22.032C22.2905 18.4729 22.5 18.2726 22.5 18.0255C22.5 17.7785 22.2905 17.5781 22.032 17.5781H11.068C10.8095 17.5781 10.6 17.7785 10.6 18.0255C10.6 18.2726 10.8095 18.4729 11.068 18.4729" stroke="#BEBEBE" stroke-width="0.5"/>
<path fill-rule="evenodd" clip-rule="evenodd" d="M17.8154 22.5001C17.91 22.5001 18.0053 22.4643 18.0833 22.3911L22.3531 18.3784C22.4463 18.2909 22.5 18.1621 22.5 18.0264C22.5 17.8907 22.4463 17.7619 22.3531 17.6742L18.0833 13.6619C17.9083 13.4973 17.6464 13.5216 17.4982 13.7161C17.3502 13.9105 17.3719 14.2015 17.547 14.3661L21.4421 18.0264L17.547 21.6869C17.3719 21.8513 17.3502 22.1423 17.4982 22.3367C17.5803 22.4445 17.6975 22.5001 17.8154 22.5001" fill="#BEBEBE"/>
<path d="M17.8154 22.5001C17.91 22.5001 18.0053 22.4643 18.0833 22.3911L22.3531 18.3784C22.4463 18.2909 22.5 18.1621 22.5 18.0264C22.5 17.8907 22.4463 17.7619 22.3531 17.6742L18.0833 13.6619C17.9083 13.4973 17.6464 13.5216 17.4982 13.7161C17.3502 13.9105 17.3719 14.2015 17.547 14.3661L21.4421 18.0264L17.547 21.6869C17.3719 21.8513 17.3502 22.1423 17.4982 22.3367C17.5803 22.4445 17.6975 22.5001 17.8154 22.5001" stroke="#BEBEBE" stroke-width="0.5"/>
</svg>
