<svg width="9" height="8" viewBox="0 0 9 8" fill="none" xmlns="http://www.w3.org/2000/svg">
<path d="M6.79151 2.44398C6.62547 2.3425 6.40959 2.3425 6.22694 2.44398L4.93173 3.22199L4.05166 3.72939L2.75647 4.5074C2.59041 4.60888 2.37455 4.60888 2.19188 4.5074L1.16236 3.89852C0.996315 3.79705 0.880083 3.61099 0.880083 3.40803V2.20719C0.880083 2.00423 0.97971 1.81818 1.16236 1.7167L2.17528 1.12473C2.34133 1.02325 2.5572 1.02325 2.73986 1.12473L3.75277 1.7167C3.91883 1.81818 4.03506 2.00423 4.03506 2.20719V2.9852L4.91513 2.46088V1.68287C4.91513 1.47991 4.8155 1.29386 4.63285 1.19239L2.75647 0.076108C2.59041 -0.0253693 2.37455 -0.0253693 2.19188 0.076108L0.282291 1.19239C0.0996274 1.29386 0 1.47991 0 1.68287V3.93234C0 4.1353 0.0996274 4.32135 0.282291 4.42283L2.19188 5.5391C2.35794 5.6406 2.5738 5.6406 2.75647 5.5391L4.05166 4.77801L4.93173 4.25369L6.22694 3.4926C6.39299 3.39112 6.60886 3.39112 6.79151 3.4926L7.80443 4.08456C7.97048 4.18605 8.08672 4.37209 8.08672 4.57506V5.7759C8.08672 5.97886 7.98708 6.1649 7.80443 6.26638L6.79151 6.87527C6.62547 6.97675 6.40959 6.97675 6.22694 6.87527L5.21402 6.2833C5.04798 6.18182 4.93173 5.99577 4.93173 5.79281V5.0148L4.05166 5.5391V6.31712C4.05166 6.52008 4.15129 6.70614 4.33395 6.80761L6.24355 7.92389C6.40959 8.02537 6.62547 8.02537 6.80812 7.92389L8.71771 6.80761C8.88377 6.70614 9 6.52008 9 6.31712V4.06766C9 3.86469 8.90037 3.67865 8.71771 3.57716L6.79151 2.44398Z" fill="white"/>
</svg>
