<?xml version="1.0" encoding="UTF-8"?>
<svg width="28px" height="28px" viewBox="0 0 28 28" version="1.1" xmlns="http://www.w3.org/2000/svg" xmlns:xlink="http://www.w3.org/1999/xlink">
    <title>person.crop.circle.badge.minus</title>
    <defs>
        <rect id="path-1" x="0" y="0" width="28" height="28"></rect>
    </defs>
    <g id="SF-Symbols" stroke="none" stroke-width="1" fill="none" fill-rule="evenodd">
        <g id="Human" transform="translate(-50.000000, -264.000000)">
            <g id="person.crop.circle.badge.minus" transform="translate(50.000000, 264.000000)">
                <mask id="mask-2" fill="white">
                    <use xlink:href="#path-1"></use>
                </mask>
                <g id="person.crop.circle.badge.minus-(Background/Mask)"></g>
                <path d="M23.0878906,13.6542969 C23.0878906,8.6796875 18.9658203,4.56640625 13.9912109,4.56640625 C9.36816406,4.56640625 5.50097656,8.10839844 4.98242188,12.5996094 C5.52734375,12.4765625 6.24804688,12.4414062 6.828125,12.5380859 C7.34667969,9.04003906 10.3349609,6.38574219 13.9912109,6.38574219 C18.0253906,6.38574219 21.2773438,9.62011719 21.2773438,13.6542969 C21.2773438,15.5791016 20.5390625,17.3193359 19.3173828,18.6113281 C18.4121094,17.609375 16.4960938,16.6953125 13.9912109,16.6953125 C13.2089844,16.6953125 12.4794922,16.7832031 11.8203125,16.9414062 C11.9257812,17.3632812 11.9785156,17.8027344 11.9785156,18.2509766 C11.9785156,19.6835938 11.4248047,21.0107422 10.5283203,22.0390625 C11.6005859,22.4873047 12.7783203,22.7421875 14,22.7421875 C18.9833984,22.7421875 23.0878906,18.6289062 23.0878906,13.6542969 Z M17.0234375,11.9316406 C17.0234375,10.15625 15.6875,8.67089844 13.9912109,8.67089844 C12.3037109,8.67089844 10.9501953,10.15625 10.9677734,11.9316406 C10.9765625,13.8125 12.2861328,15.2363281 13.9912109,15.2539062 C15.6962891,15.2626953 17.0234375,13.8125 17.0234375,11.9316406 Z M10.7216797,18.2509766 C10.7216797,15.7724609 8.68261719,13.7246094 6.1953125,13.7246094 C3.71679688,13.7246094 1.66894531,15.7724609 1.66894531,18.2509766 C1.66894531,20.7382812 3.71679688,22.7861328 6.1953125,22.7861328 C8.65625,22.7861328 10.7216797,20.7294922 10.7216797,18.2509766 Z M3.32128906,18.2509766 C3.32128906,17.9345703 3.60253906,17.6533203 3.92773438,17.6533203 L8.46289062,17.6533203 C8.796875,17.6533203 9.06933594,17.9345703 9.06933594,18.2509766 C9.06933594,18.5761719 8.796875,18.8574219 8.46289062,18.8574219 L3.92773438,18.8574219 C3.60253906,18.8574219 3.32128906,18.5761719 3.32128906,18.2509766 Z" fill="#FFFFFF" mask="url(#mask-2)"></path>
            </g>
        </g>
    </g>
</svg>