<svg width="28" height="28" viewBox="0 0 28 28" fill="none" xmlns="http://www.w3.org/2000/svg">
<mask id="mask0_28_57193" style="mask-type:luminance" maskUnits="userSpaceOnUse" x="0" y="0" width="28" height="28">
<rect width="28" height="28" fill="white"/>
</mask>
<g mask="url(#mask0_28_57193)">
<path fill-rule="evenodd" clip-rule="evenodd" d="M6.48535 23.1826H21.5059C23.4131 23.1826 24.4062 22.1982 24.4062 20.3174V7.00195C24.4062 5.12109 23.4131 4.13672 21.5059 4.13672H10.5107C8.60352 4.13672 7.61914 5.12109 7.61914 7.00195V10.9131H5.68555C4.37598 10.9131 3.59375 11.6514 3.59375 12.9082V20.3701C3.59375 22.1895 4.5957 23.1826 6.48535 23.1826ZM9.36816 20.2998V7.16016C9.36816 6.31641 9.80762 5.89453 10.625 5.89453H21.3916C22.2178 5.89453 22.6484 6.31641 22.6484 7.16016V20.1592C22.6484 21.0029 22.2178 21.4248 21.3916 21.4248H9.11328C9.28027 21.1084 9.36816 20.7305 9.36816 20.2998ZM20.4336 9.62988C20.7676 9.62988 21.0225 9.36621 21.0225 9.03223C21.0225 8.70703 20.7676 8.45215 20.4336 8.45215H11.6006C11.249 8.45215 10.9941 8.70703 10.9941 9.03223C10.9941 9.36621 11.2578 9.62988 11.6006 9.62988H20.4336ZM20.4336 12.6621C20.7676 12.6621 21.0225 12.4072 21.0225 12.082C21.0225 11.748 20.7676 11.4844 20.4336 11.4844H11.6006C11.2578 11.4844 10.9941 11.748 10.9941 12.082C10.9941 12.4072 11.249 12.6621 11.6006 12.6621H20.4336ZM5.34277 13.2158C5.34277 12.873 5.5625 12.6621 5.91406 12.6621H7.61914V20.2734C7.61914 20.9502 7.12695 21.4248 6.48535 21.4248C5.84375 21.4248 5.34277 20.9326 5.34277 20.2734V13.2158ZM14.2725 18.7617C14.958 18.7617 15.3799 18.3486 15.3799 17.6631V15.624C15.3799 14.9473 14.958 14.5254 14.2725 14.5254H12.0928C11.4072 14.5254 10.9854 14.9473 10.9854 15.624V17.6631C10.9854 18.3486 11.4072 18.7617 12.0928 18.7617H14.2725ZM20.4336 15.7031C20.7676 15.7031 21.0225 15.4482 21.0225 15.123C21.0225 14.7891 20.7676 14.5254 20.4336 14.5254H16.9355C16.584 14.5254 16.3379 14.7891 16.3379 15.123C16.3379 15.4482 16.5928 15.7031 16.9355 15.7031H20.4336ZM20.4336 18.7617C20.7676 18.7617 21.0225 18.5068 21.0225 18.1816C21.0225 17.8477 20.7676 17.584 20.4336 17.584H16.9355C16.5928 17.584 16.3379 17.8477 16.3379 18.1816C16.3379 18.5068 16.584 18.7617 16.9355 18.7617H20.4336Z" fill="#BEBEBE"/>
</g>
</svg>
