<?xml version="1.0" encoding="UTF-8"?>
<svg width="28px" height="28px" viewBox="0 0 28 28" version="1.1" xmlns="http://www.w3.org/2000/svg" xmlns:xlink="http://www.w3.org/1999/xlink">
    <title>newspaper</title>
    <defs>
        <rect id="path-1" x="0" y="0" width="28" height="28"></rect>
    </defs>
    <g id="SF-Symbols" stroke="none" stroke-width="1" fill="none" fill-rule="evenodd">
        <g id="Object-&amp;-Tools" transform="translate(-194.000000, -604.000000)">
            <g id="newspaper" transform="translate(194.000000, 604.000000)">
                <mask id="mask-2" fill="white">
                    <use xlink:href="#path-1"></use>
                </mask>
                <g id="newspaper-(Background/Mask)"></g>
                <path d="M6.48535156,23.1816406 L21.5058594,23.1816406 C23.4130859,23.1816406 24.40625,22.1972656 24.40625,20.3164062 L24.40625,7.00097656 C24.40625,5.12011719 23.4130859,4.13574219 21.5058594,4.13574219 L10.5107422,4.13574219 C8.60351562,4.13574219 7.61914062,5.12011719 7.61914062,7.00097656 L7.61914062,10.9121094 L5.68554688,10.9121094 C4.37597656,10.9121094 3.59375,11.6503906 3.59375,12.9072266 L3.59375,20.3691406 C3.59375,22.1884766 4.59570312,23.1816406 6.48535156,23.1816406 Z M9.36816406,20.2988281 L9.36816406,7.15917969 C9.36816406,6.31542969 9.80761719,5.89355469 10.625,5.89355469 L21.3916016,5.89355469 C22.2177734,5.89355469 22.6484375,6.31542969 22.6484375,7.15917969 L22.6484375,20.1582031 C22.6484375,21.0019531 22.2177734,21.4238281 21.3916016,21.4238281 L9.11328125,21.4238281 C9.28027344,21.1074219 9.36816406,20.7294922 9.36816406,20.2988281 Z M20.4335938,9.62890625 C20.7675781,9.62890625 21.0224609,9.36523438 21.0224609,9.03125 C21.0224609,8.70605469 20.7675781,8.45117188 20.4335938,8.45117188 L11.6005859,8.45117188 C11.2490234,8.45117188 10.9941406,8.70605469 10.9941406,9.03125 C10.9941406,9.36523438 11.2578125,9.62890625 11.6005859,9.62890625 L20.4335938,9.62890625 Z M20.4335938,12.6611328 C20.7675781,12.6611328 21.0224609,12.40625 21.0224609,12.0810547 C21.0224609,11.7470703 20.7675781,11.4833984 20.4335938,11.4833984 L11.6005859,11.4833984 C11.2578125,11.4833984 10.9941406,11.7470703 10.9941406,12.0810547 C10.9941406,12.40625 11.2490234,12.6611328 11.6005859,12.6611328 L20.4335938,12.6611328 Z M5.34277344,13.2148438 C5.34277344,12.8720703 5.5625,12.6611328 5.9140625,12.6611328 L7.61914062,12.6611328 L7.61914062,20.2724609 C7.61914062,20.9492188 7.12695312,21.4238281 6.48535156,21.4238281 C5.84375,21.4238281 5.34277344,20.9316406 5.34277344,20.2724609 L5.34277344,13.2148438 Z M14.2724609,18.7607422 C14.9580078,18.7607422 15.3798828,18.3476562 15.3798828,17.6621094 L15.3798828,15.6230469 C15.3798828,14.9462891 14.9580078,14.5244141 14.2724609,14.5244141 L12.0927734,14.5244141 C11.4072266,14.5244141 10.9853516,14.9462891 10.9853516,15.6230469 L10.9853516,17.6621094 C10.9853516,18.3476562 11.4072266,18.7607422 12.0927734,18.7607422 L14.2724609,18.7607422 Z M20.4335938,15.7021484 C20.7675781,15.7021484 21.0224609,15.4472656 21.0224609,15.1220703 C21.0224609,14.7880859 20.7675781,14.5244141 20.4335938,14.5244141 L16.9355469,14.5244141 C16.5839844,14.5244141 16.3378906,14.7880859 16.3378906,15.1220703 C16.3378906,15.4472656 16.5927734,15.7021484 16.9355469,15.7021484 L20.4335938,15.7021484 Z M20.4335938,18.7607422 C20.7675781,18.7607422 21.0224609,18.5058594 21.0224609,18.1806641 C21.0224609,17.8466797 20.7675781,17.5830078 20.4335938,17.5830078 L16.9355469,17.5830078 C16.5927734,17.5830078 16.3378906,17.8466797 16.3378906,18.1806641 C16.3378906,18.5058594 16.5839844,18.7607422 16.9355469,18.7607422 L20.4335938,18.7607422 Z" fill="#FFFFFF" mask="url(#mask-2)"></path>
            </g>
        </g>
    </g>
</svg>